<svg xmlns="http://www.w3.org/2000/svg" viewBox="0 0 800 480" width="1600" height="960" preserveAspectRatio="xMidYMid slice" xmlns:c2pa="http://c2pa.org/manifest"><metadata><c2pa:manifest>AAAWgmp1bWIAAAAeanVtZGMycGEAEQAQgAAAqgA4m3EDYzJwYQAAABZcanVtYgAAAEdqdW1kYzJtYQARABCAAACqADibcQN1cm46YzJwYTpiMGZmMWZmZi04ZjUwLTQ1OWYtODY0MS03OWY5Yzc0ODAyMWIAAAADl2p1bWIAAAApanVtZGMyYXMAEQAQgAAAqgA4m3EDYzJwYS5hc3NlcnRpb25zAAAAALxqdW1iAAAARGp1bWRjYm9yABEAEIAAAKoAOJtxE2MycGEuaW5ncmVkaWVudC52MwAAAAAYYzJzaNy75FQwiQ3Ue5r1rM9+Wt4AAABwY2JvcqNpZGM6Zm9ybWF0bWltYWdlL3N2Zyt4bWxqaW5zdGFuY2VJRHgseG1wOmlpZDoxNjgyMTJiOC1mOWRiLTRmOTYtODA5Yy0zNjU4ZjViMjkwNmZscmVsYXRpb25zaGlwaHBhcmVudE9mAAAB4mp1bWIAAABBanVtZGNib3IAEQAQgAAAqgA4m3ETYzJwYS5hY3Rpb25zLnYyAAAAABhjMnNo8xv29DmgnK+SQCHGdpOF8wAAAZljYm9yomdhY3Rpb25zgqJmYWN0aW9ua2MycGEub3BlbmVkanBhcmFtZXRlcnOha2luZ3JlZGllbnRzgaJjdXJseC1zZWxmI2p1bWJmPWMycGEuYXNzZXJ0aW9ucy9jMnBhLmluZ3JlZGllbnQudjNkaGFzaFgg9gvGNzbSnXdCE2uNTB3zvUhuLFAN9tt6Lcev29Z7u7ikZmFjdGlvbngdY29tLmFudGhyb3BpYy5jbGF1ZGUucHJvdmlkZWRqcGFyYW1ldGVyc6F4H2NvbS5hbnRocm9waWMub3JpZ2luLWNvbmZpZGVuY2VndW5rbm93bmtkZXNjcmlwdGlvbnhmQ2xhdWRlIHByb3ZpZGVkIHRoaXMgZmlsZSBhdCB0aGUgcmVxdWVzdCBvZiBhIHVzZXIgYW5kIG1heSBoYXZlIGNyZWF0ZWQgb3IgbW9kaWZpZWQgdGhlIGZpbGUgY29udGVudHMubXNvZnR3YXJlQWdlbnShZG5hbWVmQ2xhdWRlcmFsbEFjdGlvbnNJbmNsdWRlZPUAAADIanVtYgAAAEBqdW1kY2JvcgARABCAAACqADibcRNjMnBhLmhhc2guZGF0YQAAAAAYYzJzaJEnqeIOlcGN0KK/oKl0eYcAAACAY2JvcqVjYWxnZnNoYTI1NmNwYWRNAAAAAAAAAAAAAAAAAGRoYXNoWCAKwRe28JBCkF3xWCu1eFNECtWoUM3sQuJOMH7Tmkvdk2RuYW1lbmp1bWJmIG1hbmlmZXN0amV4Y2x1c2lvbnOBomVzdGFydBi8Zmxlbmd0aBkeBAAAAj5qdW1iAAAAJ2p1bWRjMmNsABEAEIAAAKoAOJtxA2MycGEuY2xhaW0udjIAAAACD2Nib3KlY2FsZ2ZzaGEyNTZpc2lnbmF0dXJleE1zZWxmI2p1bWJmPS9jMnBhL3VybjpjMnBhOmIwZmYxZmZmLThmNTAtNDU5Zi04NjQxLTc5ZjljNzQ4MDIxYi9jMnBhLnNpZ25hdHVyZWppbnN0YW5jZUlEeCx4bXA6aWlkOjNkZDdkNGUzLTllMTYtNDdmNy1iZmQwLTg5OGNmMWFmYjIwYnJjcmVhdGVkX2Fzc2VydGlvbnODomN1cmx4LXNlbGYjanVtYmY9YzJwYS5hc3NlcnRpb25zL2MycGEuaW5ncmVkaWVudC52M2RoYXNoWCD2C8Y3NtKdd0ITa41MHfO9SG4sUA3223otx6/b1nu7uKJjdXJseCpzZWxmI2p1bWJmPWMycGEuYXNzZXJ0aW9ucy9jMnBhLmFjdGlvbnMudjJkaGFzaFggV9jyOFxDggZbPcWx12G4fXWrjfNW0n0JHrr5pK5vQEOiY3VybHgpc2VsZiNqdW1iZj1jMnBhLmFzc2VydGlvbnMvYzJwYS5oYXNoLmRhdGFkaGFzaFgg34eK5LCDasWzcQCgt62BfDcNx2gZDKwQr21ESv6zqSp0Y2xhaW1fZ2VuZXJhdG9yX2luZm+jZG5hbWVvQW50aHJvcGljIEZpbGVzZ3ZlcnNpb25lMS4wLjBrc3BlY1ZlcnNpb25lMi40LjAAABA4anVtYgAAAChqdW1kYzJjcwARABCAAACqADibcQNjMnBhLnNpZ25hdHVyZQAAABAIY2JvctKEWQISogEmGCFZAgowggIGMIIBjaADAgECAhRA5aAK7sI50L64g/oGQgU9Z1UTADAKBggqhkjOPQQDAzBJMRcwFQYDVQQKEw5BbnRocm9waWMsIFBCQzEuMCwGA1UEAxMlQW50aHJvcGljIENvbnRlbnQgQ3JlZGVudGlhbHMgUm9vdCBDQTAeFw0yNjA4MDcxODQzNTZaFw0yODA4MDYxOTQzNTZaMEQxFzAVBgNVBAoTDkFudGhyb3BpYywgUEJDMSkwJwYDVQQDEyBBbnRocm9waWMgQ2xhdWRlIENvbnRlbnQgU2lnbmluZzBZMBMGByqGSM49AgEGCCqGSM49AwEHA0IABJh6CmvLUBgFFNU0vUKlOVtE6djd17L5SuwX0LemFisBM3dkd/3cyjxFA3Qo5S46fX0/ihY0VZ7mfb9KF703t5OjWDBWMA4GA1UdDwEB/wQEAwIHgDAVBgNVHSUEDjAMBgorBgEEAYPoXgIBMAwGA1UdEwEB/wQCMAAwHwYDVR0jBBgwFoAUzlHiBIFOZFsj+OPEz5o+nMHXXMIwCgYIKoZIzj0EAwMDZwAwZAIwMXMdFJ4BetLLVY7ORuE9noqbbAZOZn/aArXyTwFAZfKrPzxF2vPoJNf1+UCdg1XGAjBwX1zd9WGqYkqmL5SFqw1QySjr1zJfpJM9+1rdDwSPLMOPOjKuiXjoU/pUUeG9RwmhY3BhZFkNngAAAAAAAAAAAAAAAAAAAAAAAAAAAAAAAAAAAAAAAAAAAAAAAAAAAAAAAAAAAAAAAAAAAAAAAAAAAAAAAAAAAAAAAAAAAAAAAAAAAAAAAAAAAAAAAAAAAAAAAAAAAAAAAAAAAAAAAAAAAAAAAAAAAAAAAAAAAAAAAAAAAAAAAAAAAAAAAAAAAAAAAAAAAAAAAAAAAAAAAAAAAAAAAAAAAAAAAAAAAAAAAAAAAAAAAAAAAAAAAAAAAAAAAAAAAAAAAAAAAAAAAAAAAAAAAAAAAAAAAAAAAAAAAAAAAAAAAAAAAAAAAAAAAAAAAAAAAAAAAAAAAAAAAAAAAAAAAAAAAAAAAAAAAAAAAAAAAAAAAAAAAAAAAAAAAAAAAAAAAAAAAAAAAAAAAAAAAAAAAAAAAAAAAAAAAAAAAAAAAAAAAAAAAAAAAAAAAAAAAAAAAAAAAAAAAAAAAAAAAAAAAAAAAAAAAAAAAAAAAAAAAAAAAAAAAAAAAAAAAAAAAAAAAAAAAAAAAAAAAAAAAAAAAAAAAAAAAAAAAAAAAAAAAAAAAAAAAAAAAAAAAAAAAAAAAAAAAAAAAAAAAAAAAAAAAAAAAAAAAAAAAAAAAAAAAAAAAAAAAAAAAAAAAAAAAAAAAAAAAAAAAAAAAAAAAAAAAAAAAAAAAAAAAAAAAAAAAAAAAAAAAAAAAAAAAAAAAAAAAAAAAAAAAAAAAAAAAAAAAAAAAAAAAAAAAAAAAAAAAAAAAAAAAAAAAAAAAAAAAAAAAAAAAAAAAAAAAAAAAAAAAAAAAAAAAAAAAAAAAAAAAAAAAAAAAAAAAAAAAAAAAAAAAAAAAAAAAAAAAAAAAAAAAAAAAAAAAAAAAAAAAAAAAAAAAAAAAAAAAAAAAAAAAAAAAAAAAAAAAAAAAAAAAAAAAAAAAAAAAAAAAAAAAAAAAAAAAAAAAAAAAAAAAAAAAAAAAAAAAAAAAAAAAAAAAAAAAAAAAAAAAAAAAAAAAAAAAAAAAAAAAAAAAAAAAAAAAAAAAAAAAAAAAAAAAAAAAAAAAAAAAAAAAAAAAAAAAAAAAAAAAAAAAAAAAAAAAAAAAAAAAAAAAAAAAAAAAAAAAAAAAAAAAAAAAAAAAAAAAAAAAAAAAAAAAAAAAAAAAAAAAAAAAAAAAAAAAAAAAAAAAAAAAAAAAAAAAAAAAAAAAAAAAAAAAAAAAAAAAAAAAAAAAAAAAAAAAAAAAAAAAAAAAAAAAAAAAAAAAAAAAAAAAAAAAAAAAAAAAAAAAAAAAAAAAAAAAAAAAAAAAAAAAAAAAAAAAAAAAAAAAAAAAAAAAAAAAAAAAAAAAAAAAAAAAAAAAAAAAAAAAAAAAAAAAAAAAAAAAAAAAAAAAAAAAAAAAAAAAAAAAAAAAAAAAAAAAAAAAAAAAAAAAAAAAAAAAAAAAAAAAAAAAAAAAAAAAAAAAAAAAAAAAAAAAAAAAAAAAAAAAAAAAAAAAAAAAAAAAAAAAAAAAAAAAAAAAAAAAAAAAAAAAAAAAAAAAAAAAAAAAAAAAAAAAAAAAAAAAAAAAAAAAAAAAAAAAAAAAAAAAAAAAAAAAAAAAAAAAAAAAAAAAAAAAAAAAAAAAAAAAAAAAAAAAAAAAAAAAAAAAAAAAAAAAAAAAAAAAAAAAAAAAAAAAAAAAAAAAAAAAAAAAAAAAAAAAAAAAAAAAAAAAAAAAAAAAAAAAAAAAAAAAAAAAAAAAAAAAAAAAAAAAAAAAAAAAAAAAAAAAAAAAAAAAAAAAAAAAAAAAAAAAAAAAAAAAAAAAAAAAAAAAAAAAAAAAAAAAAAAAAAAAAAAAAAAAAAAAAAAAAAAAAAAAAAAAAAAAAAAAAAAAAAAAAAAAAAAAAAAAAAAAAAAAAAAAAAAAAAAAAAAAAAAAAAAAAAAAAAAAAAAAAAAAAAAAAAAAAAAAAAAAAAAAAAAAAAAAAAAAAAAAAAAAAAAAAAAAAAAAAAAAAAAAAAAAAAAAAAAAAAAAAAAAAAAAAAAAAAAAAAAAAAAAAAAAAAAAAAAAAAAAAAAAAAAAAAAAAAAAAAAAAAAAAAAAAAAAAAAAAAAAAAAAAAAAAAAAAAAAAAAAAAAAAAAAAAAAAAAAAAAAAAAAAAAAAAAAAAAAAAAAAAAAAAAAAAAAAAAAAAAAAAAAAAAAAAAAAAAAAAAAAAAAAAAAAAAAAAAAAAAAAAAAAAAAAAAAAAAAAAAAAAAAAAAAAAAAAAAAAAAAAAAAAAAAAAAAAAAAAAAAAAAAAAAAAAAAAAAAAAAAAAAAAAAAAAAAAAAAAAAAAAAAAAAAAAAAAAAAAAAAAAAAAAAAAAAAAAAAAAAAAAAAAAAAAAAAAAAAAAAAAAAAAAAAAAAAAAAAAAAAAAAAAAAAAAAAAAAAAAAAAAAAAAAAAAAAAAAAAAAAAAAAAAAAAAAAAAAAAAAAAAAAAAAAAAAAAAAAAAAAAAAAAAAAAAAAAAAAAAAAAAAAAAAAAAAAAAAAAAAAAAAAAAAAAAAAAAAAAAAAAAAAAAAAAAAAAAAAAAAAAAAAAAAAAAAAAAAAAAAAAAAAAAAAAAAAAAAAAAAAAAAAAAAAAAAAAAAAAAAAAAAAAAAAAAAAAAAAAAAAAAAAAAAAAAAAAAAAAAAAAAAAAAAAAAAAAAAAAAAAAAAAAAAAAAAAAAAAAAAAAAAAAAAAAAAAAAAAAAAAAAAAAAAAAAAAAAAAAAAAAAAAAAAAAAAAAAAAAAAAAAAAAAAAAAAAAAAAAAAAAAAAAAAAAAAAAAAAAAAAAAAAAAAAAAAAAAAAAAAAAAAAAAAAAAAAAAAAAAAAAAAAAAAAAAAAAAAAAAAAAAAAAAAAAAAAAAAAAAAAAAAAAAAAAAAAAAAAAAAAAAAAAAAAAAAAAAAAAAAAAAAAAAAAAAAAAAAAAAAAAAAAAAAAAAAAAAAAAAAAAAAAAAAAAAAAAAAAAAAAAAAAAAAAAAAAAAAAAAAAAAAAAAAAAAAAAAAAAAAAAAAAAAAAAAAAAAAAAAAAAAAAAAAAAAAAAAAAAAAAAAAAAAAAAAAAAAAAAAAAAAAAAAAAAAAAAAAAAAAAAAAAAAAAAAAAAAAAAAAAAAAAAAAAAAAAAAAAAAAAAAAAAAAAAAAAAAAAAAAAAAAAAAAAAAAAAAAAAAAAAAAAAAAAAAAAAAAAAAAAAAAAAAAAAAAAAAAAAAAAAAAAAAAAAAAAAAAAAAAAAAAAAAAAAAAAAAAAAAAAAAAAAAAAAAAAAAAAAAAAAAAAAAAAAAAAAAAAAAAAAAAAAAAAAAAAAAAAAAAAAAAAAAAAAAAAAAAAAAAAAAAAAAAAAAAAAAAAAAAAAAAAAAAAAAAAAAAAAAAAAAAAAAAAAAAAAAAAAAAAAAAAAAAAAAAAAAAAAAAAAAAAAAAAAAAAAAAAAAAAAAAAAAAAAAAAAAAAAAAAAAAAAAAAAAAAAAAAAAAAAAAAAAAAAAAAAAAAAAAAAAAAAAAAAAAAAAAAAAAAAAAAAAAAAAAAAAAAAAAAAAAAAAAAAAAAAAAAAAAAAAAAAAAAAAAAAAAAAAAAAAAAAAAAAAAAAAAAAAAAAAAAAAAAAAAAAAAAAAAAAAAAAAAAAAAAAAAAAAAAAAAAAAAAAAAAAAAAAAAAAAAAAAAAAAAAAAAAAAAAAAAAAAAAAAAAAAAAAAAAAAAAAAAAAAAAAAAAAAAAAAAAAAAAAAAAAAAAAAAAAAAAAAAAAAAAAAAAAAAAAAAAAAAAAAAAAAAAAAAAAAAAAAAAAAAAAAAAAAAAAAAAAAAAAAAAAAAAAAAAAAAAAAAAAAAAAAAAAAAAAAAAAAAAAAAAAAAAAAAAAAAAAAAAAAAAAAAAAAAAAAAAAAAAAAAAAAAAAAAAAAAAAAAAAAAAAAAAAAAAAAAAAAAAAAAAAAAAAAAAAAAAAAAAAAAAAAAAAAAAAAAAAAAAAAAAAAAAAAAAAAAAAAAAAAAAAAAAAAAAAAAAAAAAAAAAAAAAAAAAAAAAAAAAAAAAAAAAAAAAAAAAAAAAAAAAAAAAAAAAAAAAAAAAAAAAAAAAAAAAAAAAAAAAAAAAAAAAAAAAAAAAAAAAAAAAAAAAAAAAAAAAAAAAAAAAAAAAAAAAAAAAAAAAAAAAAAAAAAAAAAAAAAAAAAAAAAAAAAAAAAAAAAAAAAAAAAAAAAAAAAAAAAAAAAAAAAAAAAAAAAAAAAAAAAAAAAAAAAAAAAAAAAAAAAAAAAAAAAAAAAAAAAAAAAAAAAAAAAAAAAAAAAAAAAAAAAAAAAAAAAAAAAAAAAAAAAAAAAAAAAAAAAAAAAAAAAAAAAAAAAAAAAAAAAAAAAAAAAAAAAAAAAAAAAAAAAAAAAAAAAAAAAAAAAAAAAAAAAAAAAAAAAAAAAAAAAAAAAAAAAAAAAAAAAAAAAAAAAAAAAAAAAAAAAAAAAAAAAAAAAAAAAAAAAAAAAAAAAAAAAAAAAAAAAAAAAAAAAAAAAAAAAAAAAAAAAAAAAAAAAAAAAAAAAAAAAAAAAAAAAAAAAAAAAAAAAAAAAAAAAAAAAAAAAAAAAAAAAAAAAAAAAAAAAAAAAAAAAAAAAAAAAAAAAAAAAAAAAAAAAAAAAAAAAAAAAAAAAAAAAAAAAAAAAAAAAAAAAAAAAAAAAAAAAAAAAAAAAAAPZYQFbQgHauq0Ntc6bnDRKoYbzkHzMH/CIXs4beWooBSBtDT+7lzHHKYD8yN1U7nHxyX8ftMFo31cKHGQbZCo8d8vo=</c2pa:manifest></metadata><rect width="800" height="480" fill="#1F3B2A"></rect><rect x="0" y="0" width="100" height="480" fill="#22412F"></rect><rect x="200" y="0" width="100" height="480" fill="#22412F"></rect><rect x="400" y="0" width="100" height="480" fill="#22412F"></rect><rect x="600" y="0" width="100" height="480" fill="#22412F"></rect><g fill="none" stroke="rgba(255,255,255,.16)" stroke-width="3"><rect x="20" y="20" width="760" height="440" rx="4"></rect><path d="M400 20v440"></path><circle cx="400" cy="240" r="70"></circle><rect x="20" y="150" width="90" height="180"></rect><rect x="690" y="150" width="90" height="180"></rect></g><circle cx="400" cy="240" r="5" fill="rgba(255,255,255,.2)"></circle><g transform="translate(34 418) scale(0.524)"><ellipse cx="46" cy="88" rx="30" ry="6" fill="#13261B" opacity=".5"></ellipse><circle cx="42" cy="42" r="40" fill="#FFFFFF" stroke="#16261C" stroke-width="3"></circle><path d="M42 26l13 9-5 15H34l-5-15z" fill="#16261C"></path><path d="M42 2v10M55 35l14-5M50 50l9 13M34 50l-9 13M29 35l-14-5" stroke="#16261C" stroke-width="3" fill="none"></path><path d="M4 30l8 1 4 10-6 8-7-3M80 30l-8 1-4 10 6 8 7-3M22 76l4-8h9l3 10M62 76l-4-8h-9l-3 10" fill="#16261C"></path></g><g transform="translate(530 424) scale(0.381)"><ellipse cx="46" cy="88" rx="30" ry="6" fill="#13261B" opacity=".5"></ellipse><circle cx="42" cy="42" r="40" fill="#FFFFFF" stroke="#16261C" stroke-width="3"></circle><path d="M42 26l13 9-5 15H34l-5-15z" fill="#16261C"></path><path d="M42 2v10M55 35l14-5M50 50l9 13M34 50l-9 13M29 35l-14-5" stroke="#16261C" stroke-width="3" fill="none"></path><path d="M4 30l8 1 4 10-6 8-7-3M80 30l-8 1-4 10 6 8 7-3M22 76l4-8h9l3 10M62 76l-4-8h-9l-3 10" fill="#16261C"></path></g><g transform="translate(724 412) scale(0.571)"><ellipse cx="46" cy="88" rx="30" ry="6" fill="#13261B" opacity=".5"></ellipse><circle cx="42" cy="42" r="40" fill="#FFFFFF" stroke="#16261C" stroke-width="3"></circle><path d="M42 26l13 9-5 15H34l-5-15z" fill="#16261C"></path><path d="M42 2v10M55 35l14-5M50 50l9 13M34 50l-9 13M29 35l-14-5" stroke="#16261C" stroke-width="3" fill="none"></path><path d="M4 30l8 1 4 10-6 8-7-3M80 30l-8 1-4 10 6 8 7-3M22 76l4-8h9l3 10M62 76l-4-8h-9l-3 10" fill="#16261C"></path></g><g transform="translate(600 446) scale(0.286)"><ellipse cx="46" cy="88" rx="30" ry="6" fill="#13261B" opacity=".5"></ellipse><circle cx="42" cy="42" r="40" fill="#FFFFFF" stroke="#16261C" stroke-width="3"></circle><path d="M42 26l13 9-5 15H34l-5-15z" fill="#16261C"></path><path d="M42 2v10M55 35l14-5M50 50l9 13M34 50l-9 13M29 35l-14-5" stroke="#16261C" stroke-width="3" fill="none"></path><path d="M4 30l8 1 4 10-6 8-7-3M80 30l-8 1-4 10 6 8 7-3M22 76l4-8h9l3 10M62 76l-4-8h-9l-3 10" fill="#16261C"></path></g><g transform="translate(195 449) scale(0.262)"><ellipse cx="46" cy="88" rx="30" ry="6" fill="#13261B" opacity=".5"></ellipse><circle cx="42" cy="42" r="40" fill="#FFFFFF" stroke="#16261C" stroke-width="3"></circle><path d="M42 26l13 9-5 15H34l-5-15z" fill="#16261C"></path><path d="M42 2v10M55 35l14-5M50 50l9 13M34 50l-9 13M29 35l-14-5" stroke="#16261C" stroke-width="3" fill="none"></path><path d="M4 30l8 1 4 10-6 8-7-3M80 30l-8 1-4 10 6 8 7-3M22 76l4-8h9l3 10M62 76l-4-8h-9l-3 10" fill="#16261C"></path></g><g transform="translate(0 0) scale(1 1)"><path d="M0 300h34v120" fill="none" stroke="#FFFFFF" stroke-width="5"></path><g stroke="rgba(255,255,255,.35)" stroke-width="1.2"><path d="M4 304v116"></path><path d="M9 304v116"></path><path d="M14 304v116"></path><path d="M19 304v116"></path><path d="M24 304v116"></path><path d="M29 304v116"></path><path d="M0 310h32"></path><path d="M0 320h32"></path><path d="M0 330h32"></path><path d="M0 340h32"></path><path d="M0 350h32"></path><path d="M0 360h32"></path><path d="M0 370h32"></path><path d="M0 380h32"></path><path d="M0 390h32"></path><path d="M0 400h32"></path><path d="M0 410h32"></path><path d="M0 420h32"></path></g></g><g transform="translate(800 0) scale(-1 1)"><path d="M0 300h34v120" fill="none" stroke="#FFFFFF" stroke-width="5"></path><g stroke="rgba(255,255,255,.35)" stroke-width="1.2"><path d="M4 304v116"></path><path d="M9 304v116"></path><path d="M14 304v116"></path><path d="M19 304v116"></path><path d="M24 304v116"></path><path d="M29 304v116"></path><path d="M0 310h32"></path><path d="M0 320h32"></path><path d="M0 330h32"></path><path d="M0 340h32"></path><path d="M0 350h32"></path><path d="M0 360h32"></path><path d="M0 370h32"></path><path d="M0 380h32"></path><path d="M0 390h32"></path><path d="M0 400h32"></path><path d="M0 410h32"></path><path d="M0 420h32"></path></g></g><g transform="translate(16 476) scale(1 1)"><path d="M0 0v-40" stroke="#FFFFFF" stroke-width="3"></path><path d="M0-40l18 6-18 6z" fill="#FFD23F"></path><path d="M-14 0a14 14 0 0 1 14-14" fill="none" stroke="rgba(255,255,255,.5)" stroke-width="2"></path></g><g transform="translate(784 476) scale(-1 1)"><path d="M0 0v-40" stroke="#FFFFFF" stroke-width="3"></path><path d="M0-40l18 6-18 6z" fill="#FFD23F"></path><path d="M-14 0a14 14 0 0 1 14-14" fill="none" stroke="rgba(255,255,255,.5)" stroke-width="2"></path></g><g transform="translate(150 478)"><rect x="-14" y="-6" width="28" height="6" rx="2" fill="#B8901A"></rect><rect x="-4" y="-16" width="8" height="10" fill="#FFD23F"></rect><path d="M-14-40h28q0 22-14 24q-14-2-14-24z" fill="#FFD23F"></path><path d="M-14-36q-10 0-8 8q2 6 9 6M14-36q10 0 8 8q-2 6-9 6" fill="none" stroke="#FFD23F" stroke-width="3"></path><path d="M-6-34v10" stroke="#FFF1A8" stroke-width="3" stroke-linecap="round"></path></g><path d="M240 478h20l-7-22h-6z" fill="#FF7A59"></path><rect x="238" y="476" width="24" height="4" rx="1" fill="#FF7A59"></rect><path d="M562 478h20l-7-22h-6z" fill="#FFD23F"></path><rect x="560" y="476" width="24" height="4" rx="1" fill="#FFD23F"></rect><path d="M582 478h20l-7-22h-6z" fill="#FF7A59"></path><rect x="580" y="476" width="24" height="4" rx="1" fill="#FF7A59"></rect><g transform="translate(18 84) scale(1 1)"><path d="M0 0l60 60v-20z" fill="#FFFFFF" opacity=".06"></path><rect x="-6" y="-8" width="20" height="14" rx="2" fill="#2E5A42"></rect><circle cx="-1" cy="-1" r="2" fill="#FFF1A8"></circle><circle cx="4" cy="-1" r="2" fill="#FFF1A8"></circle><circle cx="9" cy="-1" r="2" fill="#FFF1A8"></circle></g><g transform="translate(782 84) scale(-1 1)"><path d="M0 0l60 60v-20z" fill="#FFFFFF" opacity=".06"></path><rect x="-6" y="-8" width="20" height="14" rx="2" fill="#2E5A42"></rect><circle cx="-1" cy="-1" r="2" fill="#FFF1A8"></circle><circle cx="4" cy="-1" r="2" fill="#FFF1A8"></circle><circle cx="9" cy="-1" r="2" fill="#FFF1A8"></circle></g><rect x="364" y="464" width="72" height="16" rx="3" fill="#13261B"></rect><text x="400" y="477" text-anchor="middle" font-family="ui-monospace,Menlo,monospace" font-size="13" font-weight="700" fill="#FFD23F" letter-spacing="2">2 : 1</text></svg>