<svg xmlns="http://www.w3.org/2000/svg" shape-rendering="geometricPrecision" text-rendering="geometricPrecision" image-rendering="optimizeQuality" fill-rule="evenodd" clip-rule="evenodd" viewBox="0 0 512 424.88"><path fill-rule="nonzero" d="M267.8 41.67c-1.25-1.23-2.67-1.84-4.28-1.84-.88 0-1.65.13-2.29.4-.67.29-1.33.75-1.96 1.39L245.75 55.1a6.44 6.44 0 0 1-8.22.72c-1.55-.99-3.2-1.97-4.95-2.91-1.87-1-3.69-1.91-5.48-2.73-1.87-.85-3.78-1.66-5.7-2.4-1.72-.67-3.68-1.37-5.84-2.08-2.72-.89-4.44-3.42-4.44-6.14V18.91c0-.91-.14-1.71-.42-2.39-.26-.64-.7-1.27-1.3-1.88-.6-.6-1.23-1.04-1.88-1.3-.67-.27-1.48-.41-2.39-.41h-25.92c-.84 0-1.58.13-2.21.39-.68.28-1.36.75-2.03 1.4-.59.59-1.03 1.21-1.3 1.84-.27.67-.4 1.46-.4 2.35v18.91c0 3.18-2.29 5.81-5.31 6.36-2.01.48-3.9.99-5.66 1.53l-.3.08c-1.81.57-3.63 1.2-5.45 1.91l-.33.12a96.76 96.76 0 0 0-5.25 2.24c-1.89.88-3.65 1.76-5.27 2.64-2.55 1.39-5.62.87-7.59-1.06l-15.3-15.11c-.49-.46-1.01-.83-1.57-1.07-.59-.26-1.31-.4-2.16-.4-.83 0-1.58.15-2.23.42-.71.31-1.41.8-2.08 1.45l-18.1 18.14c-1.23 1.26-1.84 2.68-1.84 4.3 0 .88.13 1.65.4 2.29.29.66.75 1.32 1.39 1.95l13.48 13.52a6.44 6.44 0 0 1 .72 8.22c-.99 1.55-1.97 3.21-2.91 4.95-1 1.87-1.91 3.7-2.73 5.48-.85 1.87-1.66 3.78-2.4 5.7-.67 1.72-1.37 3.68-2.08 5.84-.89 2.72-3.42 4.44-6.14 4.44l-20.65.01c-.91 0-1.71.13-2.39.41-.67.27-1.3.7-1.87 1.28l-.03.02c-.58.58-1 1.21-1.28 1.88-.27.68-.41 1.48-.41 2.39v25.92c0 .84.13 1.58.39 2.21.28.68.74 1.35 1.38 2.01.59.6 1.22 1.03 1.87 1.31l.27.11c.58.21 1.27.31 2.07.31h18.91c3.17 0 5.81 2.28 6.36 5.3.48 2.01.99 3.9 1.53 5.67l.08.29c.56 1.81 1.2 3.63 1.91 5.45.69 1.8 1.49 3.71 2.39 5.7.92 2.03 1.81 3.88 2.66 5.51 1.34 2.55.78 5.61-1.17 7.54l-15.05 14.99c-.47.49-.83 1.02-1.07 1.58-.26.59-.4 1.31-.4 2.15 0 .84.15 1.59.42 2.23.31.72.8 1.42 1.46 2.09l18.04 18.25c.63.58 1.3 1.01 1.98 1.28.7.27 1.5.41 2.41.41.89 0 1.7-.14 2.41-.42l.23-.09c.61-.26 1.18-.65 1.72-1.15l13.35-13.56c2.29-2.33 5.91-2.55 8.46-.65 1.41.9 3.01 1.83 4.76 2.78 1.87 1.01 3.7 1.91 5.48 2.73 1.87.86 3.78 1.66 5.7 2.41 1.72.66 3.68 1.36 5.84 2.07 2.72.9 4.44 3.43 4.44 6.14v20.65c0 .91.14 1.71.42 2.39.26.65.7 1.28 1.3 1.88.6.6 1.24 1.04 1.88 1.3.68.28 1.48.42 2.39.42h25.92c.84 0 1.58-.14 2.21-.4.68-.28 1.36-.75 2.03-1.4.58-.58 1.01-1.2 1.28-1.85l.12-.26c.2-.58.31-1.28.31-2.08v-18.91c0-3.17 2.28-5.81 5.29-6.36 2.01-.48 3.92-.99 5.68-1.53l.29-.08c1.81-.56 3.64-1.2 5.45-1.9 1.8-.69 3.7-1.49 5.69-2.39 2.04-.92 3.88-1.81 5.51-2.67a6.455 6.455 0 0 1 7.55 1.17l14.76 14.8c.56.58 1.16 1.02 1.81 1.3l.31.15c.54.18 1.18.27 1.93.27.87 0 1.63-.14 2.27-.42.65-.28 1.25-.72 1.81-1.3l18.4-18.19c.58-.64 1.01-1.3 1.28-1.99.27-.7.41-1.5.41-2.4 0-.92-.14-1.73-.42-2.44a6.34 6.34 0 0 0-1.24-1.93l-13.57-13.34a6.463 6.463 0 0 1-.77-8.28c1-1.55 1.97-3.2 2.91-4.95a89.98 89.98 0 0 0 2.73-5.48c.85-1.87 1.66-3.78 2.4-5.7.67-1.72 1.37-3.68 2.08-5.84.9-2.72 3.43-4.44 6.14-4.44h20.65c.91 0 1.71-.14 2.39-.42.64-.26 1.27-.7 1.88-1.3.6-.6 1.04-1.23 1.3-1.88.28-.67.42-1.47.42-2.39v-25.92c0-.84-.14-1.58-.4-2.21-.28-.68-.75-1.36-1.4-2.03-.59-.59-1.2-1.02-1.85-1.28-.66-.28-1.45-.42-2.34-.42h-18.91c-3.22 0-5.88-2.36-6.38-5.43a97.061 97.061 0 0 0-3.52-11.19l-.11-.33c-.72-1.88-1.47-3.67-2.23-5.34-.83-1.82-1.71-3.58-2.64-5.28-1.39-2.55-.87-5.62 1.06-7.59l14.86-15.07c.61-.58 1.06-1.18 1.33-1.8.26-.59.39-1.31.39-2.16 0-.84-.14-1.58-.42-2.23-.3-.71-.79-1.41-1.45-2.08l-18.15-18.1zM39.88 374.54h201.47c18.87 0 18.7 28.55 0 28.55H39.88c-18.85 0-18.72-28.55 0-28.55zm-4.23-21.8h440.7c17.13 0 28.09 9.4 32.9 21.43 1.84 4.6 2.75 9.59 2.75 14.57s-.93 9.98-2.77 14.57l-.12.28c-4.9 11.97-15.85 21.29-32.76 21.29H35.65c-17.12 0-28.08-9.4-32.9-21.44C.91 398.85 0 393.85 0 388.87c0-4.97.93-9.95 2.76-14.55 4.84-12.12 15.82-21.58 32.89-21.58zm440.7 9.7H35.65c-12.47 0-20.45 6.78-23.91 15.45-1.38 3.46-2.08 7.22-2.08 10.98 0 3.76.69 7.52 2.07 10.97 3.44 8.62 11.4 15.35 23.92 15.35h440.7c12.37 0 20.32-6.68 23.82-15.25l.09-.22c1.38-3.46 2.08-7.23 2.08-10.98 0-3.76-.68-7.52-2.07-10.97-3.44-8.61-11.39-15.33-23.92-15.33zm-60.53-186.11c-1.59-1.12-3.3-1.51-5.15-1.19-1.84.32-3.34 1.27-4.44 2.87l-6.03 8.55c-2.18-.92-4.45-1.67-6.79-2.28-2.33-.61-4.7-1.08-7.07-1.43l-1.95-11.2c-.33-1.89-1.25-3.37-2.79-4.45-1.54-1.09-3.25-1.45-5.14-1.13l-14.06 2.46c-1.8.31-3.25 1.23-4.38 2.78-1.11 1.55-1.5 3.25-1.17 5.14l1.79 10.26a50.21 50.21 0 0 0-6.46 3.29 51.826 51.826 0 0 0-5.78 4l-9.48-6.56c-1.51-1.12-3.17-1.54-5.03-1.22-1.85.32-3.32 1.29-4.45 2.87l-8.11 11.58c-1.13 1.6-1.52 3.3-1.2 5.15.32 1.84 1.27 3.34 2.87 4.44l8.55 6.03c-.92 2.18-1.67 4.45-2.28 6.79-.61 2.34-1.08 4.7-1.43 7.07l-11.2 1.95c-1.89.33-3.37 1.25-4.45 2.79-1.09 1.55-1.45 3.25-1.13 5.14l2.46 14.06c.31 1.8 1.23 3.25 2.78 4.38 1.55 1.11 3.25 1.5 5.14 1.17l10.26-1.79a50.21 50.21 0 0 0 3.29 6.46c1.24 2.06 2.58 4.04 4.02 5.92l-6.59 9.35c-1.11 1.5-1.53 3.16-1.21 5.03.33 1.84 1.29 3.31 2.87 4.44l11.6 8.26c1.59 1.03 3.28 1.37 5.13 1.05 1.84-.32 3.35-1.22 4.46-2.73l6.01-8.69c2.18.93 4.45 1.67 6.79 2.28 2.34.62 4.7 1.08 7.07 1.43l1.95 11.2c.33 1.89 1.25 3.37 2.8 4.45 1.54 1.09 3.24 1.46 5.13 1.13l14.06-2.45c1.8-.32 3.25-1.24 4.38-2.79 1.11-1.55 1.5-3.25 1.17-5.14l-1.79-10.26a50.21 50.21 0 0 0 6.46-3.29c2.06-1.24 4.04-2.58 5.92-4.02l9.35 6.59c1.5 1.11 3.19 1.53 5.08 1.2 1.91-.33 3.35-1.3 4.39-2.85l8.26-11.61c1.03-1.58 1.37-3.28 1.05-5.13-.32-1.84-1.23-3.34-2.72-4.46l-8.7-6.01c.93-2.18 1.67-4.45 2.28-6.79.62-2.34 1.08-4.7 1.43-7.06l11.2-1.96c1.89-.33 3.37-1.25 4.45-2.79 1.09-1.55 1.46-3.25 1.13-5.14l-2.46-14.06c-.31-1.79-1.23-3.25-2.78-4.38-1.55-1.11-3.25-1.5-5.14-1.17l-10.26 1.79c-.94-2.17-2.03-4.3-3.27-6.39a51.003 51.003 0 0 0-4.02-5.85l6.57-9.48c1.11-1.5 1.54-3.17 1.21-5.04-.32-1.84-1.29-3.31-2.87-4.44l-11.58-8.12zm-40.18 36.89c3.23-.56 6.38-.48 9.49.23 3.09.74 5.89 1.98 8.38 3.71 2.48 1.76 4.59 3.97 6.33 6.63 1.73 2.68 2.87 5.63 3.43 8.86.56 3.23.49 6.38-.23 9.49-.74 3.09-1.97 5.88-3.71 8.38-1.76 2.48-3.97 4.59-6.63 6.33a23.692 23.692 0 0 1-8.85 3.43c-3.23.56-6.39.49-9.5-.23-3.09-.74-5.88-1.98-8.38-3.71-2.48-1.76-4.59-3.97-6.33-6.63-1.72-2.68-2.86-5.63-3.43-8.86-.56-3.22-.49-6.38.23-9.49.74-3.09 1.98-5.88 3.72-8.38 1.75-2.48 3.96-4.59 6.62-6.33 2.68-1.72 5.63-2.87 8.86-3.43zM263.52 26.9c5.18 0 9.63 1.86 13.4 5.63l18.22 18.2c1.8 1.83 3.18 3.86 4.13 6.08.98 2.29 1.47 4.72 1.47 7.27 0 2.6-.5 5.03-1.49 7.31-.98 2.22-2.4 4.21-4.23 5.96L283.7 88.83l.84 1.8c.92 2.03 1.78 4.07 2.56 6.11l.13.31c.78 2.05 1.52 4.23 2.23 6.52l.54 1.77h13.97c2.59 0 5.02.48 7.29 1.43 2.24.93 4.26 2.31 6.06 4.13l.13.13c1.77 1.83 3.11 3.86 4.03 6.08.94 2.26 1.4 4.63 1.4 7.1v25.92c0 2.57-.46 4.98-1.37 7.24-.94 2.3-2.32 4.35-4.13 6.17-1.82 1.82-3.88 3.19-6.17 4.12-2.25.93-4.67 1.38-7.24 1.38h-16.08l-.77 2.01c-.83 2.14-1.74 4.28-2.7 6.4-1.01 2.21-2.05 4.3-3.09 6.24l-.83 1.5 10.21 10.05c1.74 1.83 3.06 3.89 3.95 6.14.88 2.25 1.33 4.64 1.33 7.14 0 2.49-.44 4.85-1.33 7.1-.87 2.23-2.18 4.27-3.9 6.13l-18.48 18.27c-1.77 1.86-3.78 3.29-6.02 4.25-2.27.98-4.73 1.48-7.37 1.48-2.36 0-4.6-.42-6.72-1.25l-.62-.23c-2.25-.97-4.27-2.41-6.05-4.28l-11.27-11.31-1.9.88c-1.96.88-4.08 1.77-6.35 2.64-2.03.79-4.14 1.52-6.32 2.2l-2.12.64v13.93c0 2.38-.42 4.66-1.25 6.82l-.18.47c-.93 2.24-2.31 4.26-4.12 6.06l-.14.14c-1.83 1.76-3.85 3.1-6.07 4.02-2.27.94-4.63 1.4-7.11 1.4h-25.92c-2.57 0-4.99-.46-7.24-1.38-2.3-.93-4.35-2.31-6.17-4.12-1.81-1.82-3.19-3.87-4.12-6.17-.93-2.25-1.38-4.67-1.38-7.24v-16.09l-2.01-.76c-2.14-.83-4.29-1.74-6.4-2.7-2.2-1.01-4.3-2.04-6.24-3.09l-1.49-.83-10.05 10.21c-1.74 1.64-3.66 2.91-5.75 3.78l-.37.17c-2.25.88-4.65 1.33-7.16 1.33-2.5 0-4.87-.44-7.11-1.33-2.23-.88-4.28-2.18-6.12-3.9l-18.39-18.6c-1.81-1.84-3.2-3.87-4.14-6.08-.98-2.29-1.47-4.72-1.47-7.28 0-2.6.5-5.03 1.5-7.3.9-2.06 2.2-3.93 3.9-5.62l11.66-11.65-.88-1.9c-.88-1.95-1.76-4.07-2.64-6.35-.78-2.02-1.52-4.13-2.19-6.31l-.64-2.13H73.91c-2.38 0-4.66-.42-6.82-1.25l-.47-.18c-2.27-.94-4.32-2.35-6.13-4.2l-.03-.03c-1.79-1.85-3.14-3.89-4.06-6.1-.94-2.26-1.4-4.63-1.4-7.11v-25.92c0-2.57.46-4.99 1.38-7.24.91-2.26 2.29-4.31 4.12-6.14l.03-.03c1.83-1.83 3.88-3.2 6.14-4.12 2.25-.92 4.67-1.38 7.24-1.38H90l.76-2.01c.83-2.14 1.74-4.28 2.71-6.4 1-2.21 2.04-4.3 3.09-6.24l.85-1.54-9.84-9.86c-1.84-1.82-3.25-3.87-4.21-6.14a18.49 18.49 0 0 1-1.46-7.28c0-5.19 1.86-9.64 5.63-13.41l18.2-18.21c1.83-1.81 3.86-3.19 6.08-4.14 2.29-.98 4.71-1.47 7.27-1.47 2.6 0 5.03.51 7.31 1.5 2.05.9 3.92 2.2 5.61 3.9l11.82 11.64 1.74-.83c1.8-.83 3.8-1.67 6.03-2.54l.31-.13c2.03-.79 4.14-1.52 6.31-2.19l2.13-.64V18.91c0-2.58.48-5.02 1.43-7.29l.02-.02c.94-2.24 2.31-4.25 4.1-6.03l.14-.14c1.83-1.77 3.86-3.11 6.07-4.03 2.27-.93 4.64-1.4 7.11-1.4h25.92c2.57 0 4.98.46 7.24 1.38 2.3.93 4.35 2.31 6.17 4.12 1.82 1.82 3.19 3.88 4.13 6.17.92 2.25 1.38 4.67 1.38 7.24V35l2 .76c2.14.83 4.28 1.74 6.4 2.71 2.21 1.01 4.3 2.04 6.24 3.09l1.54.85 9.86-9.84c1.82-1.84 3.87-3.25 6.14-4.2 2.31-.98 4.75-1.47 7.29-1.47zm-52.23 54.29c7.02 3.02 13.11 7.11 18.2 12.2 5.09 5.09 9.19 11.18 12.21 18.2l.21.55a57.6 57.6 0 0 1 4.28 21.8c0 7.58-1.5 15.21-4.49 22.3l-.02.05c-2.99 7-7.09 13.07-12.19 18.18l-.02.02c-5.11 5.11-11.19 9.2-18.18 12.21l-.54.21a57.612 57.612 0 0 1-21.81 4.28c-7.58 0-15.21-1.5-22.3-4.49l-.04-.01c-7.03-3.02-13.12-7.11-18.21-12.2-5.09-5.09-9.18-11.17-12.21-18.19l-.21-.55a57.612 57.612 0 0 1-4.28-21.81c0-7.58 1.5-15.21 4.49-22.3l.02-.04c3-7 7.09-13.08 12.19-18.18l.02-.03c5.11-5.1 11.19-9.19 18.18-12.21l.55-.21c6.94-2.85 14.4-4.28 21.8-4.28 7.58 0 15.21 1.5 22.3 4.49l.05.01zm9.06 21.34c-3.94-3.94-8.67-7.12-14.16-9.48-5.39-2.29-11.3-3.43-17.25-3.43-5.81 0-11.57 1.09-16.87 3.25l-.38.18c-5.51 2.37-10.25 5.55-14.17 9.47-3.92 3.92-7.1 8.66-9.47 14.17-2.29 5.4-3.43 11.3-3.43 17.25 0 5.81 1.09 11.58 3.25 16.88l.18.38c2.36 5.48 5.54 10.21 9.48 14.15 3.94 3.94 8.68 7.12 14.16 9.49 5.39 2.28 11.3 3.42 17.25 3.42 5.81 0 11.57-1.08 16.87-3.25l.38-.17c5.51-2.38 10.25-5.55 14.18-9.47 3.92-3.93 7.09-8.67 9.46-14.17 2.29-5.4 3.43-11.31 3.43-17.26 0-5.81-1.09-11.57-3.25-16.87l-.18-.38c-2.36-5.48-5.54-10.22-9.48-14.16z"/></svg>