<svg xmlns="http://www.w3.org/2000/svg" xmlns:c2pa="http://c2pa.org/manifest" viewBox="0 0 800 480" width="800" height="480"><metadata><c2pa:manifest>AAAWgmp1bWIAAAAeanVtZGMycGEAEQAQgAAAqgA4m3EDYzJwYQAAABZcanVtYgAAAEdqdW1kYzJtYQARABCAAACqADibcQN1cm46YzJwYTpkZjgzYTVkMS02OGYwLTRjMDUtODQ2NC1hZjFiYzdhNmUyOGIAAAADl2p1bWIAAAApanVtZGMyYXMAEQAQgAAAqgA4m3EDYzJwYS5hc3NlcnRpb25zAAAAALxqdW1iAAAARGp1bWRjYm9yABEAEIAAAKoAOJtxE2MycGEuaW5ncmVkaWVudC52MwAAAAAYYzJzaPYWYidlXyNdEqGFsjMnr5gAAABwY2JvcqNpZGM6Zm9ybWF0bWltYWdlL3N2Zyt4bWxqaW5zdGFuY2VJRHgseG1wOmlpZDo3NDQxMTM5ZC02MWNmLTRkZDgtYjNjOS1mN2NmZjAzNTc0MmNscmVsYXRpb25zaGlwaHBhcmVudE9mAAAB4mp1bWIAAABBanVtZGNib3IAEQAQgAAAqgA4m3ETYzJwYS5hY3Rpb25zLnYyAAAAABhjMnNonm8Hw3ibtVCmBCB1rokcOwAAAZljYm9yomdhY3Rpb25zgqJmYWN0aW9ua2MycGEub3BlbmVkanBhcmFtZXRlcnOha2luZ3JlZGllbnRzgaJjdXJseC1zZWxmI2p1bWJmPWMycGEuYXNzZXJ0aW9ucy9jMnBhLmluZ3JlZGllbnQudjNkaGFzaFggwkTTb6bzfz6em78Mqn/5V4j+s8xSUzRfc6/5WEzABGekZmFjdGlvbngdY29tLmFudGhyb3BpYy5jbGF1ZGUucHJvdmlkZWRqcGFyYW1ldGVyc6F4H2NvbS5hbnRocm9waWMub3JpZ2luLWNvbmZpZGVuY2VndW5rbm93bmtkZXNjcmlwdGlvbnhmQ2xhdWRlIHByb3ZpZGVkIHRoaXMgZmlsZSBhdCB0aGUgcmVxdWVzdCBvZiBhIHVzZXIgYW5kIG1heSBoYXZlIGNyZWF0ZWQgb3IgbW9kaWZpZWQgdGhlIGZpbGUgY29udGVudHMubXNvZnR3YXJlQWdlbnShZG5hbWVmQ2xhdWRlcmFsbEFjdGlvbnNJbmNsdWRlZPUAAADIanVtYgAAAEBqdW1kY2JvcgARABCAAACqADibcRNjMnBhLmhhc2guZGF0YQAAAAAYYzJzaDraPo5ECIxYk+1JgH9A+i0AAACAY2JvcqVjYWxnZnNoYTI1NmNwYWRNAAAAAAAAAAAAAAAAAGRoYXNoWCAOLazWIn7NtoAbhBi/qq0GhN68Jkh9tZ0B69CJ1K44lWRuYW1lbmp1bWJmIG1hbmlmZXN0amV4Y2x1c2lvbnOBomVzdGFydBiWZmxlbmd0aBkeBAAAAj5qdW1iAAAAJ2p1bWRjMmNsABEAEIAAAKoAOJtxA2MycGEuY2xhaW0udjIAAAACD2Nib3KlY2FsZ2ZzaGEyNTZpc2lnbmF0dXJleE1zZWxmI2p1bWJmPS9jMnBhL3VybjpjMnBhOmRmODNhNWQxLTY4ZjAtNGMwNS04NDY0LWFmMWJjN2E2ZTI4Yi9jMnBhLnNpZ25hdHVyZWppbnN0YW5jZUlEeCx4bXA6aWlkOjI3MDBiZDE5LTUzMjQtNGFmNC1hNDk0LTRiZGQzMmIwYWI3YnJjcmVhdGVkX2Fzc2VydGlvbnODomN1cmx4LXNlbGYjanVtYmY9YzJwYS5hc3NlcnRpb25zL2MycGEuaW5ncmVkaWVudC52M2RoYXNoWCDCRNNvpvN/Pp6bvwyqf/lXiP6zzFJTNF9zr/lYTMAEZ6JjdXJseCpzZWxmI2p1bWJmPWMycGEuYXNzZXJ0aW9ucy9jMnBhLmFjdGlvbnMudjJkaGFzaFggxQZam4cI9yclKoZ5JqwFYS81+gGerm2N0CjTSRKBIzyiY3VybHgpc2VsZiNqdW1iZj1jMnBhLmFzc2VydGlvbnMvYzJwYS5oYXNoLmRhdGFkaGFzaFggcL09TCPRDsCaeHBSR2EPEyYZ3MUE8tHaPO7luuc5w390Y2xhaW1fZ2VuZXJhdG9yX2luZm+jZG5hbWVvQW50aHJvcGljIEZpbGVzZ3ZlcnNpb25lMS4wLjBrc3BlY1ZlcnNpb25lMi40LjAAABA4anVtYgAAAChqdW1kYzJjcwARABCAAACqADibcQNjMnBhLnNpZ25hdHVyZQAAABAIY2JvctKEWQISogEmGCFZAgowggIGMIIBjaADAgECAhRA5aAK7sI50L64g/oGQgU9Z1UTADAKBggqhkjOPQQDAzBJMRcwFQYDVQQKEw5BbnRocm9waWMsIFBCQzEuMCwGA1UEAxMlQW50aHJvcGljIENvbnRlbnQgQ3JlZGVudGlhbHMgUm9vdCBDQTAeFw0yNjA4MDcxODQzNTZaFw0yODA4MDYxOTQzNTZaMEQxFzAVBgNVBAoTDkFudGhyb3BpYywgUEJDMSkwJwYDVQQDEyBBbnRocm9waWMgQ2xhdWRlIENvbnRlbnQgU2lnbmluZzBZMBMGByqGSM49AgEGCCqGSM49AwEHA0IABJh6CmvLUBgFFNU0vUKlOVtE6djd17L5SuwX0LemFisBM3dkd/3cyjxFA3Qo5S46fX0/ihY0VZ7mfb9KF703t5OjWDBWMA4GA1UdDwEB/wQEAwIHgDAVBgNVHSUEDjAMBgorBgEEAYPoXgIBMAwGA1UdEwEB/wQCMAAwHwYDVR0jBBgwFoAUzlHiBIFOZFsj+OPEz5o+nMHXXMIwCgYIKoZIzj0EAwMDZwAwZAIwMXMdFJ4BetLLVY7ORuE9noqbbAZOZn/aArXyTwFAZfKrPzxF2vPoJNf1+UCdg1XGAjBwX1zd9WGqYkqmL5SFqw1QySjr1zJfpJM9+1rdDwSPLMOPOjKuiXjoU/pUUeG9RwmhY3BhZFkNngAAAAAAAAAAAAAAAAAAAAAAAAAAAAAAAAAAAAAAAAAAAAAAAAAAAAAAAAAAAAAAAAAAAAAAAAAAAAAAAAAAAAAAAAAAAAAAAAAAAAAAAAAAAAAAAAAAAAAAAAAAAAAAAAAAAAAAAAAAAAAAAAAAAAAAAAAAAAAAAAAAAAAAAAAAAAAAAAAAAAAAAAAAAAAAAAAAAAAAAAAAAAAAAAAAAAAAAAAAAAAAAAAAAAAAAAAAAAAAAAAAAAAAAAAAAAAAAAAAAAAAAAAAAAAAAAAAAAAAAAAAAAAAAAAAAAAAAAAAAAAAAAAAAAAAAAAAAAAAAAAAAAAAAAAAAAAAAAAAAAAAAAAAAAAAAAAAAAAAAAAAAAAAAAAAAAAAAAAAAAAAAAAAAAAAAAAAAAAAAAAAAAAAAAAAAAAAAAAAAAAAAAAAAAAAAAAAAAAAAAAAAAAAAAAAAAAAAAAAAAAAAAAAAAAAAAAAAAAAAAAAAAAAAAAAAAAAAAAAAAAAAAAAAAAAAAAAAAAAAAAAAAAAAAAAAAAAAAAAAAAAAAAAAAAAAAAAAAAAAAAAAAAAAAAAAAAAAAAAAAAAAAAAAAAAAAAAAAAAAAAAAAAAAAAAAAAAAAAAAAAAAAAAAAAAAAAAAAAAAAAAAAAAAAAAAAAAAAAAAAAAAAAAAAAAAAAAAAAAAAAAAAAAAAAAAAAAAAAAAAAAAAAAAAAAAAAAAAAAAAAAAAAAAAAAAAAAAAAAAAAAAAAAAAAAAAAAAAAAAAAAAAAAAAAAAAAAAAAAAAAAAAAAAAAAAAAAAAAAAAAAAAAAAAAAAAAAAAAAAAAAAAAAAAAAAAAAAAAAAAAAAAAAAAAAAAAAAAAAAAAAAAAAAAAAAAAAAAAAAAAAAAAAAAAAAAAAAAAAAAAAAAAAAAAAAAAAAAAAAAAAAAAAAAAAAAAAAAAAAAAAAAAAAAAAAAAAAAAAAAAAAAAAAAAAAAAAAAAAAAAAAAAAAAAAAAAAAAAAAAAAAAAAAAAAAAAAAAAAAAAAAAAAAAAAAAAAAAAAAAAAAAAAAAAAAAAAAAAAAAAAAAAAAAAAAAAAAAAAAAAAAAAAAAAAAAAAAAAAAAAAAAAAAAAAAAAAAAAAAAAAAAAAAAAAAAAAAAAAAAAAAAAAAAAAAAAAAAAAAAAAAAAAAAAAAAAAAAAAAAAAAAAAAAAAAAAAAAAAAAAAAAAAAAAAAAAAAAAAAAAAAAAAAAAAAAAAAAAAAAAAAAAAAAAAAAAAAAAAAAAAAAAAAAAAAAAAAAAAAAAAAAAAAAAAAAAAAAAAAAAAAAAAAAAAAAAAAAAAAAAAAAAAAAAAAAAAAAAAAAAAAAAAAAAAAAAAAAAAAAAAAAAAAAAAAAAAAAAAAAAAAAAAAAAAAAAAAAAAAAAAAAAAAAAAAAAAAAAAAAAAAAAAAAAAAAAAAAAAAAAAAAAAAAAAAAAAAAAAAAAAAAAAAAAAAAAAAAAAAAAAAAAAAAAAAAAAAAAAAAAAAAAAAAAAAAAAAAAAAAAAAAAAAAAAAAAAAAAAAAAAAAAAAAAAAAAAAAAAAAAAAAAAAAAAAAAAAAAAAAAAAAAAAAAAAAAAAAAAAAAAAAAAAAAAAAAAAAAAAAAAAAAAAAAAAAAAAAAAAAAAAAAAAAAAAAAAAAAAAAAAAAAAAAAAAAAAAAAAAAAAAAAAAAAAAAAAAAAAAAAAAAAAAAAAAAAAAAAAAAAAAAAAAAAAAAAAAAAAAAAAAAAAAAAAAAAAAAAAAAAAAAAAAAAAAAAAAAAAAAAAAAAAAAAAAAAAAAAAAAAAAAAAAAAAAAAAAAAAAAAAAAAAAAAAAAAAAAAAAAAAAAAAAAAAAAAAAAAAAAAAAAAAAAAAAAAAAAAAAAAAAAAAAAAAAAAAAAAAAAAAAAAAAAAAAAAAAAAAAAAAAAAAAAAAAAAAAAAAAAAAAAAAAAAAAAAAAAAAAAAAAAAAAAAAAAAAAAAAAAAAAAAAAAAAAAAAAAAAAAAAAAAAAAAAAAAAAAAAAAAAAAAAAAAAAAAAAAAAAAAAAAAAAAAAAAAAAAAAAAAAAAAAAAAAAAAAAAAAAAAAAAAAAAAAAAAAAAAAAAAAAAAAAAAAAAAAAAAAAAAAAAAAAAAAAAAAAAAAAAAAAAAAAAAAAAAAAAAAAAAAAAAAAAAAAAAAAAAAAAAAAAAAAAAAAAAAAAAAAAAAAAAAAAAAAAAAAAAAAAAAAAAAAAAAAAAAAAAAAAAAAAAAAAAAAAAAAAAAAAAAAAAAAAAAAAAAAAAAAAAAAAAAAAAAAAAAAAAAAAAAAAAAAAAAAAAAAAAAAAAAAAAAAAAAAAAAAAAAAAAAAAAAAAAAAAAAAAAAAAAAAAAAAAAAAAAAAAAAAAAAAAAAAAAAAAAAAAAAAAAAAAAAAAAAAAAAAAAAAAAAAAAAAAAAAAAAAAAAAAAAAAAAAAAAAAAAAAAAAAAAAAAAAAAAAAAAAAAAAAAAAAAAAAAAAAAAAAAAAAAAAAAAAAAAAAAAAAAAAAAAAAAAAAAAAAAAAAAAAAAAAAAAAAAAAAAAAAAAAAAAAAAAAAAAAAAAAAAAAAAAAAAAAAAAAAAAAAAAAAAAAAAAAAAAAAAAAAAAAAAAAAAAAAAAAAAAAAAAAAAAAAAAAAAAAAAAAAAAAAAAAAAAAAAAAAAAAAAAAAAAAAAAAAAAAAAAAAAAAAAAAAAAAAAAAAAAAAAAAAAAAAAAAAAAAAAAAAAAAAAAAAAAAAAAAAAAAAAAAAAAAAAAAAAAAAAAAAAAAAAAAAAAAAAAAAAAAAAAAAAAAAAAAAAAAAAAAAAAAAAAAAAAAAAAAAAAAAAAAAAAAAAAAAAAAAAAAAAAAAAAAAAAAAAAAAAAAAAAAAAAAAAAAAAAAAAAAAAAAAAAAAAAAAAAAAAAAAAAAAAAAAAAAAAAAAAAAAAAAAAAAAAAAAAAAAAAAAAAAAAAAAAAAAAAAAAAAAAAAAAAAAAAAAAAAAAAAAAAAAAAAAAAAAAAAAAAAAAAAAAAAAAAAAAAAAAAAAAAAAAAAAAAAAAAAAAAAAAAAAAAAAAAAAAAAAAAAAAAAAAAAAAAAAAAAAAAAAAAAAAAAAAAAAAAAAAAAAAAAAAAAAAAAAAAAAAAAAAAAAAAAAAAAAAAAAAAAAAAAAAAAAAAAAAAAAAAAAAAAAAAAAAAAAAAAAAAAAAAAAAAAAAAAAAAAAAAAAAAAAAAAAAAAAAAAAAAAAAAAAAAAAAAAAAAAAAAAAAAAAAAAAAAAAAAAAAAAAAAAAAAAAAAAAAAAAAAAAAAAAAAAAAAAAAAAAAAAAAAAAAAAAAAAAAAAAAAAAAAAAAAAAAAAAAAAAAAAAAAAAAAAAAAAAAAAAAAAAAAAAAAAAAAAAAAAAAAAAAAAAAAAAAAAAAAAAAAAAAAAAAAAAAAAAAAAAAAAAAAAAAAAAAAAAAAAAAAAAAAAAAAAAAAAAAAAAAAAAAAAAAAAAAAAAAAAAAAAAAAAAAAAAAAAAAAAAAAAAAAAAAAAAAAAAAAAAAAAAAAAAAAAAAAAAAAAAAAAAAAAAAAAAAAAAAAAAAAAAAAAAAAAAAAAAAAAAAAAAAAAAAAAAAAAAAAAAAAAAAAAAAAAAAAAAAAAAAAAAAAAAAAAAAAAAAAAAAAAAAAAAAAAAAAAAAAAAAAAAAAAAAAAAAAAAAAAAAAAAAAAAAAAAAAAAAAAAAAAAAAAAAAAAAAAAAAAAAAAAAAAAAAAAAAAAAAAAAAAAAAAAAAAAAAAAAAAAAAAAAAAAAAAAAAAAAAAAAAAAAAAAAAAAAAAAAAAAAAAAAAAAAAAAAAAAAAAAAAAAAAAAAAAAAAAAAAAAAAAAAAAAAAAAAAAAAAAAAAAAAAAAAAAAAAAAAAAAAAAAAAAAAAAAAAAAAAAAAAAAAAAAAAAAAAAAAAAAAAAAAAAAAAAAAAAAAAAAAAAAAAAAAAAAAAAAAAAAAAAAAAAAAAAAAAAAAAAAAAAAAAAAAAAAAAAAAAAAAAAAAAAAAAAAAAAAAAAAAAAAAAAAAAAAAAAAAAAAAAAAAAAAAAAAAAAAAAAAAAAAAAAAAAAAAAAAAAAAAAAAAAAAAAAAAAAAAAAAAAAAAAAAAAAAAAAAAAAAAAAAAAAAAAAAAAAAAAAAAAAAAAAAAAAAAAAAAAAAAAAAAAAAAAAAAAAAAAAAAAAAAAAAAAAAAAAAAAAAAAAAAAAAAAAAAAAAAAAAAAAAAAAAAAAAAAAAAAAAAAAAAAAAAAAAAAAAAAAAAAAAAAAAAAAAAAAAAAAAAAAAAAAAAAAAAAAAAAAAAAAAAAAAAAAAAAAAAAAAAAAAAAAAAAAAAAAAAAAAAAAAAAAAAAAAAAAAAAAAAAAAAAAAAAAAAAAAAAAAAAAAAAAAAAAAAAAAAAAAAAAAAAAAAAAAAAAAAAAAAAAAAAAAAAAAAAAAAAAAAAAAAAAAAAAAAAAAAAAAAAAAAAAAAAAAAAAAAAAAAAAAAAAAAAAAAAAAAAAAAAAAAAAAAAAAAAAAAAAAAAAAAAAAAAAAAAAAAAAAAAAAAAAAAAAAAAAAAAAAAAAAAAAAAAAAAAAAAAAAAAAAAAAAAAAAAAAAAAAAAAAAAAAAAAAAAAAAAAAAAAAAAAAAAAAAAAAPZYQPUBLarisT6FmqaWkZ48caHf73oC5CCGe4s8ycDSGE1eWedNs9satyWY3b3oYRwiYCwl32O05Ey4v7QI2zO00wA=</c2pa:manifest></metadata><rect width="800" height="480" fill="#141A40"></rect><circle cx="600" cy="120" r="260" fill="#1C2456"></circle><circle cx="41" cy="21" r="1" fill="#FFE3A3"></circle><circle cx="138" cy="74" r="1.7" fill="#C8D0F2"></circle><circle cx="235" cy="127" r="2.4" fill="#FFFFFF"></circle><circle cx="332" cy="180" r="1" fill="#FFE3A3"></circle><circle cx="429" cy="233" r="1.7" fill="#C8D0F2"></circle><circle cx="526" cy="286" r="2.4" fill="#FFFFFF"></circle><circle cx="623" cy="339" r="1" fill="#FFE3A3"></circle><circle cx="720" cy="392" r="1.7" fill="#C8D0F2"></circle><circle cx="17" cy="445" r="2.4" fill="#FFFFFF"></circle><circle cx="114" cy="28" r="1" fill="#FFE3A3"></circle><circle cx="211" cy="81" r="1.7" fill="#C8D0F2"></circle><circle cx="308" cy="134" r="2.4" fill="#FFFFFF"></circle><circle cx="405" cy="187" r="1" fill="#FFE3A3"></circle><circle cx="502" cy="240" r="1.7" fill="#C8D0F2"></circle><circle cx="599" cy="293" r="2.4" fill="#FFFFFF"></circle><circle cx="696" cy="346" r="1" fill="#FFE3A3"></circle><circle cx="793" cy="399" r="1.7" fill="#C8D0F2"></circle><circle cx="90" cy="452" r="2.4" fill="#FFFFFF"></circle><circle cx="187" cy="35" r="1" fill="#FFE3A3"></circle><circle cx="284" cy="88" r="1.7" fill="#C8D0F2"></circle><circle cx="381" cy="141" r="2.4" fill="#FFFFFF"></circle><circle cx="478" cy="194" r="1" fill="#FFE3A3"></circle><circle cx="575" cy="247" r="1.7" fill="#C8D0F2"></circle><circle cx="672" cy="300" r="2.4" fill="#FFFFFF"></circle><circle cx="769" cy="353" r="1" fill="#FFE3A3"></circle><circle cx="66" cy="406" r="1.7" fill="#C8D0F2"></circle><circle cx="163" cy="459" r="2.4" fill="#FFFFFF"></circle><circle cx="260" cy="42" r="1" fill="#FFE3A3"></circle><circle cx="357" cy="95" r="1.7" fill="#C8D0F2"></circle><circle cx="454" cy="148" r="2.4" fill="#FFFFFF"></circle><circle cx="551" cy="201" r="1" fill="#FFE3A3"></circle><circle cx="648" cy="254" r="1.7" fill="#C8D0F2"></circle><circle cx="745" cy="307" r="2.4" fill="#FFFFFF"></circle><circle cx="42" cy="360" r="1" fill="#FFE3A3"></circle><circle cx="139" cy="413" r="1.7" fill="#C8D0F2"></circle><circle cx="236" cy="466" r="2.4" fill="#FFFFFF"></circle><circle cx="333" cy="49" r="1" fill="#FFE3A3"></circle><circle cx="430" cy="102" r="1.7" fill="#C8D0F2"></circle><circle cx="527" cy="155" r="2.4" fill="#FFFFFF"></circle><circle cx="624" cy="208" r="1" fill="#FFE3A3"></circle><circle cx="721" cy="261" r="1.7" fill="#C8D0F2"></circle><circle cx="18" cy="314" r="2.4" fill="#FFFFFF"></circle><circle cx="115" cy="367" r="1" fill="#FFE3A3"></circle><circle cx="212" cy="420" r="1.7" fill="#C8D0F2"></circle><circle cx="309" cy="473" r="2.4" fill="#FFFFFF"></circle><circle cx="406" cy="56" r="1" fill="#FFE3A3"></circle>
<g transform="translate(660 110)"><circle r="54" fill="#F2A93B"></circle><path d="M-50-8a50 12 0 0 0 100 0" fill="#E0762B" opacity=".6"></path><circle cx="-18" cy="-14" r="10" fill="#E0762B" opacity=".5"></circle><ellipse rx="96" ry="20" fill="none" stroke="#FFE3A3" stroke-width="7" transform="rotate(-18)"></ellipse><path d="M-54 0a54 54 0 0 0 108 0" fill="#F2A93B" transform="rotate(-18)"></path></g>
<circle cx="90" cy="90" r="18" fill="#7FC7F0"></circle><circle cx="84" cy="84" r="5" fill="#FFFFFF" opacity=".6"></circle>
<path d="M-40 480C60 330 360 320 520 380S760 470 840 480z" fill="#C9C3D6"></path><path d="M-40 480C80 370 340 360 500 410S740 480 840 480z" fill="#A9A2BE"></path>
<ellipse cx="120" cy="420" rx="30" ry="10.5" fill="#8C84A6"></ellipse><ellipse cx="420" cy="430" rx="18" ry="6.3" fill="#8C84A6"></ellipse><ellipse cx="620" cy="460" rx="24" ry="8.399999999999999" fill="#8C84A6"></ellipse><ellipse cx="300" cy="460" rx="12" ry="4.199999999999999" fill="#8C84A6"></ellipse>
<g transform="translate(520 300)"><path d="M0-140C30-110 40-60 36 10H-36C-40-60-30-110 0-140Z" fill="#FFFFFF"></path><path d="M0-140C14-126 22-110 26-92H-26C-22-110-14-126 0-140Z" fill="#E0344E"></path><circle cx="0" cy="-50" r="20" fill="#7FC7F0" stroke="#C9C3D6" stroke-width="6"></circle><path d="M-36-10L-66 30V50L-34 22ZM36-10L66 30V50L34 22Z" fill="#E0344E"></path><path d="M-20 12h40l-8 26h-24z" fill="#9AA3B8"></path><path d="M-14 38q14 50 28 0" fill="#FFC23D"></path><path d="M-8 38q8 30 16 0" fill="#FFFFFF"></path></g>
<g transform="translate(260 300) scale(1.05)"><ellipse cx="0" cy="112" rx="78" ry="10" fill="#7A7296"></ellipse>
<path d="M-56 50C-84 50-104 62-98 76C-90 86-66 78-54 66Z" fill="#FFFFFF"></path>
<path d="M-20 76L-22 104" stroke="#FFFFFF" stroke-width="15" stroke-linecap="round" fill="none"></path><path d="M20 76L22 104" stroke="#FFFFFF" stroke-width="15" stroke-linecap="round" fill="none"></path><g transform="translate(-24 108)"><circle cx="-12" cy="-4" r="5" fill="#FFFFFF"></circle><circle cx="-12" cy="4" r="5" fill="#FFFFFF"></circle><circle cx="12" cy="-4" r="5" fill="#FFFFFF"></circle><circle cx="12" cy="4" r="5" fill="#FFFFFF"></circle><rect x="-12" y="-4" width="24" height="8" fill="#FFFFFF"></rect></g><g transform="translate(24 108)"><circle cx="-12" cy="-4" r="5" fill="#FFFFFF"></circle><circle cx="-12" cy="4" r="5" fill="#FFFFFF"></circle><circle cx="12" cy="-4" r="5" fill="#FFFFFF"></circle><circle cx="12" cy="4" r="5" fill="#FFFFFF"></circle><rect x="-12" y="-4" width="24" height="8" fill="#FFFFFF"></rect></g><path d="M0-88C44-88 64-24 64 18C64 66 36 86 0 86C-36 86-64 66-64 18C-64-24-44-88 0-88Z" fill="#FFFFFF"></path>
<path d="M-44-20C-56 16-50 58-20 80C-44 72-60 50-60 18C-60 0-54-12-44-20Z" fill="#E2DEEC" opacity="1"></path>

<path d="M-56 20L-74 50" stroke="#FFFFFF" stroke-width="16" stroke-linecap="round" fill="none"></path><path d="M54 8L84 -24" stroke="#FFFFFF" stroke-width="16" stroke-linecap="round" fill="none"></path><circle cx="-16" cy="-22" r="6" fill="#4A1838"></circle><circle cx="16" cy="-22" r="6" fill="#4A1838"></circle><circle cx="-13.6" cy="-24.4" r="2" fill="#FFF"></circle><circle cx="18.4" cy="-24.4" r="2" fill="#FFF"></circle><path d="M-9-6q9 8 18 0" fill="none" stroke="#4A1838" stroke-width="4" stroke-linecap="round"></path><circle cx="-30" cy="-8" r="6.5" fill="#FFB3C6" opacity=".85"></circle><circle cx="30" cy="-8" r="6.5" fill="#FFB3C6" opacity=".85"></circle>
<path d="M-46-40C-48-104 48-104 46-40" fill="none" stroke="#B8203E" stroke-width="6" stroke-linecap="round"></path>
<rect x="-66" y="-58" width="28" height="44" rx="14" fill="#E0344E"></rect><rect x="-59" y="-50" width="12" height="26" rx="6" fill="#F47B3B"></rect>
<rect x="38" y="-58" width="28" height="44" rx="14" fill="#E0344E"></rect><rect x="47" y="-50" width="12" height="26" rx="6" fill="#F47B3B"></rect><g class="mupi-helm"><path d="M-54-54C-56-112 56-112 54-54Z" fill="#FFC23D" stroke="#B8861A" stroke-width="3"></path><path d="M-6-104h12v48h-12z" fill="#F2A93B"></path><rect x="-66" y="-60" width="132" height="12" rx="6" fill="#F2A93B" stroke="#B8861A" stroke-width="3"></rect></g><g class="mupi-gears"><g transform="translate(86 -104)"><rect x="-4" y="-26" width="8" height="10" rx="2" fill="#9AA3B8" transform="rotate(0)"></rect><rect x="-4" y="-26" width="8" height="10" rx="2" fill="#9AA3B8" transform="rotate(45)"></rect><rect x="-4" y="-26" width="8" height="10" rx="2" fill="#9AA3B8" transform="rotate(90)"></rect><rect x="-4" y="-26" width="8" height="10" rx="2" fill="#9AA3B8" transform="rotate(135)"></rect><rect x="-4" y="-26" width="8" height="10" rx="2" fill="#9AA3B8" transform="rotate(180)"></rect><rect x="-4" y="-26" width="8" height="10" rx="2" fill="#9AA3B8" transform="rotate(225)"></rect><rect x="-4" y="-26" width="8" height="10" rx="2" fill="#9AA3B8" transform="rotate(270)"></rect><rect x="-4" y="-26" width="8" height="10" rx="2" fill="#9AA3B8" transform="rotate(315)"></rect><circle r="20" fill="#9AA3B8"></circle><circle r="8.4" fill="#FFFFFF"></circle></g><g transform="translate(118 -74)"><rect x="-2.4000000000000004" y="-15.600000000000001" width="4.800000000000001" height="6" rx="1.2000000000000002" fill="#F47B3B" transform="rotate(0)"></rect><rect x="-2.4000000000000004" y="-15.600000000000001" width="4.800000000000001" height="6" rx="1.2000000000000002" fill="#F47B3B" transform="rotate(45)"></rect><rect x="-2.4000000000000004" y="-15.600000000000001" width="4.800000000000001" height="6" rx="1.2000000000000002" fill="#F47B3B" transform="rotate(90)"></rect><rect x="-2.4000000000000004" y="-15.600000000000001" width="4.800000000000001" height="6" rx="1.2000000000000002" fill="#F47B3B" transform="rotate(135)"></rect><rect x="-2.4000000000000004" y="-15.600000000000001" width="4.800000000000001" height="6" rx="1.2000000000000002" fill="#F47B3B" transform="rotate(180)"></rect><rect x="-2.4000000000000004" y="-15.600000000000001" width="4.800000000000001" height="6" rx="1.2000000000000002" fill="#F47B3B" transform="rotate(225)"></rect><rect x="-2.4000000000000004" y="-15.600000000000001" width="4.800000000000001" height="6" rx="1.2000000000000002" fill="#F47B3B" transform="rotate(270)"></rect><rect x="-2.4000000000000004" y="-15.600000000000001" width="4.800000000000001" height="6" rx="1.2000000000000002" fill="#F47B3B" transform="rotate(315)"></rect><circle r="12" fill="#F47B3B"></circle><circle r="5.04" fill="#FFFFFF"></circle></g></g></g>
<g transform="translate(360 380)"><path d="M0 0v-70" stroke="#FFFFFF" stroke-width="4"></path><path d="M0-70h46v28H0z" fill="#FFC23D"></path><g transform="translate(22 -48) rotate(0) scale(0.7)" fill="#E0344E"><ellipse cx="0" cy="0" rx="7" ry="5.4" transform="rotate(-20)"></ellipse><rect x="5" y="-28" width="3" height="28"></rect><path d="M8-28q13 6 8 18q-2-7-8-9z"></path></g></g>
<g transform="translate(180 170) rotate(-12) scale(1.2)" fill="#FFE3A3"><ellipse cx="0" cy="0" rx="7" ry="5.4" transform="rotate(-20)"></ellipse><rect x="5" y="-28" width="3" height="28"></rect><path d="M8-28q13 6 8 18q-2-7-8-9z"></path></g><g transform="translate(120 250) rotate(10) scale(0.9)" fill="#C8D0F2"><ellipse cx="0" cy="0" rx="7" ry="5.4" transform="rotate(-20)"></ellipse><rect x="5" y="-28" width="3" height="28"></rect><path d="M8-28q13 6 8 18q-2-7-8-9z"></path></g></svg>