<svg xmlns="http://www.w3.org/2000/svg" viewBox="0 0 800 480" width="800" height="480" xmlns:c2pa="http://c2pa.org/manifest"><metadata><c2pa:manifest>AAAWgmp1bWIAAAAeanVtZGMycGEAEQAQgAAAqgA4m3EDYzJwYQAAABZcanVtYgAAAEdqdW1kYzJtYQARABCAAACqADibcQN1cm46YzJwYTpiMTY5MWRkMi0xNGJjLTQxNDgtYjAzMC1mODFmOTNjZDZhOWUAAAADl2p1bWIAAAApanVtZGMyYXMAEQAQgAAAqgA4m3EDYzJwYS5hc3NlcnRpb25zAAAAALxqdW1iAAAARGp1bWRjYm9yABEAEIAAAKoAOJtxE2MycGEuaW5ncmVkaWVudC52MwAAAAAYYzJzaAEfA7mQJnydYR/dy6OzxzwAAABwY2JvcqNpZGM6Zm9ybWF0bWltYWdlL3N2Zyt4bWxqaW5zdGFuY2VJRHgseG1wOmlpZDo0MzRkZjNjOS1mMWY5LTQ0NjQtODg3Zi1hMjA5ZTQwMDc3MThscmVsYXRpb25zaGlwaHBhcmVudE9mAAAB4mp1bWIAAABBanVtZGNib3IAEQAQgAAAqgA4m3ETYzJwYS5hY3Rpb25zLnYyAAAAABhjMnNoRzDQCSyo9BKZWIXiTM84qwAAAZljYm9yomdhY3Rpb25zgqJmYWN0aW9ua2MycGEub3BlbmVkanBhcmFtZXRlcnOha2luZ3JlZGllbnRzgaJjdXJseC1zZWxmI2p1bWJmPWMycGEuYXNzZXJ0aW9ucy9jMnBhLmluZ3JlZGllbnQudjNkaGFzaFggBOkWYIHWPG4opoc06XQerkqB569Em7fqAdaYJWX0+eekZmFjdGlvbngdY29tLmFudGhyb3BpYy5jbGF1ZGUucHJvdmlkZWRqcGFyYW1ldGVyc6F4H2NvbS5hbnRocm9waWMub3JpZ2luLWNvbmZpZGVuY2VndW5rbm93bmtkZXNjcmlwdGlvbnhmQ2xhdWRlIHByb3ZpZGVkIHRoaXMgZmlsZSBhdCB0aGUgcmVxdWVzdCBvZiBhIHVzZXIgYW5kIG1heSBoYXZlIGNyZWF0ZWQgb3IgbW9kaWZpZWQgdGhlIGZpbGUgY29udGVudHMubXNvZnR3YXJlQWdlbnShZG5hbWVmQ2xhdWRlcmFsbEFjdGlvbnNJbmNsdWRlZPUAAADIanVtYgAAAEBqdW1kY2JvcgARABCAAACqADibcRNjMnBhLmhhc2guZGF0YQAAAAAYYzJzaCJA2qIX2QpeyN/vdt7MGiUAAACAY2JvcqVjYWxnZnNoYTI1NmNwYWRNAAAAAAAAAAAAAAAAAGRoYXNoWCDT5y4xmVuvkpWIFuvva395NiUv+l0W9pix3Bu1THRTVmRuYW1lbmp1bWJmIG1hbmlmZXN0amV4Y2x1c2lvbnOBomVzdGFydBiWZmxlbmd0aBkeBAAAAj5qdW1iAAAAJ2p1bWRjMmNsABEAEIAAAKoAOJtxA2MycGEuY2xhaW0udjIAAAACD2Nib3KlY2FsZ2ZzaGEyNTZpc2lnbmF0dXJleE1zZWxmI2p1bWJmPS9jMnBhL3VybjpjMnBhOmIxNjkxZGQyLTE0YmMtNDE0OC1iMDMwLWY4MWY5M2NkNmE5ZS9jMnBhLnNpZ25hdHVyZWppbnN0YW5jZUlEeCx4bXA6aWlkOjA4M2EzZmYyLTI5MWUtNDFmZi05MjE0LWE0ZGQzNTkwNzBkY3JjcmVhdGVkX2Fzc2VydGlvbnODomN1cmx4LXNlbGYjanVtYmY9YzJwYS5hc3NlcnRpb25zL2MycGEuaW5ncmVkaWVudC52M2RoYXNoWCAE6RZggdY8biimhzTpdB6uSoHnr0Sbt+oB1pglZfT556JjdXJseCpzZWxmI2p1bWJmPWMycGEuYXNzZXJ0aW9ucy9jMnBhLmFjdGlvbnMudjJkaGFzaFggNEN+j0WVW1Chnj7KGA2+zPsrcDMfCCYZ+k4L1YvmD6iiY3VybHgpc2VsZiNqdW1iZj1jMnBhLmFzc2VydGlvbnMvYzJwYS5oYXNoLmRhdGFkaGFzaFggMzdGtmaELPtBCuQiQft5SO9ePnXylAm6ciybgFPpeAx0Y2xhaW1fZ2VuZXJhdG9yX2luZm+jZG5hbWVvQW50aHJvcGljIEZpbGVzZ3ZlcnNpb25lMS4wLjBrc3BlY1ZlcnNpb25lMi40LjAAABA4anVtYgAAAChqdW1kYzJjcwARABCAAACqADibcQNjMnBhLnNpZ25hdHVyZQAAABAIY2JvctKEWQISogEmGCFZAgowggIGMIIBjaADAgECAhRA5aAK7sI50L64g/oGQgU9Z1UTADAKBggqhkjOPQQDAzBJMRcwFQYDVQQKEw5BbnRocm9waWMsIFBCQzEuMCwGA1UEAxMlQW50aHJvcGljIENvbnRlbnQgQ3JlZGVudGlhbHMgUm9vdCBDQTAeFw0yNjA4MDcxODQzNTZaFw0yODA4MDYxOTQzNTZaMEQxFzAVBgNVBAoTDkFudGhyb3BpYywgUEJDMSkwJwYDVQQDEyBBbnRocm9waWMgQ2xhdWRlIENvbnRlbnQgU2lnbmluZzBZMBMGByqGSM49AgEGCCqGSM49AwEHA0IABJh6CmvLUBgFFNU0vUKlOVtE6djd17L5SuwX0LemFisBM3dkd/3cyjxFA3Qo5S46fX0/ihY0VZ7mfb9KF703t5OjWDBWMA4GA1UdDwEB/wQEAwIHgDAVBgNVHSUEDjAMBgorBgEEAYPoXgIBMAwGA1UdEwEB/wQCMAAwHwYDVR0jBBgwFoAUzlHiBIFOZFsj+OPEz5o+nMHXXMIwCgYIKoZIzj0EAwMDZwAwZAIwMXMdFJ4BetLLVY7ORuE9noqbbAZOZn/aArXyTwFAZfKrPzxF2vPoJNf1+UCdg1XGAjBwX1zd9WGqYkqmL5SFqw1QySjr1zJfpJM9+1rdDwSPLMOPOjKuiXjoU/pUUeG9RwmhY3BhZFkNngAAAAAAAAAAAAAAAAAAAAAAAAAAAAAAAAAAAAAAAAAAAAAAAAAAAAAAAAAAAAAAAAAAAAAAAAAAAAAAAAAAAAAAAAAAAAAAAAAAAAAAAAAAAAAAAAAAAAAAAAAAAAAAAAAAAAAAAAAAAAAAAAAAAAAAAAAAAAAAAAAAAAAAAAAAAAAAAAAAAAAAAAAAAAAAAAAAAAAAAAAAAAAAAAAAAAAAAAAAAAAAAAAAAAAAAAAAAAAAAAAAAAAAAAAAAAAAAAAAAAAAAAAAAAAAAAAAAAAAAAAAAAAAAAAAAAAAAAAAAAAAAAAAAAAAAAAAAAAAAAAAAAAAAAAAAAAAAAAAAAAAAAAAAAAAAAAAAAAAAAAAAAAAAAAAAAAAAAAAAAAAAAAAAAAAAAAAAAAAAAAAAAAAAAAAAAAAAAAAAAAAAAAAAAAAAAAAAAAAAAAAAAAAAAAAAAAAAAAAAAAAAAAAAAAAAAAAAAAAAAAAAAAAAAAAAAAAAAAAAAAAAAAAAAAAAAAAAAAAAAAAAAAAAAAAAAAAAAAAAAAAAAAAAAAAAAAAAAAAAAAAAAAAAAAAAAAAAAAAAAAAAAAAAAAAAAAAAAAAAAAAAAAAAAAAAAAAAAAAAAAAAAAAAAAAAAAAAAAAAAAAAAAAAAAAAAAAAAAAAAAAAAAAAAAAAAAAAAAAAAAAAAAAAAAAAAAAAAAAAAAAAAAAAAAAAAAAAAAAAAAAAAAAAAAAAAAAAAAAAAAAAAAAAAAAAAAAAAAAAAAAAAAAAAAAAAAAAAAAAAAAAAAAAAAAAAAAAAAAAAAAAAAAAAAAAAAAAAAAAAAAAAAAAAAAAAAAAAAAAAAAAAAAAAAAAAAAAAAAAAAAAAAAAAAAAAAAAAAAAAAAAAAAAAAAAAAAAAAAAAAAAAAAAAAAAAAAAAAAAAAAAAAAAAAAAAAAAAAAAAAAAAAAAAAAAAAAAAAAAAAAAAAAAAAAAAAAAAAAAAAAAAAAAAAAAAAAAAAAAAAAAAAAAAAAAAAAAAAAAAAAAAAAAAAAAAAAAAAAAAAAAAAAAAAAAAAAAAAAAAAAAAAAAAAAAAAAAAAAAAAAAAAAAAAAAAAAAAAAAAAAAAAAAAAAAAAAAAAAAAAAAAAAAAAAAAAAAAAAAAAAAAAAAAAAAAAAAAAAAAAAAAAAAAAAAAAAAAAAAAAAAAAAAAAAAAAAAAAAAAAAAAAAAAAAAAAAAAAAAAAAAAAAAAAAAAAAAAAAAAAAAAAAAAAAAAAAAAAAAAAAAAAAAAAAAAAAAAAAAAAAAAAAAAAAAAAAAAAAAAAAAAAAAAAAAAAAAAAAAAAAAAAAAAAAAAAAAAAAAAAAAAAAAAAAAAAAAAAAAAAAAAAAAAAAAAAAAAAAAAAAAAAAAAAAAAAAAAAAAAAAAAAAAAAAAAAAAAAAAAAAAAAAAAAAAAAAAAAAAAAAAAAAAAAAAAAAAAAAAAAAAAAAAAAAAAAAAAAAAAAAAAAAAAAAAAAAAAAAAAAAAAAAAAAAAAAAAAAAAAAAAAAAAAAAAAAAAAAAAAAAAAAAAAAAAAAAAAAAAAAAAAAAAAAAAAAAAAAAAAAAAAAAAAAAAAAAAAAAAAAAAAAAAAAAAAAAAAAAAAAAAAAAAAAAAAAAAAAAAAAAAAAAAAAAAAAAAAAAAAAAAAAAAAAAAAAAAAAAAAAAAAAAAAAAAAAAAAAAAAAAAAAAAAAAAAAAAAAAAAAAAAAAAAAAAAAAAAAAAAAAAAAAAAAAAAAAAAAAAAAAAAAAAAAAAAAAAAAAAAAAAAAAAAAAAAAAAAAAAAAAAAAAAAAAAAAAAAAAAAAAAAAAAAAAAAAAAAAAAAAAAAAAAAAAAAAAAAAAAAAAAAAAAAAAAAAAAAAAAAAAAAAAAAAAAAAAAAAAAAAAAAAAAAAAAAAAAAAAAAAAAAAAAAAAAAAAAAAAAAAAAAAAAAAAAAAAAAAAAAAAAAAAAAAAAAAAAAAAAAAAAAAAAAAAAAAAAAAAAAAAAAAAAAAAAAAAAAAAAAAAAAAAAAAAAAAAAAAAAAAAAAAAAAAAAAAAAAAAAAAAAAAAAAAAAAAAAAAAAAAAAAAAAAAAAAAAAAAAAAAAAAAAAAAAAAAAAAAAAAAAAAAAAAAAAAAAAAAAAAAAAAAAAAAAAAAAAAAAAAAAAAAAAAAAAAAAAAAAAAAAAAAAAAAAAAAAAAAAAAAAAAAAAAAAAAAAAAAAAAAAAAAAAAAAAAAAAAAAAAAAAAAAAAAAAAAAAAAAAAAAAAAAAAAAAAAAAAAAAAAAAAAAAAAAAAAAAAAAAAAAAAAAAAAAAAAAAAAAAAAAAAAAAAAAAAAAAAAAAAAAAAAAAAAAAAAAAAAAAAAAAAAAAAAAAAAAAAAAAAAAAAAAAAAAAAAAAAAAAAAAAAAAAAAAAAAAAAAAAAAAAAAAAAAAAAAAAAAAAAAAAAAAAAAAAAAAAAAAAAAAAAAAAAAAAAAAAAAAAAAAAAAAAAAAAAAAAAAAAAAAAAAAAAAAAAAAAAAAAAAAAAAAAAAAAAAAAAAAAAAAAAAAAAAAAAAAAAAAAAAAAAAAAAAAAAAAAAAAAAAAAAAAAAAAAAAAAAAAAAAAAAAAAAAAAAAAAAAAAAAAAAAAAAAAAAAAAAAAAAAAAAAAAAAAAAAAAAAAAAAAAAAAAAAAAAAAAAAAAAAAAAAAAAAAAAAAAAAAAAAAAAAAAAAAAAAAAAAAAAAAAAAAAAAAAAAAAAAAAAAAAAAAAAAAAAAAAAAAAAAAAAAAAAAAAAAAAAAAAAAAAAAAAAAAAAAAAAAAAAAAAAAAAAAAAAAAAAAAAAAAAAAAAAAAAAAAAAAAAAAAAAAAAAAAAAAAAAAAAAAAAAAAAAAAAAAAAAAAAAAAAAAAAAAAAAAAAAAAAAAAAAAAAAAAAAAAAAAAAAAAAAAAAAAAAAAAAAAAAAAAAAAAAAAAAAAAAAAAAAAAAAAAAAAAAAAAAAAAAAAAAAAAAAAAAAAAAAAAAAAAAAAAAAAAAAAAAAAAAAAAAAAAAAAAAAAAAAAAAAAAAAAAAAAAAAAAAAAAAAAAAAAAAAAAAAAAAAAAAAAAAAAAAAAAAAAAAAAAAAAAAAAAAAAAAAAAAAAAAAAAAAAAAAAAAAAAAAAAAAAAAAAAAAAAAAAAAAAAAAAAAAAAAAAAAAAAAAAAAAAAAAAAAAAAAAAAAAAAAAAAAAAAAAAAAAAAAAAAAAAAAAAAAAAAAAAAAAAAAAAAAAAAAAAAAAAAAAAAAAAAAAAAAAAAAAAAAAAAAAAAAAAAAAAAAAAAAAAAAAAAAAAAAAAAAAAAAAAAAAAAAAAAAAAAAAAAAAAAAAAAAAAAAAAAAAAAAAAAAAAAAAAAAAAAAAAAAAAAAAAAAAAAAAAAAAAAAAAAAAAAAAAAAAAAAAAAAAAAAAAAAAAAAAAAAAAAAAAAAAAAAAAAAAAAAAAAAAAAAAAAAAAAAAAAAAAAAAAAAAAAAAAAAAAAAAAAAAAAAAAAAAAAAAAAAAAAAAAAAAAAAAAAAAAAAAAAAAAAAAAAAAAAAAAAAAAAAAAAAAAAAAAAAAAAAAAAAAAAAAAAAAAAAAAAAAAAAAAAAAAAAAAAAAAAAAAAAAAAAAAAAAAAAAAAAAAAAAAAAAAAAAAAAAAAAAAAAAAAAAAAAAAAAAAAAAAAAAAAAAAAAAAAAAAAAAAAAAAAAAAAAAAAAAAAAAAAAAAAAAAAAAAAAAAAAAAAAAAAAAAAAAAAAAAAAAAAAAAAAAAAAAAAAAAAAAAAAAAAAAAAAAAAAAAAAAAAAAAAAAAAAAAAAAAAAAAAAAAAAAAAAAAAAAAAAAAAAAAAAAAAAAAAAAAAAAAAAAAAAAAAAAAAAAAAAAAAAAAAAAAAAAAAAAAAAAAAAAAAAAAAAAAAAAAAAAAAAAAAAAAAAAAAAAAAAAAAAAAAAAAAAAAAAAAAAAAAAAAAAAAAAAAAAAAAAAAAAAAAAAAAAAAAAAAAAAAAAAAAAAAAAAAAAAAAAAAAAAAAAAAAAAAAAAAAAAAAAAAAAAAAAAAAAAAAAAAAAAAAAAAAAAAAAAAAAAAAAAAAAAAAAAAAAAAAAAAAAAAAAAAAAAAAAAAAAAAAAAAAAAAAAAAAAAAAAAAAAAAAAAAAAAAAAAAAAAAAAAAAAAAAAAAAAAAAAAAAAAAAAAAAAAAAAAAAAAAAAAAAAAAAAAAAAAAAAAAAAAAAAAAAAAAAAAAAAAAAAAAAAAAAAAAAAAAAAAAAAAAAAAAAAAAAAAAAAAAAAAAAAAAAAAAAAAAAAAAAAAAAAAAAAAAAAAAAAAAAAAAAAAAAAAAAAAAAAAAAAAAAAAAAAAAAAAAAAAAAAAAAAAAAAAAAAAAAAAAAAAAAAAAAAAAAAAAAAAAAAAAAAAAAAAAAAAAAAAAAAAAAAAAAAAAAAAAAAAAAAAAAAAAAAAAAAAAAAAAAAAAAAAAAAAAAAAAAAAAAAAAAAAAAAAAAAAAAAAAAAAAAAAAAAAAAAAAAAAAAAAAAAAAAAAAAAAAAAAAAAAAAAAAAAAAAAAAAAAAAAAAAAAAAAAAAAAAAAAAAAAAAAAAAAAAAAAAAAAAAAAAAAAAAAAAAAAAAAAAAAAAAAAAAAAAAAAAAAAAAAAAAAAAAAAAAAPZYQD+f53LSqDutKeE6YoOygVqtWqbF20lDCxHv1bYZI6tbasRGRUtPZ/+394aObfJ2I+EjRJ5kNvidB1HKvSmPTA4=</c2pa:manifest></metadata><rect width="800" height="480" fill="#F7C9A0"></rect><rect width="800" height="220" fill="#F4B38E"></rect><rect width="800" height="120" fill="#EE9E86"></rect>
<circle cx="600" cy="250" r="90" fill="#FFD98A"></circle><circle cx="600" cy="250" r="130" fill="#FFD98A" opacity=".3"></circle>
<path d="M0 300C140 250 260 270 380 290S640 250 800 280V480H0z" fill="#E08A6E"></path>
<path d="M0 340C160 300 300 330 440 330S680 300 800 330V480H0z" fill="#B96B66"></path>
<g fill="#8C4E5E"><rect x="640" y="250" width="54" height="50"></rect><path d="M632 252l35-28 35 28z"></path><rect x="706" y="266" width="40" height="34"></rect><path d="M700 268l26-20 26 20z"></path></g><g fill="#FFD98A"><rect x="652" y="264" width="10" height="12" rx="2"></rect><rect x="672" y="264" width="10" height="12" rx="2"></rect><rect x="718" y="276" width="8" height="10" rx="2"></rect></g>
<path d="M-20 480C60 360 240 340 420 380S700 420 820 400V480z" fill="#6E3E5C"></path>
<g><path d="M120 400C110 320 130 250 118 190" stroke="#4A2A40" stroke-width="16" fill="none" stroke-linecap="round"></path><path d="M118 250q-40-20-60-6M122 220q40-20 64-4" stroke="#4A2A40" stroke-width="8" fill="none" stroke-linecap="round"></path><circle cx="118" cy="160" r="70" fill="#5E7A4E"></circle><circle cx="70" cy="190" r="44" fill="#6B8A58"></circle><circle cx="168" cy="186" r="48" fill="#6B8A58"></circle><path d="M60 214q60 24 120 0" stroke="#4A2A40" stroke-width="2" fill="none"></path><path d="M70 214v8" stroke="#4A2A40" stroke-width="1.5"></path><rect x="64" y="222" width="12" height="16" rx="5" fill="#FFD98A"></rect><rect x="64" y="222" width="12" height="16" rx="5" fill="#FFF" opacity=".25"></rect><path d="M100 224v8" stroke="#4A2A40" stroke-width="1.5"></path><rect x="94" y="232" width="12" height="16" rx="5" fill="#F47B3B"></rect><rect x="94" y="232" width="12" height="16" rx="5" fill="#FFF" opacity=".25"></rect><path d="M130 226v8" stroke="#4A2A40" stroke-width="1.5"></path><rect x="124" y="234" width="12" height="16" rx="5" fill="#FFD98A"></rect><rect x="124" y="234" width="12" height="16" rx="5" fill="#FFF" opacity=".25"></rect><path d="M160 218v8" stroke="#4A2A40" stroke-width="1.5"></path><rect x="154" y="226" width="12" height="16" rx="5" fill="#E0344E"></rect><rect x="154" y="226" width="12" height="16" rx="5" fill="#FFF" opacity=".25"></rect></g>
<g transform="translate(360 330)"><rect x="-10" y="0" width="120" height="76" rx="14" fill="#E0344E"></rect><rect x="-10" y="0" width="120" height="16" rx="8" fill="#B8203E"></rect><circle cx="24" cy="44" r="22" fill="#4A1838"></circle><circle cx="24" cy="44" r="10" fill="#8C4E5E"></circle><rect x="58" y="28" width="40" height="14" rx="4" fill="#FFD98A"></rect><circle cx="66" cy="58" r="6" fill="#FFD98A"></circle><circle cx="88" cy="58" r="6" fill="#FFD98A"></circle><path d="M4 0l22-26h48l22 26" fill="none" stroke="#4A1838" stroke-width="5" stroke-linecap="round"></path></g>
<g transform="translate(290 318) scale(1.05)"><ellipse cx="0" cy="104" rx="78" ry="10" fill="#5A3050"></ellipse>
<path d="M-56 50C-84 50-104 62-98 76C-90 86-66 78-54 66Z" fill="#FFFFFF"></path>
<path d="M-26 74L-40 96" stroke="#FFFFFF" stroke-width="16" stroke-linecap="round" fill="none"></path><path d="M26 74L40 96" stroke="#FFFFFF" stroke-width="16" stroke-linecap="round" fill="none"></path><g transform="translate(-44 100)"><circle cx="-12" cy="-4" r="5" fill="#FFFFFF"></circle><circle cx="-12" cy="4" r="5" fill="#FFFFFF"></circle><circle cx="12" cy="-4" r="5" fill="#FFFFFF"></circle><circle cx="12" cy="4" r="5" fill="#FFFFFF"></circle><rect x="-12" y="-4" width="24" height="8" fill="#FFFFFF"></rect></g><g transform="translate(44 100)"><circle cx="-12" cy="-4" r="5" fill="#FFFFFF"></circle><circle cx="-12" cy="4" r="5" fill="#FFFFFF"></circle><circle cx="12" cy="-4" r="5" fill="#FFFFFF"></circle><circle cx="12" cy="4" r="5" fill="#FFFFFF"></circle><rect x="-12" y="-4" width="24" height="8" fill="#FFFFFF"></rect></g><path d="M0-88C44-88 64-24 64 18C64 66 36 86 0 86C-36 86-64 66-64 18C-64-24-44-88 0-88Z" fill="#FFFFFF"></path>
<path d="M-44-20C-56 16-50 58-20 80C-44 72-60 50-60 18C-60 0-54-12-44-20Z" fill="#EAD7D2" opacity="1"></path>

<path d="M-56 20L-74 50" stroke="#FFFFFF" stroke-width="16" stroke-linecap="round" fill="none"></path><path d="M56 20L74 50" stroke="#FFFFFF" stroke-width="16" stroke-linecap="round" fill="none"></path><circle cx="-16" cy="-22" r="6" fill="#4A1838"></circle><circle cx="16" cy="-22" r="6" fill="#4A1838"></circle><circle cx="-13.6" cy="-24.4" r="2" fill="#FFF"></circle><circle cx="18.4" cy="-24.4" r="2" fill="#FFF"></circle><path d="M-9-6q9 8 18 0" fill="none" stroke="#4A1838" stroke-width="4" stroke-linecap="round"></path><circle cx="-30" cy="-8" r="6.5" fill="#FFB3C6" opacity=".85"></circle><circle cx="30" cy="-8" r="6.5" fill="#FFB3C6" opacity=".85"></circle>
<path d="M-46-40C-48-104 48-104 46-40" fill="none" stroke="#B8203E" stroke-width="6" stroke-linecap="round"></path>
<rect x="-66" y="-58" width="28" height="44" rx="14" fill="#E0344E"></rect><rect x="-59" y="-50" width="12" height="26" rx="6" fill="#F47B3B"></rect>
<rect x="38" y="-58" width="28" height="44" rx="14" fill="#E0344E"></rect><rect x="47" y="-50" width="12" height="26" rx="6" fill="#F47B3B"></rect>
</g>
<g transform="translate(420 300) rotate(-10) scale(0.9)" fill="#FFF4E6"><ellipse cx="0" cy="0" rx="7" ry="5.4" transform="rotate(-20)"></ellipse><rect x="5" y="-28" width="3" height="28"></rect><path d="M8-28q13 6 8 18q-2-7-8-9z"></path></g><g transform="translate(460 262) rotate(8) scale(1.1)" fill="#FFF4E6"><ellipse cx="0" cy="0" rx="7" ry="5.4" transform="rotate(-20)"></ellipse><rect x="5" y="-28" width="3" height="28"></rect><path d="M8-28q13 6 8 18q-2-7-8-9z"></path></g><g transform="translate(510 230) rotate(-6) scale(0.8)" fill="#FFF4E6"><ellipse cx="0" cy="0" rx="7" ry="5.4" transform="rotate(-20)"></ellipse><rect x="5" y="-28" width="3" height="28"></rect><path d="M8-28q13 6 8 18q-2-7-8-9z"></path></g><g transform="translate(400 244) rotate(12) scale(0.7)" fill="#FFF4E6"><ellipse cx="0" cy="0" rx="7" ry="5.4" transform="rotate(-20)"></ellipse><rect x="5" y="-28" width="3" height="28"></rect><path d="M8-28q13 6 8 18q-2-7-8-9z"></path></g>
<circle cx="240" cy="120" r="2.4" fill="#FFF4E6" opacity=".8"></circle><circle cx="300" cy="90" r="2.4" fill="#FFF4E6" opacity=".8"></circle><circle cx="480" cy="150" r="2.4" fill="#FFF4E6" opacity=".8"></circle><circle cx="720" cy="120" r="2.4" fill="#FFF4E6" opacity=".8"></circle><circle cx="40" cy="60" r="2.4" fill="#FFF4E6" opacity=".8"></circle></svg>