<svg xmlns="http://www.w3.org/2000/svg" viewBox="0 0 800 480" width="1600" height="960" preserveAspectRatio="xMidYMid slice" xmlns:c2pa="http://c2pa.org/manifest"><metadata><c2pa:manifest>AAAWgmp1bWIAAAAeanVtZGMycGEAEQAQgAAAqgA4m3EDYzJwYQAAABZcanVtYgAAAEdqdW1kYzJtYQARABCAAACqADibcQN1cm46YzJwYTpmNGVkMTA3ZC04NDZhLTRmYmUtYmRlYS1jYmUwMDVkZGMwMjAAAAADl2p1bWIAAAApanVtZGMyYXMAEQAQgAAAqgA4m3EDYzJwYS5hc3NlcnRpb25zAAAAALxqdW1iAAAARGp1bWRjYm9yABEAEIAAAKoAOJtxE2MycGEuaW5ncmVkaWVudC52MwAAAAAYYzJzaI8szRqMvj0mqcp7KVMiBToAAABwY2JvcqNpZGM6Zm9ybWF0bWltYWdlL3N2Zyt4bWxqaW5zdGFuY2VJRHgseG1wOmlpZDo3NTdiZWI1Yy0zOTk0LTRiZjEtOWYyYy1lZWE0ZDUzMzAwYThscmVsYXRpb25zaGlwaHBhcmVudE9mAAAB4mp1bWIAAABBanVtZGNib3IAEQAQgAAAqgA4m3ETYzJwYS5hY3Rpb25zLnYyAAAAABhjMnNo2rZelp0d+BI/K39HcWt0+wAAAZljYm9yomdhY3Rpb25zgqJmYWN0aW9ua2MycGEub3BlbmVkanBhcmFtZXRlcnOha2luZ3JlZGllbnRzgaJjdXJseC1zZWxmI2p1bWJmPWMycGEuYXNzZXJ0aW9ucy9jMnBhLmluZ3JlZGllbnQudjNkaGFzaFggUGRZsKdtd/Zkwv4GN4Fs3dla9Vi0dztOa0TMga+eqxGkZmFjdGlvbngdY29tLmFudGhyb3BpYy5jbGF1ZGUucHJvdmlkZWRqcGFyYW1ldGVyc6F4H2NvbS5hbnRocm9waWMub3JpZ2luLWNvbmZpZGVuY2VndW5rbm93bmtkZXNjcmlwdGlvbnhmQ2xhdWRlIHByb3ZpZGVkIHRoaXMgZmlsZSBhdCB0aGUgcmVxdWVzdCBvZiBhIHVzZXIgYW5kIG1heSBoYXZlIGNyZWF0ZWQgb3IgbW9kaWZpZWQgdGhlIGZpbGUgY29udGVudHMubXNvZnR3YXJlQWdlbnShZG5hbWVmQ2xhdWRlcmFsbEFjdGlvbnNJbmNsdWRlZPUAAADIanVtYgAAAEBqdW1kY2JvcgARABCAAACqADibcRNjMnBhLmhhc2guZGF0YQAAAAAYYzJzaCrk0qhQTxEilWTQpPw/y7wAAACAY2JvcqVjYWxnZnNoYTI1NmNwYWRNAAAAAAAAAAAAAAAAAGRoYXNoWCAyRn2ZK/gzey6p8Bodq0w/H7TOPq66d3FLHb5WXfH3EWRuYW1lbmp1bWJmIG1hbmlmZXN0amV4Y2x1c2lvbnOBomVzdGFydBi8Zmxlbmd0aBkeBAAAAj5qdW1iAAAAJ2p1bWRjMmNsABEAEIAAAKoAOJtxA2MycGEuY2xhaW0udjIAAAACD2Nib3KlY2FsZ2ZzaGEyNTZpc2lnbmF0dXJleE1zZWxmI2p1bWJmPS9jMnBhL3VybjpjMnBhOmY0ZWQxMDdkLTg0NmEtNGZiZS1iZGVhLWNiZTAwNWRkYzAyMC9jMnBhLnNpZ25hdHVyZWppbnN0YW5jZUlEeCx4bXA6aWlkOjE2NzhiYTUxLTk0NTktNDJkNy05MTNhLWZjMWYxM2NhZGIzMHJjcmVhdGVkX2Fzc2VydGlvbnODomN1cmx4LXNlbGYjanVtYmY9YzJwYS5hc3NlcnRpb25zL2MycGEuaW5ncmVkaWVudC52M2RoYXNoWCBQZFmwp2139mTC/gY3gWzd2Vr1WLR3O05rRMyBr56rEaJjdXJseCpzZWxmI2p1bWJmPWMycGEuYXNzZXJ0aW9ucy9jMnBhLmFjdGlvbnMudjJkaGFzaFggwQkqph8O4g3sbDKfX0SQ8wxCVqzNOLkY3IHvIkfGFYWiY3VybHgpc2VsZiNqdW1iZj1jMnBhLmFzc2VydGlvbnMvYzJwYS5oYXNoLmRhdGFkaGFzaFggajXNQTuMQfQat4Vi/cpAZPoiAt7V0KMMTlzQMfWAF7N0Y2xhaW1fZ2VuZXJhdG9yX2luZm+jZG5hbWVvQW50aHJvcGljIEZpbGVzZ3ZlcnNpb25lMS4wLjBrc3BlY1ZlcnNpb25lMi40LjAAABA4anVtYgAAAChqdW1kYzJjcwARABCAAACqADibcQNjMnBhLnNpZ25hdHVyZQAAABAIY2JvctKEWQISogEmGCFZAgowggIGMIIBjaADAgECAhRA5aAK7sI50L64g/oGQgU9Z1UTADAKBggqhkjOPQQDAzBJMRcwFQYDVQQKEw5BbnRocm9waWMsIFBCQzEuMCwGA1UEAxMlQW50aHJvcGljIENvbnRlbnQgQ3JlZGVudGlhbHMgUm9vdCBDQTAeFw0yNjA4MDcxODQzNTZaFw0yODA4MDYxOTQzNTZaMEQxFzAVBgNVBAoTDkFudGhyb3BpYywgUEJDMSkwJwYDVQQDEyBBbnRocm9waWMgQ2xhdWRlIENvbnRlbnQgU2lnbmluZzBZMBMGByqGSM49AgEGCCqGSM49AwEHA0IABJh6CmvLUBgFFNU0vUKlOVtE6djd17L5SuwX0LemFisBM3dkd/3cyjxFA3Qo5S46fX0/ihY0VZ7mfb9KF703t5OjWDBWMA4GA1UdDwEB/wQEAwIHgDAVBgNVHSUEDjAMBgorBgEEAYPoXgIBMAwGA1UdEwEB/wQCMAAwHwYDVR0jBBgwFoAUzlHiBIFOZFsj+OPEz5o+nMHXXMIwCgYIKoZIzj0EAwMDZwAwZAIwMXMdFJ4BetLLVY7ORuE9noqbbAZOZn/aArXyTwFAZfKrPzxF2vPoJNf1+UCdg1XGAjBwX1zd9WGqYkqmL5SFqw1QySjr1zJfpJM9+1rdDwSPLMOPOjKuiXjoU/pUUeG9RwmhY3BhZFkNngAAAAAAAAAAAAAAAAAAAAAAAAAAAAAAAAAAAAAAAAAAAAAAAAAAAAAAAAAAAAAAAAAAAAAAAAAAAAAAAAAAAAAAAAAAAAAAAAAAAAAAAAAAAAAAAAAAAAAAAAAAAAAAAAAAAAAAAAAAAAAAAAAAAAAAAAAAAAAAAAAAAAAAAAAAAAAAAAAAAAAAAAAAAAAAAAAAAAAAAAAAAAAAAAAAAAAAAAAAAAAAAAAAAAAAAAAAAAAAAAAAAAAAAAAAAAAAAAAAAAAAAAAAAAAAAAAAAAAAAAAAAAAAAAAAAAAAAAAAAAAAAAAAAAAAAAAAAAAAAAAAAAAAAAAAAAAAAAAAAAAAAAAAAAAAAAAAAAAAAAAAAAAAAAAAAAAAAAAAAAAAAAAAAAAAAAAAAAAAAAAAAAAAAAAAAAAAAAAAAAAAAAAAAAAAAAAAAAAAAAAAAAAAAAAAAAAAAAAAAAAAAAAAAAAAAAAAAAAAAAAAAAAAAAAAAAAAAAAAAAAAAAAAAAAAAAAAAAAAAAAAAAAAAAAAAAAAAAAAAAAAAAAAAAAAAAAAAAAAAAAAAAAAAAAAAAAAAAAAAAAAAAAAAAAAAAAAAAAAAAAAAAAAAAAAAAAAAAAAAAAAAAAAAAAAAAAAAAAAAAAAAAAAAAAAAAAAAAAAAAAAAAAAAAAAAAAAAAAAAAAAAAAAAAAAAAAAAAAAAAAAAAAAAAAAAAAAAAAAAAAAAAAAAAAAAAAAAAAAAAAAAAAAAAAAAAAAAAAAAAAAAAAAAAAAAAAAAAAAAAAAAAAAAAAAAAAAAAAAAAAAAAAAAAAAAAAAAAAAAAAAAAAAAAAAAAAAAAAAAAAAAAAAAAAAAAAAAAAAAAAAAAAAAAAAAAAAAAAAAAAAAAAAAAAAAAAAAAAAAAAAAAAAAAAAAAAAAAAAAAAAAAAAAAAAAAAAAAAAAAAAAAAAAAAAAAAAAAAAAAAAAAAAAAAAAAAAAAAAAAAAAAAAAAAAAAAAAAAAAAAAAAAAAAAAAAAAAAAAAAAAAAAAAAAAAAAAAAAAAAAAAAAAAAAAAAAAAAAAAAAAAAAAAAAAAAAAAAAAAAAAAAAAAAAAAAAAAAAAAAAAAAAAAAAAAAAAAAAAAAAAAAAAAAAAAAAAAAAAAAAAAAAAAAAAAAAAAAAAAAAAAAAAAAAAAAAAAAAAAAAAAAAAAAAAAAAAAAAAAAAAAAAAAAAAAAAAAAAAAAAAAAAAAAAAAAAAAAAAAAAAAAAAAAAAAAAAAAAAAAAAAAAAAAAAAAAAAAAAAAAAAAAAAAAAAAAAAAAAAAAAAAAAAAAAAAAAAAAAAAAAAAAAAAAAAAAAAAAAAAAAAAAAAAAAAAAAAAAAAAAAAAAAAAAAAAAAAAAAAAAAAAAAAAAAAAAAAAAAAAAAAAAAAAAAAAAAAAAAAAAAAAAAAAAAAAAAAAAAAAAAAAAAAAAAAAAAAAAAAAAAAAAAAAAAAAAAAAAAAAAAAAAAAAAAAAAAAAAAAAAAAAAAAAAAAAAAAAAAAAAAAAAAAAAAAAAAAAAAAAAAAAAAAAAAAAAAAAAAAAAAAAAAAAAAAAAAAAAAAAAAAAAAAAAAAAAAAAAAAAAAAAAAAAAAAAAAAAAAAAAAAAAAAAAAAAAAAAAAAAAAAAAAAAAAAAAAAAAAAAAAAAAAAAAAAAAAAAAAAAAAAAAAAAAAAAAAAAAAAAAAAAAAAAAAAAAAAAAAAAAAAAAAAAAAAAAAAAAAAAAAAAAAAAAAAAAAAAAAAAAAAAAAAAAAAAAAAAAAAAAAAAAAAAAAAAAAAAAAAAAAAAAAAAAAAAAAAAAAAAAAAAAAAAAAAAAAAAAAAAAAAAAAAAAAAAAAAAAAAAAAAAAAAAAAAAAAAAAAAAAAAAAAAAAAAAAAAAAAAAAAAAAAAAAAAAAAAAAAAAAAAAAAAAAAAAAAAAAAAAAAAAAAAAAAAAAAAAAAAAAAAAAAAAAAAAAAAAAAAAAAAAAAAAAAAAAAAAAAAAAAAAAAAAAAAAAAAAAAAAAAAAAAAAAAAAAAAAAAAAAAAAAAAAAAAAAAAAAAAAAAAAAAAAAAAAAAAAAAAAAAAAAAAAAAAAAAAAAAAAAAAAAAAAAAAAAAAAAAAAAAAAAAAAAAAAAAAAAAAAAAAAAAAAAAAAAAAAAAAAAAAAAAAAAAAAAAAAAAAAAAAAAAAAAAAAAAAAAAAAAAAAAAAAAAAAAAAAAAAAAAAAAAAAAAAAAAAAAAAAAAAAAAAAAAAAAAAAAAAAAAAAAAAAAAAAAAAAAAAAAAAAAAAAAAAAAAAAAAAAAAAAAAAAAAAAAAAAAAAAAAAAAAAAAAAAAAAAAAAAAAAAAAAAAAAAAAAAAAAAAAAAAAAAAAAAAAAAAAAAAAAAAAAAAAAAAAAAAAAAAAAAAAAAAAAAAAAAAAAAAAAAAAAAAAAAAAAAAAAAAAAAAAAAAAAAAAAAAAAAAAAAAAAAAAAAAAAAAAAAAAAAAAAAAAAAAAAAAAAAAAAAAAAAAAAAAAAAAAAAAAAAAAAAAAAAAAAAAAAAAAAAAAAAAAAAAAAAAAAAAAAAAAAAAAAAAAAAAAAAAAAAAAAAAAAAAAAAAAAAAAAAAAAAAAAAAAAAAAAAAAAAAAAAAAAAAAAAAAAAAAAAAAAAAAAAAAAAAAAAAAAAAAAAAAAAAAAAAAAAAAAAAAAAAAAAAAAAAAAAAAAAAAAAAAAAAAAAAAAAAAAAAAAAAAAAAAAAAAAAAAAAAAAAAAAAAAAAAAAAAAAAAAAAAAAAAAAAAAAAAAAAAAAAAAAAAAAAAAAAAAAAAAAAAAAAAAAAAAAAAAAAAAAAAAAAAAAAAAAAAAAAAAAAAAAAAAAAAAAAAAAAAAAAAAAAAAAAAAAAAAAAAAAAAAAAAAAAAAAAAAAAAAAAAAAAAAAAAAAAAAAAAAAAAAAAAAAAAAAAAAAAAAAAAAAAAAAAAAAAAAAAAAAAAAAAAAAAAAAAAAAAAAAAAAAAAAAAAAAAAAAAAAAAAAAAAAAAAAAAAAAAAAAAAAAAAAAAAAAAAAAAAAAAAAAAAAAAAAAAAAAAAAAAAAAAAAAAAAAAAAAAAAAAAAAAAAAAAAAAAAAAAAAAAAAAAAAAAAAAAAAAAAAAAAAAAAAAAAAAAAAAAAAAAAAAAAAAAAAAAAAAAAAAAAAAAAAAAAAAAAAAAAAAAAAAAAAAAAAAAAAAAAAAAAAAAAAAAAAAAAAAAAAAAAAAAAAAAAAAAAAAAAAAAAAAAAAAAAAAAAAAAAAAAAAAAAAAAAAAAAAAAAAAAAAAAAAAAAAAAAAAAAAAAAAAAAAAAAAAAAAAAAAAAAAAAAAAAAAAAAAAAAAAAAAAAAAAAAAAAAAAAAAAAAAAAAAAAAAAAAAAAAAAAAAAAAAAAAAAAAAAAAAAAAAAAAAAAAAAAAAAAAAAAAAAAAAAAAAAAAAAAAAAAAAAAAAAAAAAAAAAAAAAAAAAAAAAAAAAAAAAAAAAAAAAAAAAAAAAAAAAAAAAAAAAAAAAAAAAAAAAAAAAAAAAAAAAAAAAAAAAAAAAAAAAAAAAAAAAAAAAAAAAAAAAAAAAAAAAAAAAAAAAAAAAAAAAAAAAAAAAAAAAAAAAAAAAAAAAAAAAAAAAAAAAAAAAAAAAAAAAAAAAAAAAAAAAAAAAAAAAAAAAAAAAAAAAAAAAAAAAAAAAAAAAAAAAAAAAAAAAAAAAAAAAAAAAAAAAAAAAAAAAAAAAAAAAAAAAAAAAAAAAAAAAAAAAAAAAAAAAAAAAAAAAAAAAAAAAAAAAAAAAAAAAAAAAAAAAAAAAAAAAAAAAAAAAAAAAAAAAAAAAAAAAAAAAAAAAAAAAAAAAAAAAAAAAAAAAAAAAAAAAAAAAAAAAAAAAAAAAAAAAAAAAAAAAAAAAAAAAAAAAAAAAAAAAAAAAAAAAAAAAAAAAAAAAAAAAAAAAAAAAAAAAAAAAAAAAAAAAAAAAAAAAAAAAAAAAAAAAAAAAAAAAAAAAAAAAAAAAAAAAAAAAAAAAAAAAAAAAAAAAAAAAAAAAAAAAAAAAAAAAAAAAAAAAAAAAAAAAAAAAAAAAAAAAAAAAAAAAAAAAAAAAAAAAAAAAAAAAAAAAAAAAAAAAAAAAAAAAAAAAAAAAAAAAAAAAAAAAAAAAAAAAAAAAAAAAAAAAAAAAAAAAAAAAAAAAAAAAAAAAAAAAAAAAAAAAAAAAAAAAAAAAAAAAAAAAAAAAAAAAAAAAAAAAAAAAAAAAAAAAAAAAAAAAAAAAAAAAAAAAAAAAAAAAAAAAAAAAAAAAAAAAAAAAAAAAAAAAAAAAAAAAAAAAAAAAAAAAAAAAAAAAAAAAAAAAAAAAAAAAAAAAAAAAAAAAAAAAAAAAAAAAAAAAAAAAAAAAAAAAAAAAAAAAAAAAAAAAAAAAAAAAAAAAAAAAAAAAAAAAAAAAAAAAAAAAAAAAAAAAAAAAAAAAAAAAAAAAAAAAAAAAAAAAAAAAAAAAAAAAAAAAAAAAAAAAAAAAAAAAAAAAAAAAAAAAAAAAAAAAAAAAAAAAAAAAAAAAAAAAAAAAAAAAAAAAAAAAAAAAAAAAAAAAAAAAAAAAAAAAAAAAAAAAAAAAAAAAAAAAAAAAAAAAAAAAAAAAAAAAAAAAAAAAAAAAAAAAAAAPZYQN4yem20mllRN+A/ZAofBApvVX2Dep+N2XGWPRkjGhXrXr9+kx+7LouTsfVB5chvCTuqxkn4nsutHFf4bLqmhpQ=</c2pa:manifest></metadata><rect width="800" height="480" fill="#26301F"></rect><g fill="#F2D98A"><circle cx="64" cy="105" r="1.6"></circle><circle cx="328" cy="91" r="1.4"></circle><circle cx="632" cy="115" r="1.8"></circle><circle cx="205" cy="165" r="1.2"></circle><circle cx="740" cy="210" r="1.2"></circle></g><rect x="7.199999999999999" y="378" width="5.6000000000000005" height="14" fill="#34432B"></rect><path d="M10 322.0L20.0 351.4H-0.0ZM10 338.8L24.0 368.2H-4.0ZM10 355.6L28.0 385.0H-8.0Z" fill="#34432B"></path><rect x="39.72" y="370.6" width="8.56" height="21.400000000000002" fill="#34432B"></rect><path d="M44 285.0L59.3 329.9H28.7ZM44 310.7L65.4 355.6H22.6ZM44 336.4L71.5 381.3H16.5Z" fill="#34432B"></path><rect x="76.24" y="373.2" width="7.5200000000000005" height="18.8" fill="#34432B"></rect><path d="M80 298.0L93.4 337.5H66.6ZM80 320.6L98.8 360.0H61.2ZM80 343.1L104.2 382.6H55.8Z" fill="#34432B"></path><rect x="114.76" y="375.8" width="6.48" height="16.2" fill="#34432B"></rect><path d="M118 311.0L129.6 345.0H106.4ZM118 330.4L134.2 364.5H101.8ZM118 349.9L138.8 383.9H97.2Z" fill="#34432B"></path><rect x="145.28" y="368.4" width="9.44" height="23.6" fill="#34432B"></rect><path d="M150 274.0L166.9 323.6H133.1ZM150 302.3L173.6 351.9H126.4ZM150 330.6L180.4 380.2H119.6Z" fill="#34432B"></path><rect x="191.8" y="371" width="8.4" height="21" fill="#34432B"></rect><path d="M196 287.0L211.0 331.1H181.0ZM196 312.2L217.0 356.3H175.0ZM196 337.4L223.0 381.5H169.0Z" fill="#34432B"></path><rect x="232.32" y="373.6" width="7.36" height="18.400000000000002" fill="#34432B"></rect><path d="M236 300.0L249.2 338.6H222.8ZM236 322.1L254.4 360.7H217.6ZM236 344.2L259.7 382.8H212.3Z" fill="#34432B"></path><rect x="272.84" y="376.2" width="6.32" height="15.8" fill="#34432B"></rect><path d="M276 313.0L287.3 346.2H264.7ZM276 332.0L291.8 365.1H260.2ZM276 350.9L296.3 384.1H255.7Z" fill="#34432B"></path><rect x="313.36" y="368.8" width="9.28" height="23.200000000000003" fill="#34432B"></rect><path d="M318 276.0L334.6 324.7H301.4ZM318 303.8L341.2 352.6H294.8ZM318 331.7L347.9 380.4H288.1Z" fill="#34432B"></path><rect x="351.88" y="371.4" width="8.24" height="20.6" fill="#34432B"></rect><path d="M356 289.0L370.7 332.3H341.3ZM356 313.7L376.6 357.0H335.4ZM356 338.4L382.5 381.7H329.5Z" fill="#34432B"></path><rect x="394.4" y="374" width="7.2" height="18" fill="#34432B"></rect><path d="M398 302.0L410.9 339.8H385.1ZM398 323.6L416.0 361.4H380.0ZM398 345.2L421.2 383.0H374.8Z" fill="#34432B"></path><rect x="436.92" y="376.6" width="6.16" height="15.4" fill="#34432B"></rect><path d="M440 315.0L451.0 347.3H429.0ZM440 333.5L455.4 365.8H424.6ZM440 352.0L459.8 384.3H420.2Z" fill="#34432B"></path><rect x="473.44" y="369.2" width="9.120000000000001" height="22.8" fill="#34432B"></rect><path d="M478 278.0L494.3 325.9H461.7ZM478 305.4L500.8 353.2H455.2ZM478 332.7L507.3 380.6H448.7Z" fill="#34432B"></path><rect x="515.96" y="371.8" width="8.08" height="20.200000000000003" fill="#34432B"></rect><path d="M520 291.0L534.4 333.4H505.6ZM520 315.2L540.2 357.7H499.8ZM520 339.5L546.0 381.9H494.0Z" fill="#34432B"></path><rect x="556.48" y="374.4" width="7.04" height="17.6" fill="#34432B"></rect><path d="M560 304.0L572.6 341.0H547.4ZM560 325.1L577.6 362.1H542.4ZM560 346.2L582.7 383.2H537.3Z" fill="#34432B"></path><rect x="597" y="377" width="6" height="15" fill="#34432B"></rect><path d="M600 317.0L610.7 348.5H589.3ZM600 335.0L615.0 366.5H585.0ZM600 353.0L619.3 384.5H580.7Z" fill="#34432B"></path><rect x="635.52" y="369.6" width="8.96" height="22.400000000000002" fill="#34432B"></rect><path d="M640 280.0L656.0 327.0H624.0ZM640 306.9L662.4 353.9H617.6ZM640 333.8L668.8 380.8H611.2Z" fill="#34432B"></path><rect x="672.04" y="372.2" width="7.92" height="19.8" fill="#34432B"></rect><path d="M676 293.0L690.2 334.6H661.8ZM676 316.8L695.8 358.3H656.2ZM676 340.5L701.5 382.1H650.5Z" fill="#34432B"></path><rect x="712.56" y="374.8" width="6.88" height="17.2" fill="#34432B"></rect><path d="M716 306.0L728.3 342.1H703.7ZM716 326.6L733.2 362.8H698.8ZM716 347.3L738.1 383.4H693.9Z" fill="#34432B"></path><rect x="749.08" y="377.4" width="5.84" height="14.600000000000001" fill="#34432B"></rect><path d="M752 319.0L762.4 349.7H741.6ZM752 336.5L766.6 367.2H737.4ZM752 354.0L770.8 384.7H733.2Z" fill="#34432B"></path><rect x="785.6" y="370" width="8.8" height="22" fill="#34432B"></rect><path d="M790 282.0L805.7 328.2H774.3ZM790 308.4L812.0 354.6H768.0ZM790 334.8L818.3 381.0H761.7Z" fill="#34432B"></path><path d="M0 372 C140 330 250 350 360 382 C470 414 600 356 800 364 L800 480 L0 480 Z" fill="#2E3A26"></path><rect x="34" y="374" width="12" height="30" fill="#3A2E20"></rect><path d="M40 254.0L61.5 317.0H18.5ZM40 290.0L70.0 353.0H10.0ZM40 326.0L78.6 389.0H1.4Z" fill="#1F2818"></path><rect x="93.6" y="388" width="8.8" height="22" fill="#3A2E20"></rect><path d="M98 300.0L113.7 346.2H82.3ZM98 326.4L120.0 372.6H76.0ZM98 352.8L126.3 399.0H69.7Z" fill="#1F2818"></path><rect x="717.6" y="368" width="12.8" height="32" fill="#3A2E20"></rect><path d="M724 240.0L746.9 307.2H701.1ZM724 278.4L756.0 345.6H692.0ZM724 316.8L765.2 384.0H682.8Z" fill="#1F2818"></path><rect x="771.84" y="387.2" width="8.32" height="20.8" fill="#3A2E20"></rect><path d="M776 304.0L790.9 347.7H761.1ZM776 329.0L796.8 372.6H755.2ZM776 353.9L802.8 397.6H749.2Z" fill="#1F2818"></path><path d="M0 424 C170 398 300 440 450 430 C590 420 690 396 800 412 L800 480 L0 480 Z" fill="#35432C"></path><g transform="translate(8 480) scale(1.1 1.1)" fill="none" stroke="#5E7A45" stroke-width="2.6" stroke-linecap="round"><path d="M0 0q10-20 30-38"></path><path d="M0.0 0.0q-8.0 -4 -12.0 -10.0M0.0 0.0q8.0 2 13.0 -3.0M6.0 -7.6q-7.4 -4 -10.8 -9.4M6.0 -7.6q7.4 2 11.8 -2.8M12.0 -15.2q-6.8 -4 -9.6 -8.8M12.0 -15.2q6.8 2 10.6 -2.6M18.0 -22.8q-6.2 -4 -8.4 -8.2M18.0 -22.8q6.2 2 9.4 -2.4M24.0 -30.4q-5.6 -4 -7.2 -7.6M24.0 -30.4q5.6 2 8.2 -2.2M30.0 -38.0q-5.0 -4 -6.0 -7.0M30.0 -38.0q5.0 2 7.0 -2.0"></path></g><g transform="translate(262 482) scale(-0.9 0.9)" fill="none" stroke="#5E7A45" stroke-width="2.6" stroke-linecap="round"><path d="M0 0q10-20 30-38"></path><path d="M0.0 0.0q-8.0 -4 -12.0 -10.0M0.0 0.0q8.0 2 13.0 -3.0M6.0 -7.6q-7.4 -4 -10.8 -9.4M6.0 -7.6q7.4 2 11.8 -2.8M12.0 -15.2q-6.8 -4 -9.6 -8.8M12.0 -15.2q6.8 2 10.6 -2.6M18.0 -22.8q-6.2 -4 -8.4 -8.2M18.0 -22.8q6.2 2 9.4 -2.4M24.0 -30.4q-5.6 -4 -7.2 -7.6M24.0 -30.4q5.6 2 8.2 -2.2M30.0 -38.0q-5.0 -4 -6.0 -7.0M30.0 -38.0q5.0 2 7.0 -2.0"></path></g><g transform="translate(792 480) scale(-1.05 1.05)" fill="none" stroke="#5E7A45" stroke-width="2.6" stroke-linecap="round"><path d="M0 0q10-20 30-38"></path><path d="M0.0 0.0q-8.0 -4 -12.0 -10.0M0.0 0.0q8.0 2 13.0 -3.0M6.0 -7.6q-7.4 -4 -10.8 -9.4M6.0 -7.6q7.4 2 11.8 -2.8M12.0 -15.2q-6.8 -4 -9.6 -8.8M12.0 -15.2q6.8 2 10.6 -2.6M18.0 -22.8q-6.2 -4 -8.4 -8.2M18.0 -22.8q6.2 2 9.4 -2.4M24.0 -30.4q-5.6 -4 -7.2 -7.6M24.0 -30.4q5.6 2 8.2 -2.2M30.0 -38.0q-5.0 -4 -6.0 -7.0M30.0 -38.0q5.0 2 7.0 -2.0"></path></g><g transform="translate(560 482) scale(0.85 0.85)" fill="none" stroke="#5E7A45" stroke-width="2.6" stroke-linecap="round"><path d="M0 0q10-20 30-38"></path><path d="M0.0 0.0q-8.0 -4 -12.0 -10.0M0.0 0.0q8.0 2 13.0 -3.0M6.0 -7.6q-7.4 -4 -10.8 -9.4M6.0 -7.6q7.4 2 11.8 -2.8M12.0 -15.2q-6.8 -4 -9.6 -8.8M12.0 -15.2q6.8 2 10.6 -2.6M18.0 -22.8q-6.2 -4 -8.4 -8.2M18.0 -22.8q6.2 2 9.4 -2.4M24.0 -30.4q-5.6 -4 -7.2 -7.6M24.0 -30.4q5.6 2 8.2 -2.2M30.0 -38.0q-5.0 -4 -6.0 -7.0M30.0 -38.0q5.0 2 7.0 -2.0"></path></g><g transform="translate(180 470) scale(1.05)"><rect x="-2.5" y="-20" width="5" height="20" fill="#6A5438"></rect><circle cx="0" cy="-30" r="14" fill="#5E7A45"></circle><circle cx="-9" cy="-24" r="9" fill="#6E8C52"></circle><circle cx="9" cy="-25" r="9" fill="#4F6A3A"></circle></g><g transform="translate(610 468) scale(0.9)"><rect x="-2.5" y="-20" width="5" height="20" fill="#6A5438"></rect><circle cx="0" cy="-30" r="14" fill="#5E7A45"></circle><circle cx="-9" cy="-24" r="9" fill="#6E8C52"></circle><circle cx="9" cy="-25" r="9" fill="#4F6A3A"></circle></g><g transform="translate(120 462) scale(1.05)"><path d="M-6 0v-16a6 6 0 0 1 12 0V0z" fill="#F3EAD3"></path><path d="M-20-14a20 17 0 0 1 40 0q0 3-3 3h-34q-3 0-3-3z" fill="#D9774F"></path><circle cx="-9" cy="-20" r="3" fill="#F3EAD3"></circle><circle cx="5" cy="-24" r="2.4" fill="#F3EAD3"></circle><circle cx="11" cy="-15" r="2" fill="#F3EAD3"></circle><ellipse cx="0" cy="1" rx="12" ry="2.5" fill="#161D12" opacity=".5"></ellipse></g><g transform="translate(146 470) scale(0.7)"><path d="M-6 0v-16a6 6 0 0 1 12 0V0z" fill="#F3EAD3"></path><path d="M-20-14a20 17 0 0 1 40 0q0 3-3 3h-34q-3 0-3-3z" fill="#D9774F"></path><circle cx="-9" cy="-20" r="3" fill="#F3EAD3"></circle><circle cx="5" cy="-24" r="2.4" fill="#F3EAD3"></circle><circle cx="11" cy="-15" r="2" fill="#F3EAD3"></circle><ellipse cx="0" cy="1" rx="12" ry="2.5" fill="#161D12" opacity=".5"></ellipse></g><g transform="translate(226 470) scale(0.9)"><path d="M-5 0v-12a5 5 0 0 1 10 0V0z" fill="#E6DCC2"></path><path d="M-15-11a15 11 0 0 1 30 0z" fill="#9C7B52"></path><ellipse cx="0" cy="1" rx="10" ry="2" fill="#161D12" opacity=".5"></ellipse></g><g transform="translate(676 466) scale(1.1)"><path d="M-6 0v-16a6 6 0 0 1 12 0V0z" fill="#F3EAD3"></path><path d="M-20-14a20 17 0 0 1 40 0q0 3-3 3h-34q-3 0-3-3z" fill="#D9774F"></path><circle cx="-9" cy="-20" r="3" fill="#F3EAD3"></circle><circle cx="5" cy="-24" r="2.4" fill="#F3EAD3"></circle><circle cx="11" cy="-15" r="2" fill="#F3EAD3"></circle><ellipse cx="0" cy="1" rx="12" ry="2.5" fill="#161D12" opacity=".5"></ellipse></g><g transform="translate(650 472) scale(0.75)"><path d="M-5 0v-12a5 5 0 0 1 10 0V0z" fill="#E6DCC2"></path><path d="M-15-11a15 11 0 0 1 30 0z" fill="#9C7B52"></path><ellipse cx="0" cy="1" rx="10" ry="2" fill="#161D12" opacity=".5"></ellipse></g><g transform="translate(748 474) scale(0.65)"><path d="M-6 0v-16a6 6 0 0 1 12 0V0z" fill="#F3EAD3"></path><path d="M-20-14a20 17 0 0 1 40 0q0 3-3 3h-34q-3 0-3-3z" fill="#D9774F"></path><circle cx="-9" cy="-20" r="3" fill="#F3EAD3"></circle><circle cx="5" cy="-24" r="2.4" fill="#F3EAD3"></circle><circle cx="11" cy="-15" r="2" fill="#F3EAD3"></circle><ellipse cx="0" cy="1" rx="12" ry="2.5" fill="#161D12" opacity=".5"></ellipse></g><g transform="translate(62 470) rotate(-20) scale(1)"><ellipse cx="0" cy="3" rx="7" ry="9" fill="#C9965A"></ellipse><path d="M-9-2a9 7 0 0 1 18 0z" fill="#6A5438"></path><path d="M-6-4h12M-4-7h8" stroke="#4E3D28" stroke-width="1.2"></path><path d="M0-8v-4" stroke="#6A5438" stroke-width="2.2" stroke-linecap="round"></path></g><g transform="translate(252 460) rotate(15) scale(0.8)"><ellipse cx="0" cy="3" rx="7" ry="9" fill="#C9965A"></ellipse><path d="M-9-2a9 7 0 0 1 18 0z" fill="#6A5438"></path><path d="M-6-4h12M-4-7h8" stroke="#4E3D28" stroke-width="1.2"></path><path d="M0-8v-4" stroke="#6A5438" stroke-width="2.2" stroke-linecap="round"></path></g><g transform="translate(90 474) scale(0.9)"><circle cx="0" cy="0" r="7" fill="#B07A45"></circle><path d="M-7-1a7 5 0 0 1 14 0" fill="#D9A56A"></path><path d="M-3-6q3-5 6 0" fill="#7E9A5C"></path></g><g transform="translate(584 470) rotate(25) scale(0.9)"><ellipse cx="0" cy="3" rx="7" ry="9" fill="#C9965A"></ellipse><path d="M-9-2a9 7 0 0 1 18 0z" fill="#6A5438"></path><path d="M-6-4h12M-4-7h8" stroke="#4E3D28" stroke-width="1.2"></path><path d="M0-8v-4" stroke="#6A5438" stroke-width="2.2" stroke-linecap="round"></path></g><g transform="translate(712 476) scale(0.85)"><circle cx="0" cy="0" r="7" fill="#B07A45"></circle><path d="M-7-1a7 5 0 0 1 14 0" fill="#D9A56A"></path><path d="M-3-6q3-5 6 0" fill="#7E9A5C"></path></g><g transform="translate(530 474) rotate(-10) scale(0.7)"><ellipse cx="0" cy="3" rx="7" ry="9" fill="#C9965A"></ellipse><path d="M-9-2a9 7 0 0 1 18 0z" fill="#6A5438"></path><path d="M-6-4h12M-4-7h8" stroke="#4E3D28" stroke-width="1.2"></path><path d="M0-8v-4" stroke="#6A5438" stroke-width="2.2" stroke-linecap="round"></path></g></svg>