<svg xmlns="http://www.w3.org/2000/svg" xmlns:c2pa="http://c2pa.org/manifest" viewBox="0 0 800 480" width="800" height="480"><metadata><c2pa:manifest>AAAWgmp1bWIAAAAeanVtZGMycGEAEQAQgAAAqgA4m3EDYzJwYQAAABZcanVtYgAAAEdqdW1kYzJtYQARABCAAACqADibcQN1cm46YzJwYTowNTk4ZmJlNy0yMDc2LTQwZDQtODhhOC1hMjg2M2I2OGFlZGIAAAADl2p1bWIAAAApanVtZGMyYXMAEQAQgAAAqgA4m3EDYzJwYS5hc3NlcnRpb25zAAAAALxqdW1iAAAARGp1bWRjYm9yABEAEIAAAKoAOJtxE2MycGEuaW5ncmVkaWVudC52MwAAAAAYYzJzaG0o9pGLD64nCBUervTDHqAAAABwY2JvcqNpZGM6Zm9ybWF0bWltYWdlL3N2Zyt4bWxqaW5zdGFuY2VJRHgseG1wOmlpZDo5MDYwNDkyOS02NTAxLTQzNjMtYWVmOC1hYTMxYmJkMmFjZjJscmVsYXRpb25zaGlwaHBhcmVudE9mAAAB4mp1bWIAAABBanVtZGNib3IAEQAQgAAAqgA4m3ETYzJwYS5hY3Rpb25zLnYyAAAAABhjMnNor9oBfQ+VIjPyLxORN2x2mQAAAZljYm9yomdhY3Rpb25zgqJmYWN0aW9ua2MycGEub3BlbmVkanBhcmFtZXRlcnOha2luZ3JlZGllbnRzgaJjdXJseC1zZWxmI2p1bWJmPWMycGEuYXNzZXJ0aW9ucy9jMnBhLmluZ3JlZGllbnQudjNkaGFzaFggV9LaMtHmAtXBjc88VOjclpsU9JS4JAhCklgHL62phJSkZmFjdGlvbngdY29tLmFudGhyb3BpYy5jbGF1ZGUucHJvdmlkZWRqcGFyYW1ldGVyc6F4H2NvbS5hbnRocm9waWMub3JpZ2luLWNvbmZpZGVuY2VndW5rbm93bmtkZXNjcmlwdGlvbnhmQ2xhdWRlIHByb3ZpZGVkIHRoaXMgZmlsZSBhdCB0aGUgcmVxdWVzdCBvZiBhIHVzZXIgYW5kIG1heSBoYXZlIGNyZWF0ZWQgb3IgbW9kaWZpZWQgdGhlIGZpbGUgY29udGVudHMubXNvZnR3YXJlQWdlbnShZG5hbWVmQ2xhdWRlcmFsbEFjdGlvbnNJbmNsdWRlZPUAAADIanVtYgAAAEBqdW1kY2JvcgARABCAAACqADibcRNjMnBhLmhhc2guZGF0YQAAAAAYYzJzaH5gkg90qRpnZSEVsYYdkXsAAACAY2JvcqVjYWxnZnNoYTI1NmNwYWRNAAAAAAAAAAAAAAAAAGRoYXNoWCCM5+QtWxRDrJ+Lr5WKQlb/ZXyex9nsvk6mhPGRJBZKZGRuYW1lbmp1bWJmIG1hbmlmZXN0amV4Y2x1c2lvbnOBomVzdGFydBiWZmxlbmd0aBkeBAAAAj5qdW1iAAAAJ2p1bWRjMmNsABEAEIAAAKoAOJtxA2MycGEuY2xhaW0udjIAAAACD2Nib3KlY2FsZ2ZzaGEyNTZpc2lnbmF0dXJleE1zZWxmI2p1bWJmPS9jMnBhL3VybjpjMnBhOjA1OThmYmU3LTIwNzYtNDBkNC04OGE4LWEyODYzYjY4YWVkYi9jMnBhLnNpZ25hdHVyZWppbnN0YW5jZUlEeCx4bXA6aWlkOmY1NWJiMWUwLTVjYjQtNGYzZS1hYTQzLWM5ZDUxN2Q4OTBhMnJjcmVhdGVkX2Fzc2VydGlvbnODomN1cmx4LXNlbGYjanVtYmY9YzJwYS5hc3NlcnRpb25zL2MycGEuaW5ncmVkaWVudC52M2RoYXNoWCBX0toy0eYC1cGNzzxU6NyWmxT0lLgkCEKSWAcvramElKJjdXJseCpzZWxmI2p1bWJmPWMycGEuYXNzZXJ0aW9ucy9jMnBhLmFjdGlvbnMudjJkaGFzaFggApJu1qIFmEbYJ/3jZEqXHvWatkEmove3Afozu9KpZlmiY3VybHgpc2VsZiNqdW1iZj1jMnBhLmFzc2VydGlvbnMvYzJwYS5oYXNoLmRhdGFkaGFzaFggX/1jBtSlwF7hqUHH6H1FtU9P9wRMnwZW6SAAbI0SacJ0Y2xhaW1fZ2VuZXJhdG9yX2luZm+jZG5hbWVvQW50aHJvcGljIEZpbGVzZ3ZlcnNpb25lMS4wLjBrc3BlY1ZlcnNpb25lMi40LjAAABA4anVtYgAAAChqdW1kYzJjcwARABCAAACqADibcQNjMnBhLnNpZ25hdHVyZQAAABAIY2JvctKEWQISogEmGCFZAgowggIGMIIBjaADAgECAhRA5aAK7sI50L64g/oGQgU9Z1UTADAKBggqhkjOPQQDAzBJMRcwFQYDVQQKEw5BbnRocm9waWMsIFBCQzEuMCwGA1UEAxMlQW50aHJvcGljIENvbnRlbnQgQ3JlZGVudGlhbHMgUm9vdCBDQTAeFw0yNjA4MDcxODQzNTZaFw0yODA4MDYxOTQzNTZaMEQxFzAVBgNVBAoTDkFudGhyb3BpYywgUEJDMSkwJwYDVQQDEyBBbnRocm9waWMgQ2xhdWRlIENvbnRlbnQgU2lnbmluZzBZMBMGByqGSM49AgEGCCqGSM49AwEHA0IABJh6CmvLUBgFFNU0vUKlOVtE6djd17L5SuwX0LemFisBM3dkd/3cyjxFA3Qo5S46fX0/ihY0VZ7mfb9KF703t5OjWDBWMA4GA1UdDwEB/wQEAwIHgDAVBgNVHSUEDjAMBgorBgEEAYPoXgIBMAwGA1UdEwEB/wQCMAAwHwYDVR0jBBgwFoAUzlHiBIFOZFsj+OPEz5o+nMHXXMIwCgYIKoZIzj0EAwMDZwAwZAIwMXMdFJ4BetLLVY7ORuE9noqbbAZOZn/aArXyTwFAZfKrPzxF2vPoJNf1+UCdg1XGAjBwX1zd9WGqYkqmL5SFqw1QySjr1zJfpJM9+1rdDwSPLMOPOjKuiXjoU/pUUeG9RwmhY3BhZFkNngAAAAAAAAAAAAAAAAAAAAAAAAAAAAAAAAAAAAAAAAAAAAAAAAAAAAAAAAAAAAAAAAAAAAAAAAAAAAAAAAAAAAAAAAAAAAAAAAAAAAAAAAAAAAAAAAAAAAAAAAAAAAAAAAAAAAAAAAAAAAAAAAAAAAAAAAAAAAAAAAAAAAAAAAAAAAAAAAAAAAAAAAAAAAAAAAAAAAAAAAAAAAAAAAAAAAAAAAAAAAAAAAAAAAAAAAAAAAAAAAAAAAAAAAAAAAAAAAAAAAAAAAAAAAAAAAAAAAAAAAAAAAAAAAAAAAAAAAAAAAAAAAAAAAAAAAAAAAAAAAAAAAAAAAAAAAAAAAAAAAAAAAAAAAAAAAAAAAAAAAAAAAAAAAAAAAAAAAAAAAAAAAAAAAAAAAAAAAAAAAAAAAAAAAAAAAAAAAAAAAAAAAAAAAAAAAAAAAAAAAAAAAAAAAAAAAAAAAAAAAAAAAAAAAAAAAAAAAAAAAAAAAAAAAAAAAAAAAAAAAAAAAAAAAAAAAAAAAAAAAAAAAAAAAAAAAAAAAAAAAAAAAAAAAAAAAAAAAAAAAAAAAAAAAAAAAAAAAAAAAAAAAAAAAAAAAAAAAAAAAAAAAAAAAAAAAAAAAAAAAAAAAAAAAAAAAAAAAAAAAAAAAAAAAAAAAAAAAAAAAAAAAAAAAAAAAAAAAAAAAAAAAAAAAAAAAAAAAAAAAAAAAAAAAAAAAAAAAAAAAAAAAAAAAAAAAAAAAAAAAAAAAAAAAAAAAAAAAAAAAAAAAAAAAAAAAAAAAAAAAAAAAAAAAAAAAAAAAAAAAAAAAAAAAAAAAAAAAAAAAAAAAAAAAAAAAAAAAAAAAAAAAAAAAAAAAAAAAAAAAAAAAAAAAAAAAAAAAAAAAAAAAAAAAAAAAAAAAAAAAAAAAAAAAAAAAAAAAAAAAAAAAAAAAAAAAAAAAAAAAAAAAAAAAAAAAAAAAAAAAAAAAAAAAAAAAAAAAAAAAAAAAAAAAAAAAAAAAAAAAAAAAAAAAAAAAAAAAAAAAAAAAAAAAAAAAAAAAAAAAAAAAAAAAAAAAAAAAAAAAAAAAAAAAAAAAAAAAAAAAAAAAAAAAAAAAAAAAAAAAAAAAAAAAAAAAAAAAAAAAAAAAAAAAAAAAAAAAAAAAAAAAAAAAAAAAAAAAAAAAAAAAAAAAAAAAAAAAAAAAAAAAAAAAAAAAAAAAAAAAAAAAAAAAAAAAAAAAAAAAAAAAAAAAAAAAAAAAAAAAAAAAAAAAAAAAAAAAAAAAAAAAAAAAAAAAAAAAAAAAAAAAAAAAAAAAAAAAAAAAAAAAAAAAAAAAAAAAAAAAAAAAAAAAAAAAAAAAAAAAAAAAAAAAAAAAAAAAAAAAAAAAAAAAAAAAAAAAAAAAAAAAAAAAAAAAAAAAAAAAAAAAAAAAAAAAAAAAAAAAAAAAAAAAAAAAAAAAAAAAAAAAAAAAAAAAAAAAAAAAAAAAAAAAAAAAAAAAAAAAAAAAAAAAAAAAAAAAAAAAAAAAAAAAAAAAAAAAAAAAAAAAAAAAAAAAAAAAAAAAAAAAAAAAAAAAAAAAAAAAAAAAAAAAAAAAAAAAAAAAAAAAAAAAAAAAAAAAAAAAAAAAAAAAAAAAAAAAAAAAAAAAAAAAAAAAAAAAAAAAAAAAAAAAAAAAAAAAAAAAAAAAAAAAAAAAAAAAAAAAAAAAAAAAAAAAAAAAAAAAAAAAAAAAAAAAAAAAAAAAAAAAAAAAAAAAAAAAAAAAAAAAAAAAAAAAAAAAAAAAAAAAAAAAAAAAAAAAAAAAAAAAAAAAAAAAAAAAAAAAAAAAAAAAAAAAAAAAAAAAAAAAAAAAAAAAAAAAAAAAAAAAAAAAAAAAAAAAAAAAAAAAAAAAAAAAAAAAAAAAAAAAAAAAAAAAAAAAAAAAAAAAAAAAAAAAAAAAAAAAAAAAAAAAAAAAAAAAAAAAAAAAAAAAAAAAAAAAAAAAAAAAAAAAAAAAAAAAAAAAAAAAAAAAAAAAAAAAAAAAAAAAAAAAAAAAAAAAAAAAAAAAAAAAAAAAAAAAAAAAAAAAAAAAAAAAAAAAAAAAAAAAAAAAAAAAAAAAAAAAAAAAAAAAAAAAAAAAAAAAAAAAAAAAAAAAAAAAAAAAAAAAAAAAAAAAAAAAAAAAAAAAAAAAAAAAAAAAAAAAAAAAAAAAAAAAAAAAAAAAAAAAAAAAAAAAAAAAAAAAAAAAAAAAAAAAAAAAAAAAAAAAAAAAAAAAAAAAAAAAAAAAAAAAAAAAAAAAAAAAAAAAAAAAAAAAAAAAAAAAAAAAAAAAAAAAAAAAAAAAAAAAAAAAAAAAAAAAAAAAAAAAAAAAAAAAAAAAAAAAAAAAAAAAAAAAAAAAAAAAAAAAAAAAAAAAAAAAAAAAAAAAAAAAAAAAAAAAAAAAAAAAAAAAAAAAAAAAAAAAAAAAAAAAAAAAAAAAAAAAAAAAAAAAAAAAAAAAAAAAAAAAAAAAAAAAAAAAAAAAAAAAAAAAAAAAAAAAAAAAAAAAAAAAAAAAAAAAAAAAAAAAAAAAAAAAAAAAAAAAAAAAAAAAAAAAAAAAAAAAAAAAAAAAAAAAAAAAAAAAAAAAAAAAAAAAAAAAAAAAAAAAAAAAAAAAAAAAAAAAAAAAAAAAAAAAAAAAAAAAAAAAAAAAAAAAAAAAAAAAAAAAAAAAAAAAAAAAAAAAAAAAAAAAAAAAAAAAAAAAAAAAAAAAAAAAAAAAAAAAAAAAAAAAAAAAAAAAAAAAAAAAAAAAAAAAAAAAAAAAAAAAAAAAAAAAAAAAAAAAAAAAAAAAAAAAAAAAAAAAAAAAAAAAAAAAAAAAAAAAAAAAAAAAAAAAAAAAAAAAAAAAAAAAAAAAAAAAAAAAAAAAAAAAAAAAAAAAAAAAAAAAAAAAAAAAAAAAAAAAAAAAAAAAAAAAAAAAAAAAAAAAAAAAAAAAAAAAAAAAAAAAAAAAAAAAAAAAAAAAAAAAAAAAAAAAAAAAAAAAAAAAAAAAAAAAAAAAAAAAAAAAAAAAAAAAAAAAAAAAAAAAAAAAAAAAAAAAAAAAAAAAAAAAAAAAAAAAAAAAAAAAAAAAAAAAAAAAAAAAAAAAAAAAAAAAAAAAAAAAAAAAAAAAAAAAAAAAAAAAAAAAAAAAAAAAAAAAAAAAAAAAAAAAAAAAAAAAAAAAAAAAAAAAAAAAAAAAAAAAAAAAAAAAAAAAAAAAAAAAAAAAAAAAAAAAAAAAAAAAAAAAAAAAAAAAAAAAAAAAAAAAAAAAAAAAAAAAAAAAAAAAAAAAAAAAAAAAAAAAAAAAAAAAAAAAAAAAAAAAAAAAAAAAAAAAAAAAAAAAAAAAAAAAAAAAAAAAAAAAAAAAAAAAAAAAAAAAAAAAAAAAAAAAAAAAAAAAAAAAAAAAAAAAAAAAAAAAAAAAAAAAAAAAAAAAAAAAAAAAAAAAAAAAAAAAAAAAAAAAAAAAAAAAAAAAAAAAAAAAAAAAAAAAAAAAAAAAAAAAAAAAAAAAAAAAAAAAAAAAAAAAAAAAAAAAAAAAAAAAAAAAAAAAAAAAAAAAAAAAAAAAAAAAAAAAAAAAAAAAAAAAAAAAAAAAAAAAAAAAAAAAAAAAAAAAAAAAAAAAAAAAAAAAAAAAAAAAAAAAAAAAAAAAAAAAAAAAAAAAAAAAAAAAAAAAAAAAAAAAAAAAAAAAAAAAAAAAAAAAAAAAAAAAAAAAAAAAAAAAAAAAAAAAAAAAAAAAAAAAAAAAAAAAAAAAAAAAAAAAAAAAAAAAAAAAAAAAAAAAAAAAAAAAAAAAAAAAAAAAAAAAAAAAAAAAAAAAAAAAAAAAAAAAAAAAAAAAAAAAAAAAAAAAAAAAAAAAAAAAAAAAAAAAAAAAAAAAAAAAAAAAAAAAAAAAAAAAAAAAAAAAAAAAAAAAAAAAAAAAAAAAAAAAAAAAAAAAAAAAAAAAAAAAAAAAAAAAAAAAAAAAAAAAAAAAAAAAAAAAAAAAAAAAAAAAAAAAAAAAAAAAAAAAAAAAAAAAAAAAAAAAAAAAAAAAAAAAAAAAAAAAAAAAAAAAAAAAAAAAAAAAAAAAAAAAAAAAAAAAAAAAAAAAAAAAAAAAAAAAAAAAAAAAAAAAAAAAAAAAAAAAAAAAAAAAAAAAAAAAAAAAAAAAAAAAAAAAAAAAAAAAAAAAAAAAAAAAAAAAAAAAAAAAAAAAAAAAAAAAAAAAAAAAAAAAAAAAAAAAAAAAAAAAAAAAAAAAAAAAAAAAAAAAAAAAAAAAAAAAAAAAAAAAAAAAAAAAAAAAAAAAAAAAAAAAAAAAAAAAAAAAAAAAAAAAAAAAAAAAAAAAAAAAAAAAAAAAAAAAAAAAAAAAAAAAAAAAAAAAAAAAAAAAAAAAAAAAAAAAAAAAAAAAAAAAAAAAAAAAAAAAAAAAAAAAAAAAAAAAAAAAAAAAAAAAAAAAAAAAAAAAAAAAAAAAAAAAAAAAAAAAAAAAAAAAAAAAAAAAAAAAAAAAAAAAAAAAAAAAAAAAAAAAAAAAAAAAAAAAAAAAAAAAAAAAAAAAAAAAAAAAAAAAAAAAAAAAAAAAAAAAAAAAAAAAAAAAAAAAAAAAAAAAAAAAAAAAAAAAAAAAAAAAAAAAAAAAAAAAAAAAAAAAAAAAAAAAAAAAAAAAAAAAAAAAAAAAAAAAAAAAAAAPZYQD/S9gj8liEo1u8CwrM5QZEwJKVkIuD7kJaiOJ/J+82ez7xHux+6epntYj6VfWgqfFk45fDiHcMg9s4jmoxgY5s=</c2pa:manifest></metadata><rect width="800" height="480" fill="#F7D9A8"></rect><path d="M400 520L-800 520.0000000000001L-795.4336377100947 415.41310870281046Z" fill="#F2A93B" opacity=".5"></path><path d="M400 520L-781.7693036146497 311.62218679968396L-759.1109915468821 209.41714587697555Z" fill="#F2A93B" opacity=".5"></path><path d="M400 520L-727.63114494309 109.57582800919761L-687.5693444439801 12.858085911160856Z" fill="#F2A93B" opacity=".5"></path><path d="M400 520L-639.2304845413266 -79.99999999999966L-582.9824531467905 -168.29172362125496Z" fill="#F2A93B" opacity=".5"></path><path d="M400 520L-519.2533317427736 -251.34513162384712L-448.5281374238572 -328.52813742385695Z" fill="#F2A93B" opacity=".5"></path><path d="M400 520L-371.34513162384735 -399.2533317427735L-288.29172362125564 -462.9824531467899Z" fill="#F2A93B" opacity=".5"></path><path d="M400 520L-200.00000000000057 -519.230484541326L-107.14191408883994 -567.5693444439796Z" fill="#F2A93B" opacity=".5"></path><path d="M400 520L-10.424171990802279 -607.63114494309L89.41714587697527 -639.1109915468819Z" fill="#F2A93B" opacity=".5"></path><path d="M400 520L191.6221867996836 -661.7693036146495L295.4131087028101 -675.4336377100947Z" fill="#F2A93B" opacity=".5"></path><path d="M400 520L399.9999999999998 -680L504.5868912971895 -675.4336377100947Z" fill="#F2A93B" opacity=".5"></path><path d="M400 520L608.3778132003159 -661.7693036146497L710.5828541230244 -639.1109915468821Z" fill="#F2A93B" opacity=".5"></path><path d="M400 520L810.4241719908018 -607.6311449430902L907.1419140888386 -567.5693444439803Z" fill="#F2A93B" opacity=".5"></path><path d="M400 520L999.9999999999992 -519.2304845413269L1088.2917236212545 -462.9824531467908Z" fill="#F2A93B" opacity=".5"></path><path d="M400 520L1171.345131623847 -399.25333174277375L1248.5281374238568 -328.5281374238572Z" fill="#F2A93B" opacity=".5"></path><path d="M400 520L1319.2533317427733 -251.34513162384746L1382.9824531467898 -168.29172362125576Z" fill="#F2A93B" opacity=".5"></path><path d="M400 520L1439.230484541326 -80.00000000000057L1487.5693444439796 12.858085911160003Z" fill="#F2A93B" opacity=".5"></path><path d="M400 520L1527.63114494309 109.57582800919766L1559.110991546882 209.41714587697516Z" fill="#F2A93B" opacity=".5"></path><path d="M400 520L1581.7693036146495 311.6221867996835L1595.4336377100947 415.41310870281Z" fill="#F2A93B" opacity=".5"></path>
<g transform="translate(0 0)"><path d="M-20 360C200 330 600 330 820 360V480H-20z" fill="#E0344E"></path><path d="M-20 382C200 352 600 352 820 382V480H-20z" fill="#F47B3B"></path><path d="M-20 404C200 374 600 374 820 404V480H-20z" fill="#F2A93B"></path><path d="M-20 426C200 396 600 396 820 426V480H-20z" fill="#6BA88A"></path></g>
<g transform="translate(470 196)"><rect x="0" y="0" width="280" height="172" rx="22" fill="#5A3A2A"></rect><rect x="10" y="10" width="260" height="152" rx="16" fill="#F4E4C8"></rect><rect x="30" y="26" width="220" height="30" rx="6" fill="#E0344E"></rect><rect x="30" y="56" width="220" height="10" fill="#F47B3B"></rect><rect x="30" y="66" width="220" height="10" fill="#F2A93B"></rect>
<rect x="60" y="86" width="160" height="56" rx="28" fill="#5A3A2A"></rect><circle cx="96" cy="114" r="20" fill="#F4E4C8"></circle><circle cx="184" cy="114" r="20" fill="#F4E4C8"></circle><rect x="94" y="98" width="4" height="10" fill="#5A3A2A" transform="rotate(0 96 114)"></rect><rect x="182" y="98" width="4" height="10" fill="#5A3A2A" transform="rotate(0 184 114)"></rect><rect x="94" y="98" width="4" height="10" fill="#5A3A2A" transform="rotate(60 96 114)"></rect><rect x="182" y="98" width="4" height="10" fill="#5A3A2A" transform="rotate(60 184 114)"></rect><rect x="94" y="98" width="4" height="10" fill="#5A3A2A" transform="rotate(120 96 114)"></rect><rect x="182" y="98" width="4" height="10" fill="#5A3A2A" transform="rotate(120 184 114)"></rect><rect x="118" y="104" width="44" height="20" rx="4" fill="#3A2418"></rect><path d="M84 162l20-14h72l20 14" fill="#5A3A2A"></path></g>
<rect width="800" height="480" fill="#141A40" opacity=".42"></rect><circle cx="60" cy="40" r="1.6" fill="#FFE3A3"></circle><circle cx="150" cy="90" r="2.4000000000000004" fill="#FFE3A3"></circle><circle cx="230" cy="30" r="3.2" fill="#FFE3A3"></circle><circle cx="700" cy="40" r="1.6" fill="#FFE3A3"></circle><circle cx="760" cy="110" r="2.4000000000000004" fill="#FFE3A3"></circle><circle cx="620" cy="20" r="3.2" fill="#FFE3A3"></circle><circle cx="400" cy="24" r="1.6" fill="#FFE3A3"></circle><g transform="translate(300 268) scale(1.25)"><ellipse cx="0" cy="112" rx="78" ry="10" fill="#B8452A55"></ellipse>
<path d="M-56 50C-84 50-104 62-98 76C-90 86-66 78-54 66Z" fill="#FFFFFF"></path>
<path d="M-20 76L-22 104" stroke="#FFFFFF" stroke-width="15" stroke-linecap="round" fill="none"></path><path d="M20 76L22 104" stroke="#FFFFFF" stroke-width="15" stroke-linecap="round" fill="none"></path><g transform="translate(-24 108)"><circle cx="-12" cy="-4" r="5" fill="#FFFFFF"></circle><circle cx="-12" cy="4" r="5" fill="#FFFFFF"></circle><circle cx="12" cy="-4" r="5" fill="#FFFFFF"></circle><circle cx="12" cy="4" r="5" fill="#FFFFFF"></circle><rect x="-12" y="-4" width="24" height="8" fill="#FFFFFF"></rect></g><g transform="translate(24 108)"><circle cx="-12" cy="-4" r="5" fill="#FFFFFF"></circle><circle cx="-12" cy="4" r="5" fill="#FFFFFF"></circle><circle cx="12" cy="-4" r="5" fill="#FFFFFF"></circle><circle cx="12" cy="4" r="5" fill="#FFFFFF"></circle><rect x="-12" y="-4" width="24" height="8" fill="#FFFFFF"></rect></g><path d="M0-88C44-88 64-24 64 18C64 66 36 86 0 86C-36 86-64 66-64 18C-64-24-44-88 0-88Z" fill="#FFFFFF"></path>
<path d="M-44-20C-56 16-50 58-20 80C-44 72-60 50-60 18C-60 0-54-12-44-20Z" fill="#EAD9C0" opacity="1"></path>

<path d="M-54 8L-84 -24" stroke="#FFFFFF" stroke-width="16" stroke-linecap="round" fill="none"></path><path d="M54 8L84 -24" stroke="#FFFFFF" stroke-width="16" stroke-linecap="round" fill="none"></path><path d="M-24-22q8 7 16 0M8-22q8 7 16 0" fill="none" stroke="#4A1838" stroke-width="4" stroke-linecap="round"></path><ellipse cx="0" cy="-2" rx="6" ry="7" fill="#4A1838"></ellipse><path d="M-122 -150h14l-14 14h14" fill="none" stroke="#4A1838" stroke-width="7.760000000000001" stroke-linecap="round" stroke-linejoin="round"></path><path d="M-122 -150h14l-14 14h14" fill="none" stroke="#FFF4E6" stroke-width="4.760000000000001" stroke-linecap="round" stroke-linejoin="round"></path><path d="M-104 -122h11l-11 11h11" fill="none" stroke="#4A1838" stroke-width="6.74" stroke-linecap="round" stroke-linejoin="round"></path><path d="M-104 -122h11l-11 11h11" fill="none" stroke="#FFF4E6" stroke-width="3.74" stroke-linecap="round" stroke-linejoin="round"></path><path d="M-86 -98h8l-8 8h8" fill="none" stroke="#4A1838" stroke-width="5.720000000000001" stroke-linecap="round" stroke-linejoin="round"></path><path d="M-86 -98h8l-8 8h8" fill="none" stroke="#FFF4E6" stroke-width="2.72" stroke-linecap="round" stroke-linejoin="round"></path><circle cx="-30" cy="-8" r="6.5" fill="#FFB3C6" opacity=".85"></circle><circle cx="30" cy="-8" r="6.5" fill="#FFB3C6" opacity=".85"></circle>
<path d="M-46-40C-48-104 48-104 46-40" fill="none" stroke="#B8203E" stroke-width="6" stroke-linecap="round"></path>
<rect x="-66" y="-58" width="28" height="44" rx="14" fill="#E0344E"></rect><rect x="-59" y="-50" width="12" height="26" rx="6" fill="#F47B3B"></rect>
<rect x="38" y="-58" width="28" height="44" rx="14" fill="#E0344E"></rect><rect x="47" y="-50" width="12" height="26" rx="6" fill="#F47B3B"></rect>
</g>
<g transform="translate(440 180) rotate(10) scale(1.1)" fill="#5A3A2A"><ellipse cx="0" cy="0" rx="7" ry="5.4" transform="rotate(-20)"></ellipse><rect x="5" y="-28" width="3" height="28"></rect><path d="M8-28q13 6 8 18q-2-7-8-9z"></path></g><g transform="translate(180 160) rotate(-12) scale(1)" fill="#5A3A2A"><ellipse cx="0" cy="0" rx="7" ry="5.4" transform="rotate(-20)"></ellipse><rect x="5" y="-28" width="3" height="28"></rect><path d="M8-28q13 6 8 18q-2-7-8-9z"></path></g></svg>