<svg xmlns="http://www.w3.org/2000/svg" viewBox="0 0 800 480" width="800" height="480" xmlns:c2pa="http://c2pa.org/manifest"><metadata><c2pa:manifest>AAAWgmp1bWIAAAAeanVtZGMycGEAEQAQgAAAqgA4m3EDYzJwYQAAABZcanVtYgAAAEdqdW1kYzJtYQARABCAAACqADibcQN1cm46YzJwYTo5Yzc0NmVkMC05MGU3LTRkOTAtODE0Yy0xNDcxZDQ5ZGZmZTYAAAADl2p1bWIAAAApanVtZGMyYXMAEQAQgAAAqgA4m3EDYzJwYS5hc3NlcnRpb25zAAAAALxqdW1iAAAARGp1bWRjYm9yABEAEIAAAKoAOJtxE2MycGEuaW5ncmVkaWVudC52MwAAAAAYYzJzaOop+SEbx0JL1gwDVRlw/A4AAABwY2JvcqNpZGM6Zm9ybWF0bWltYWdlL3N2Zyt4bWxqaW5zdGFuY2VJRHgseG1wOmlpZDowNWNjYjNmZS0yODNlLTRmMGEtOGYxNC0wYzVmYmFmY2U5MmFscmVsYXRpb25zaGlwaHBhcmVudE9mAAAB4mp1bWIAAABBanVtZGNib3IAEQAQgAAAqgA4m3ETYzJwYS5hY3Rpb25zLnYyAAAAABhjMnNosZ7CDsbW/sNLBN97NOLm6QAAAZljYm9yomdhY3Rpb25zgqJmYWN0aW9ua2MycGEub3BlbmVkanBhcmFtZXRlcnOha2luZ3JlZGllbnRzgaJjdXJseC1zZWxmI2p1bWJmPWMycGEuYXNzZXJ0aW9ucy9jMnBhLmluZ3JlZGllbnQudjNkaGFzaFggwiIi9o6IG6nOAFBimikzRFohwouppFm0Syl/lSOVSc+kZmFjdGlvbngdY29tLmFudGhyb3BpYy5jbGF1ZGUucHJvdmlkZWRqcGFyYW1ldGVyc6F4H2NvbS5hbnRocm9waWMub3JpZ2luLWNvbmZpZGVuY2VndW5rbm93bmtkZXNjcmlwdGlvbnhmQ2xhdWRlIHByb3ZpZGVkIHRoaXMgZmlsZSBhdCB0aGUgcmVxdWVzdCBvZiBhIHVzZXIgYW5kIG1heSBoYXZlIGNyZWF0ZWQgb3IgbW9kaWZpZWQgdGhlIGZpbGUgY29udGVudHMubXNvZnR3YXJlQWdlbnShZG5hbWVmQ2xhdWRlcmFsbEFjdGlvbnNJbmNsdWRlZPUAAADIanVtYgAAAEBqdW1kY2JvcgARABCAAACqADibcRNjMnBhLmhhc2guZGF0YQAAAAAYYzJzaFYCWbCrmo254LcUBAaiBjAAAACAY2JvcqVjYWxnZnNoYTI1NmNwYWRNAAAAAAAAAAAAAAAAAGRoYXNoWCCeCjyATa84/ycWNLSkpPx96ixaO4+Kc5ns3E0b5HwRqWRuYW1lbmp1bWJmIG1hbmlmZXN0amV4Y2x1c2lvbnOBomVzdGFydBiWZmxlbmd0aBkeBAAAAj5qdW1iAAAAJ2p1bWRjMmNsABEAEIAAAKoAOJtxA2MycGEuY2xhaW0udjIAAAACD2Nib3KlY2FsZ2ZzaGEyNTZpc2lnbmF0dXJleE1zZWxmI2p1bWJmPS9jMnBhL3VybjpjMnBhOjljNzQ2ZWQwLTkwZTctNGQ5MC04MTRjLTE0NzFkNDlkZmZlNi9jMnBhLnNpZ25hdHVyZWppbnN0YW5jZUlEeCx4bXA6aWlkOjY3OTM1MTk2LWI4NWYtNGU3Ny1iNjJkLWJmOTczOGJhYzA0OXJjcmVhdGVkX2Fzc2VydGlvbnODomN1cmx4LXNlbGYjanVtYmY9YzJwYS5hc3NlcnRpb25zL2MycGEuaW5ncmVkaWVudC52M2RoYXNoWCDCIiL2jogbqc4AUGKaKTNEWiHCi6mkWbRLKX+VI5VJz6JjdXJseCpzZWxmI2p1bWJmPWMycGEuYXNzZXJ0aW9ucy9jMnBhLmFjdGlvbnMudjJkaGFzaFggFbggV3hkvE+7+K4NhLhMX4CfzKj2YaZ0TPqKVYLXNpyiY3VybHgpc2VsZiNqdW1iZj1jMnBhLmFzc2VydGlvbnMvYzJwYS5oYXNoLmRhdGFkaGFzaFggDNnjr6H+QywrKfxTbMjfyNVj9iFiaaTGtDt4kJmuuR10Y2xhaW1fZ2VuZXJhdG9yX2luZm+jZG5hbWVvQW50aHJvcGljIEZpbGVzZ3ZlcnNpb25lMS4wLjBrc3BlY1ZlcnNpb25lMi40LjAAABA4anVtYgAAAChqdW1kYzJjcwARABCAAACqADibcQNjMnBhLnNpZ25hdHVyZQAAABAIY2JvctKEWQISogEmGCFZAgowggIGMIIBjaADAgECAhRA5aAK7sI50L64g/oGQgU9Z1UTADAKBggqhkjOPQQDAzBJMRcwFQYDVQQKEw5BbnRocm9waWMsIFBCQzEuMCwGA1UEAxMlQW50aHJvcGljIENvbnRlbnQgQ3JlZGVudGlhbHMgUm9vdCBDQTAeFw0yNjA4MDcxODQzNTZaFw0yODA4MDYxOTQzNTZaMEQxFzAVBgNVBAoTDkFudGhyb3BpYywgUEJDMSkwJwYDVQQDEyBBbnRocm9waWMgQ2xhdWRlIENvbnRlbnQgU2lnbmluZzBZMBMGByqGSM49AgEGCCqGSM49AwEHA0IABJh6CmvLUBgFFNU0vUKlOVtE6djd17L5SuwX0LemFisBM3dkd/3cyjxFA3Qo5S46fX0/ihY0VZ7mfb9KF703t5OjWDBWMA4GA1UdDwEB/wQEAwIHgDAVBgNVHSUEDjAMBgorBgEEAYPoXgIBMAwGA1UdEwEB/wQCMAAwHwYDVR0jBBgwFoAUzlHiBIFOZFsj+OPEz5o+nMHXXMIwCgYIKoZIzj0EAwMDZwAwZAIwMXMdFJ4BetLLVY7ORuE9noqbbAZOZn/aArXyTwFAZfKrPzxF2vPoJNf1+UCdg1XGAjBwX1zd9WGqYkqmL5SFqw1QySjr1zJfpJM9+1rdDwSPLMOPOjKuiXjoU/pUUeG9RwmhY3BhZFkNngAAAAAAAAAAAAAAAAAAAAAAAAAAAAAAAAAAAAAAAAAAAAAAAAAAAAAAAAAAAAAAAAAAAAAAAAAAAAAAAAAAAAAAAAAAAAAAAAAAAAAAAAAAAAAAAAAAAAAAAAAAAAAAAAAAAAAAAAAAAAAAAAAAAAAAAAAAAAAAAAAAAAAAAAAAAAAAAAAAAAAAAAAAAAAAAAAAAAAAAAAAAAAAAAAAAAAAAAAAAAAAAAAAAAAAAAAAAAAAAAAAAAAAAAAAAAAAAAAAAAAAAAAAAAAAAAAAAAAAAAAAAAAAAAAAAAAAAAAAAAAAAAAAAAAAAAAAAAAAAAAAAAAAAAAAAAAAAAAAAAAAAAAAAAAAAAAAAAAAAAAAAAAAAAAAAAAAAAAAAAAAAAAAAAAAAAAAAAAAAAAAAAAAAAAAAAAAAAAAAAAAAAAAAAAAAAAAAAAAAAAAAAAAAAAAAAAAAAAAAAAAAAAAAAAAAAAAAAAAAAAAAAAAAAAAAAAAAAAAAAAAAAAAAAAAAAAAAAAAAAAAAAAAAAAAAAAAAAAAAAAAAAAAAAAAAAAAAAAAAAAAAAAAAAAAAAAAAAAAAAAAAAAAAAAAAAAAAAAAAAAAAAAAAAAAAAAAAAAAAAAAAAAAAAAAAAAAAAAAAAAAAAAAAAAAAAAAAAAAAAAAAAAAAAAAAAAAAAAAAAAAAAAAAAAAAAAAAAAAAAAAAAAAAAAAAAAAAAAAAAAAAAAAAAAAAAAAAAAAAAAAAAAAAAAAAAAAAAAAAAAAAAAAAAAAAAAAAAAAAAAAAAAAAAAAAAAAAAAAAAAAAAAAAAAAAAAAAAAAAAAAAAAAAAAAAAAAAAAAAAAAAAAAAAAAAAAAAAAAAAAAAAAAAAAAAAAAAAAAAAAAAAAAAAAAAAAAAAAAAAAAAAAAAAAAAAAAAAAAAAAAAAAAAAAAAAAAAAAAAAAAAAAAAAAAAAAAAAAAAAAAAAAAAAAAAAAAAAAAAAAAAAAAAAAAAAAAAAAAAAAAAAAAAAAAAAAAAAAAAAAAAAAAAAAAAAAAAAAAAAAAAAAAAAAAAAAAAAAAAAAAAAAAAAAAAAAAAAAAAAAAAAAAAAAAAAAAAAAAAAAAAAAAAAAAAAAAAAAAAAAAAAAAAAAAAAAAAAAAAAAAAAAAAAAAAAAAAAAAAAAAAAAAAAAAAAAAAAAAAAAAAAAAAAAAAAAAAAAAAAAAAAAAAAAAAAAAAAAAAAAAAAAAAAAAAAAAAAAAAAAAAAAAAAAAAAAAAAAAAAAAAAAAAAAAAAAAAAAAAAAAAAAAAAAAAAAAAAAAAAAAAAAAAAAAAAAAAAAAAAAAAAAAAAAAAAAAAAAAAAAAAAAAAAAAAAAAAAAAAAAAAAAAAAAAAAAAAAAAAAAAAAAAAAAAAAAAAAAAAAAAAAAAAAAAAAAAAAAAAAAAAAAAAAAAAAAAAAAAAAAAAAAAAAAAAAAAAAAAAAAAAAAAAAAAAAAAAAAAAAAAAAAAAAAAAAAAAAAAAAAAAAAAAAAAAAAAAAAAAAAAAAAAAAAAAAAAAAAAAAAAAAAAAAAAAAAAAAAAAAAAAAAAAAAAAAAAAAAAAAAAAAAAAAAAAAAAAAAAAAAAAAAAAAAAAAAAAAAAAAAAAAAAAAAAAAAAAAAAAAAAAAAAAAAAAAAAAAAAAAAAAAAAAAAAAAAAAAAAAAAAAAAAAAAAAAAAAAAAAAAAAAAAAAAAAAAAAAAAAAAAAAAAAAAAAAAAAAAAAAAAAAAAAAAAAAAAAAAAAAAAAAAAAAAAAAAAAAAAAAAAAAAAAAAAAAAAAAAAAAAAAAAAAAAAAAAAAAAAAAAAAAAAAAAAAAAAAAAAAAAAAAAAAAAAAAAAAAAAAAAAAAAAAAAAAAAAAAAAAAAAAAAAAAAAAAAAAAAAAAAAAAAAAAAAAAAAAAAAAAAAAAAAAAAAAAAAAAAAAAAAAAAAAAAAAAAAAAAAAAAAAAAAAAAAAAAAAAAAAAAAAAAAAAAAAAAAAAAAAAAAAAAAAAAAAAAAAAAAAAAAAAAAAAAAAAAAAAAAAAAAAAAAAAAAAAAAAAAAAAAAAAAAAAAAAAAAAAAAAAAAAAAAAAAAAAAAAAAAAAAAAAAAAAAAAAAAAAAAAAAAAAAAAAAAAAAAAAAAAAAAAAAAAAAAAAAAAAAAAAAAAAAAAAAAAAAAAAAAAAAAAAAAAAAAAAAAAAAAAAAAAAAAAAAAAAAAAAAAAAAAAAAAAAAAAAAAAAAAAAAAAAAAAAAAAAAAAAAAAAAAAAAAAAAAAAAAAAAAAAAAAAAAAAAAAAAAAAAAAAAAAAAAAAAAAAAAAAAAAAAAAAAAAAAAAAAAAAAAAAAAAAAAAAAAAAAAAAAAAAAAAAAAAAAAAAAAAAAAAAAAAAAAAAAAAAAAAAAAAAAAAAAAAAAAAAAAAAAAAAAAAAAAAAAAAAAAAAAAAAAAAAAAAAAAAAAAAAAAAAAAAAAAAAAAAAAAAAAAAAAAAAAAAAAAAAAAAAAAAAAAAAAAAAAAAAAAAAAAAAAAAAAAAAAAAAAAAAAAAAAAAAAAAAAAAAAAAAAAAAAAAAAAAAAAAAAAAAAAAAAAAAAAAAAAAAAAAAAAAAAAAAAAAAAAAAAAAAAAAAAAAAAAAAAAAAAAAAAAAAAAAAAAAAAAAAAAAAAAAAAAAAAAAAAAAAAAAAAAAAAAAAAAAAAAAAAAAAAAAAAAAAAAAAAAAAAAAAAAAAAAAAAAAAAAAAAAAAAAAAAAAAAAAAAAAAAAAAAAAAAAAAAAAAAAAAAAAAAAAAAAAAAAAAAAAAAAAAAAAAAAAAAAAAAAAAAAAAAAAAAAAAAAAAAAAAAAAAAAAAAAAAAAAAAAAAAAAAAAAAAAAAAAAAAAAAAAAAAAAAAAAAAAAAAAAAAAAAAAAAAAAAAAAAAAAAAAAAAAAAAAAAAAAAAAAAAAAAAAAAAAAAAAAAAAAAAAAAAAAAAAAAAAAAAAAAAAAAAAAAAAAAAAAAAAAAAAAAAAAAAAAAAAAAAAAAAAAAAAAAAAAAAAAAAAAAAAAAAAAAAAAAAAAAAAAAAAAAAAAAAAAAAAAAAAAAAAAAAAAAAAAAAAAAAAAAAAAAAAAAAAAAAAAAAAAAAAAAAAAAAAAAAAAAAAAAAAAAAAAAAAAAAAAAAAAAAAAAAAAAAAAAAAAAAAAAAAAAAAAAAAAAAAAAAAAAAAAAAAAAAAAAAAAAAAAAAAAAAAAAAAAAAAAAAAAAAAAAAAAAAAAAAAAAAAAAAAAAAAAAAAAAAAAAAAAAAAAAAAAAAAAAAAAAAAAAAAAAAAAAAAAAAAAAAAAAAAAAAAAAAAAAAAAAAAAAAAAAAAAAAAAAAAAAAAAAAAAAAAAAAAAAAAAAAAAAAAAAAAAAAAAAAAAAAAAAAAAAAAAAAAAAAAAAAAAAAAAAAAAAAAAAAAAAAAAAAAAAAAAAAAAAAAAAAAAAAAAAAAAAAAAAAAAAAAAAAAAAAAAAAAAAAAAAAAAAAAAAAAAAAAAAAAAAAAAAAAAAAAAAAAAAAAAAAAAAAAAAAAAAAAAAAAAAAAAAAAAAAAAAAAAAAAAAAAAAAAAAAAAAAAAAAAAAAAAAAAAAAAAAAAAAAAAAAAAAAAAAAAAAAAAAAAAAAAAAAAAAAAAAAAAAAAAAAAAAAAAAAAAAAAAAAAAAAAAAAAAAAAAAAAAAAAAAAAAAAAAAAAAAAAAAAAAAAAAAAAAAAAAAAAAAAAAAAAAAAAAAAAAAAAAAAAAAAAAAAAAAAAAAAAAAAAAAAAAAAAAAAAAAAAAAAAAAAAAAAAAAAAAAAAAAAAAAAAAAAAAAAAAAAAAAAAAAAAAAAAAAAAAAAAAAAAAAAAAAAAAAAAAAAAAAAAAAAAAAAAAAAAAAAAAAAAAAAAAAAAAAAAAAAAAAAAAAAAAAAAAAAAAAAAAAAAAAAAAAAAAAAAAAAAAAAAAAAAAAAAAAAAAAAAAAAAAAAAAAAAAAAAAAAAAAAAAAAAAAAAAAAAAAAAAAAAAAAAAAAAAAAAAAAAAAAAAAAAAAAAAAAAAAAAAAAAAAAAAAAAAAAAAAAAAAAAAAAAAAAAAAAAAAAAAAAAAAAAAAAAAAAAAAAAAAAAAAAAAAAAAAAAAAAAAAAAAAAAAAAAAAAAAAAAAAAAAAAAAAAAAAAAAAAAAAAAAAAAAAAAAAAAAAAAAAAAAAAAAAAAAAAAAAAAAAAAAAAAAAAAAAAAAAAAAAAAAAAAAAAAAAAAAAAAAAAAAAAAAAAAAAAAAAAAAAAAAAAAAAAAAAAAAAAAAAAAAAAAAAAAAAAAAAAAAAAAAAAAAAAAAAAAAAAAAAAAAAAAAAAAAAAAAAAAAAAAAAAAAAAAAAAAAAAAAAAAAAAAAAAAAAAAAAAAAAAAAAAAAAAAAAAAAAAAAAAAAAAAAAAAAAAAAAAAAAAAAAAAAAAAAAAAAAAAAAAAAAAAAAAAAAAAAAAAAAAAAAAAAAAAAAAAAAAAAAAAAAAAAAAAAAAAAAAAAAAAAAAAAAAAAAAAAAAAAAAAAAAAAAAAAAAAAAAAAAAAAAAAAAAAAAAAAAAAAAAAAAAAAAAAAAAAAAAAAAAAAAAAAAAAAAAAAAAAAAAAAAAAAAAAAAAAAAAAAAAAAAAAAAAAAAAAAAAAAAAAAPZYQIjrU4vep7tqlcNsDybozlWMDwlxt03gFv9lVlHXkOzpSGfUyqvz4esWbAU0UZc7HUKRe/xhBNVjC/DJegdxrbo=</c2pa:manifest></metadata><rect width="800" height="480" fill="#F6D8C2"></rect><g opacity=".35"><path d="M0 0v360" stroke="#FFFFFF" stroke-width="18"></path><path d="M60 0v360" stroke="#FFFFFF" stroke-width="18"></path><path d="M120 0v360" stroke="#FFFFFF" stroke-width="18"></path><path d="M180 0v360" stroke="#FFFFFF" stroke-width="18"></path><path d="M240 0v360" stroke="#FFFFFF" stroke-width="18"></path><path d="M300 0v360" stroke="#FFFFFF" stroke-width="18"></path><path d="M360 0v360" stroke="#FFFFFF" stroke-width="18"></path><path d="M420 0v360" stroke="#FFFFFF" stroke-width="18"></path><path d="M480 0v360" stroke="#FFFFFF" stroke-width="18"></path><path d="M540 0v360" stroke="#FFFFFF" stroke-width="18"></path><path d="M600 0v360" stroke="#FFFFFF" stroke-width="18"></path><path d="M660 0v360" stroke="#FFFFFF" stroke-width="18"></path><path d="M720 0v360" stroke="#FFFFFF" stroke-width="18"></path><path d="M780 0v360" stroke="#FFFFFF" stroke-width="18"></path></g>
<rect x="0" y="360" width="800" height="120" fill="#C98A5E"></rect><g stroke="#B07548" stroke-width="3"><path d="M0 360v120"></path><path d="M100 360v120"></path><path d="M200 360v120"></path><path d="M300 360v120"></path><path d="M400 360v120"></path><path d="M500 360v120"></path><path d="M600 360v120"></path><path d="M700 360v120"></path><path d="M800 360v120"></path></g>
<ellipse cx="330" cy="430" rx="250" ry="34" fill="#7FB8E0"></ellipse><ellipse cx="330" cy="430" rx="210" ry="24" fill="#A9D4EE"></ellipse>
<g transform="translate(40 140)"><rect x="0" y="0" width="150" height="220" fill="#8A5A3A"></rect><rect x="10" y="10" width="130" height="200" fill="#6B4A2E"></rect><rect x="10" y="76" width="130" height="8" fill="#8A5A3A"></rect><rect x="10" y="146" width="130" height="8" fill="#8A5A3A"></rect><rect x="10" y="216" width="130" height="8" fill="#8A5A3A"></rect><rect x="16" y="30" width="16" height="46" fill="#E0344E"></rect><rect x="34" y="24" width="16" height="52" fill="#FFC23D"></rect><rect x="52" y="34" width="16" height="42" fill="#44AFE2"></rect><rect x="74" y="28" width="16" height="48" fill="#7FC26B"></rect><rect x="92" y="20" width="16" height="56" fill="#7B63D6"></rect><rect x="18" y="100" width="16" height="46" fill="#44AFE2"></rect><rect x="40" y="96" width="16" height="50" fill="#FF8FB1"></rect><rect x="60" y="104" width="16" height="42" fill="#FFC23D"></rect><rect x="90" y="90" width="16" height="56" fill="#E0344E"></rect><rect x="16" y="170" width="16" height="46" fill="#7FC26B"></rect><rect x="38" y="166" width="16" height="50" fill="#E0344E"></rect><circle cx="110" cy="180" r="18" fill="#44AFE2"></circle><path d="M92 180h36" stroke="#7FC26B" stroke-width="6"></path></g>
<g transform="translate(560 60)"><path d="M60 0v70" stroke="#6B4A2E" stroke-width="3"></path><path d="M20 70h80l-14 40H34z" fill="#FFC23D"></path><path d="M0 110L60 300L120 110z" fill="#FFE8A0" opacity=".35"></path></g>
<g transform="translate(600 330)"><rect x="-70" y="-10" width="140" height="44" rx="8" fill="#A0703E"></rect><ellipse cx="-10" cy="-10" rx="48" ry="14" fill="#2A2A33"></ellipse><ellipse cx="-10" cy="-10" rx="14" ry="5" fill="#E0344E"></ellipse><path d="M40-20l20 18" stroke="#9AA3B2" stroke-width="5" stroke-linecap="round"></path><circle cx="40" cy="-20" r="6" fill="#9AA3B2"></circle></g>
<g transform="translate(330 380)"><ellipse rx="110" ry="46" fill="#E0344E"></ellipse><ellipse cy="-10" rx="90" ry="34" fill="#F06A7E"></ellipse></g>
<g transform="translate(330 300) scale(1)">
<path d="M-56 50C-84 50-104 62-98 76C-90 86-66 78-54 66Z" fill="#FFFFFF"></path>
<path d="M-26 74L-40 96" stroke="#FFFFFF" stroke-width="16" stroke-linecap="round" fill="none"></path><path d="M26 74L40 96" stroke="#FFFFFF" stroke-width="16" stroke-linecap="round" fill="none"></path><g transform="translate(-44 100)"><circle cx="-12" cy="-4" r="5" fill="#FFFFFF"></circle><circle cx="-12" cy="4" r="5" fill="#FFFFFF"></circle><circle cx="12" cy="-4" r="5" fill="#FFFFFF"></circle><circle cx="12" cy="4" r="5" fill="#FFFFFF"></circle><rect x="-12" y="-4" width="24" height="8" fill="#FFFFFF"></rect></g><g transform="translate(44 100)"><circle cx="-12" cy="-4" r="5" fill="#FFFFFF"></circle><circle cx="-12" cy="4" r="5" fill="#FFFFFF"></circle><circle cx="12" cy="-4" r="5" fill="#FFFFFF"></circle><circle cx="12" cy="4" r="5" fill="#FFFFFF"></circle><rect x="-12" y="-4" width="24" height="8" fill="#FFFFFF"></rect></g><path d="M0-88C44-88 64-24 64 18C64 66 36 86 0 86C-36 86-64 66-64 18C-64-24-44-88 0-88Z" fill="#FFFFFF"></path>
<path d="M-44-20C-56 16-50 58-20 80C-44 72-60 50-60 18C-60 0-54-12-44-20Z" fill="#EFE0D6" opacity="1"></path>

<path d="M-50 34Q-20 56 0 50" stroke="#FFFFFF" stroke-width="16" stroke-linecap="round" fill="none"></path><path d="M50 34Q20 56 0 50" stroke="#FFFFFF" stroke-width="16" stroke-linecap="round" fill="none"></path><circle cx="-16" cy="-22" r="6" fill="#4A1838"></circle><circle cx="16" cy="-22" r="6" fill="#4A1838"></circle><circle cx="-13.6" cy="-24.4" r="2" fill="#FFF"></circle><circle cx="18.4" cy="-24.4" r="2" fill="#FFF"></circle><path d="M-9-6q9 8 18 0" fill="none" stroke="#4A1838" stroke-width="4" stroke-linecap="round"></path><circle cx="-30" cy="-8" r="6.5" fill="#FFB3C6" opacity=".85"></circle><circle cx="30" cy="-8" r="6.5" fill="#FFB3C6" opacity=".85"></circle>
<path d="M-46-40C-48-104 48-104 46-40" fill="none" stroke="#B8203E" stroke-width="6" stroke-linecap="round"></path>
<rect x="-66" y="-58" width="28" height="44" rx="14" fill="#E0344E"></rect><rect x="-59" y="-50" width="12" height="26" rx="6" fill="#F47B3B"></rect>
<rect x="38" y="-58" width="28" height="44" rx="14" fill="#E0344E"></rect><rect x="47" y="-50" width="12" height="26" rx="6" fill="#F47B3B"></rect></g>
<g transform="translate(330 340)"><rect x="-30" y="-6" width="60" height="40" rx="4" fill="#44AFE2"></rect><rect x="-26" y="-2" width="26" height="32" fill="#FFFFFF"></rect><rect x="2" y="-2" width="24" height="32" fill="#F4F4F4"></rect></g>
<g transform="translate(470 250) rotate(10) scale(1)" fill="#E0344E"><ellipse cx="0" cy="0" rx="7" ry="5.4" transform="rotate(-20)"></ellipse><rect x="5" y="-28" width="3" height="28"></rect><path d="M8-28q13 6 8 18q-2-7-8-9z"></path></g><g transform="translate(510 210) rotate(-10) scale(0.8)" fill="#7B63D6"><ellipse cx="0" cy="0" rx="7" ry="5.4" transform="rotate(-20)"></ellipse><rect x="5" y="-28" width="3" height="28"></rect><path d="M8-28q13 6 8 18q-2-7-8-9z"></path></g></svg>