<svg xmlns="http://www.w3.org/2000/svg" viewBox="0 0 800 480" width="1600" height="960" preserveAspectRatio="xMidYMax slice" xmlns:c2pa="http://c2pa.org/manifest"><metadata><c2pa:manifest>AAAWgmp1bWIAAAAeanVtZGMycGEAEQAQgAAAqgA4m3EDYzJwYQAAABZcanVtYgAAAEdqdW1kYzJtYQARABCAAACqADibcQN1cm46YzJwYTplNWVlODBkYy1lZDdmLTQxN2MtYTRjMi1kYzk0NWM2ZWQzOTEAAAADl2p1bWIAAAApanVtZGMyYXMAEQAQgAAAqgA4m3EDYzJwYS5hc3NlcnRpb25zAAAAALxqdW1iAAAARGp1bWRjYm9yABEAEIAAAKoAOJtxE2MycGEuaW5ncmVkaWVudC52MwAAAAAYYzJzaBrlHDFZrVoXACz3LAMXfDcAAABwY2JvcqNpZGM6Zm9ybWF0bWltYWdlL3N2Zyt4bWxqaW5zdGFuY2VJRHgseG1wOmlpZDowZDUzOTRlMy0wN2E3LTQ2YzQtYjFkYy00YzRiMDMyZWU0ZGJscmVsYXRpb25zaGlwaHBhcmVudE9mAAAB4mp1bWIAAABBanVtZGNib3IAEQAQgAAAqgA4m3ETYzJwYS5hY3Rpb25zLnYyAAAAABhjMnNos+ha9oG4QX4kdKdPDNTLfwAAAZljYm9yomdhY3Rpb25zgqJmYWN0aW9ua2MycGEub3BlbmVkanBhcmFtZXRlcnOha2luZ3JlZGllbnRzgaJjdXJseC1zZWxmI2p1bWJmPWMycGEuYXNzZXJ0aW9ucy9jMnBhLmluZ3JlZGllbnQudjNkaGFzaFgg1ecRlwVOxfjShBUpvHrchlqsM+klVK5rufWR6bkG6U+kZmFjdGlvbngdY29tLmFudGhyb3BpYy5jbGF1ZGUucHJvdmlkZWRqcGFyYW1ldGVyc6F4H2NvbS5hbnRocm9waWMub3JpZ2luLWNvbmZpZGVuY2VndW5rbm93bmtkZXNjcmlwdGlvbnhmQ2xhdWRlIHByb3ZpZGVkIHRoaXMgZmlsZSBhdCB0aGUgcmVxdWVzdCBvZiBhIHVzZXIgYW5kIG1heSBoYXZlIGNyZWF0ZWQgb3IgbW9kaWZpZWQgdGhlIGZpbGUgY29udGVudHMubXNvZnR3YXJlQWdlbnShZG5hbWVmQ2xhdWRlcmFsbEFjdGlvbnNJbmNsdWRlZPUAAADIanVtYgAAAEBqdW1kY2JvcgARABCAAACqADibcRNjMnBhLmhhc2guZGF0YQAAAAAYYzJzaDwCAvwGMc2c3t2gplCHnlsAAACAY2JvcqVjYWxnZnNoYTI1NmNwYWRNAAAAAAAAAAAAAAAAAGRoYXNoWCAd9bIDa/diQxlc4xpDBVyeDHqUk/Ar8pimJNr3O0vxA2RuYW1lbmp1bWJmIG1hbmlmZXN0amV4Y2x1c2lvbnOBomVzdGFydBi8Zmxlbmd0aBkeBAAAAj5qdW1iAAAAJ2p1bWRjMmNsABEAEIAAAKoAOJtxA2MycGEuY2xhaW0udjIAAAACD2Nib3KlY2FsZ2ZzaGEyNTZpc2lnbmF0dXJleE1zZWxmI2p1bWJmPS9jMnBhL3VybjpjMnBhOmU1ZWU4MGRjLWVkN2YtNDE3Yy1hNGMyLWRjOTQ1YzZlZDM5MS9jMnBhLnNpZ25hdHVyZWppbnN0YW5jZUlEeCx4bXA6aWlkOmM5ZmU5ZmQ5LTE4ZGQtNDZjOS05ZjdiLWI3ZDgwMjk5MDBhN3JjcmVhdGVkX2Fzc2VydGlvbnODomN1cmx4LXNlbGYjanVtYmY9YzJwYS5hc3NlcnRpb25zL2MycGEuaW5ncmVkaWVudC52M2RoYXNoWCDV5xGXBU7F+NKEFSm8etyGWqwz6SVUrmu59ZHpuQbpT6JjdXJseCpzZWxmI2p1bWJmPWMycGEuYXNzZXJ0aW9ucy9jMnBhLmFjdGlvbnMudjJkaGFzaFggMPMGXgw9uBRZ63uQcfR1G7cWd3H758EeEMK75fFpSC6iY3VybHgpc2VsZiNqdW1iZj1jMnBhLmFzc2VydGlvbnMvYzJwYS5oYXNoLmRhdGFkaGFzaFggPuhGZqvEhfoVsPh5cvPEvcbVcapoVbzzLPOGK+hlaxN0Y2xhaW1fZ2VuZXJhdG9yX2luZm+jZG5hbWVvQW50aHJvcGljIEZpbGVzZ3ZlcnNpb25lMS4wLjBrc3BlY1ZlcnNpb25lMi40LjAAABA4anVtYgAAAChqdW1kYzJjcwARABCAAACqADibcQNjMnBhLnNpZ25hdHVyZQAAABAIY2JvctKEWQISogEmGCFZAgowggIGMIIBjaADAgECAhRA5aAK7sI50L64g/oGQgU9Z1UTADAKBggqhkjOPQQDAzBJMRcwFQYDVQQKEw5BbnRocm9waWMsIFBCQzEuMCwGA1UEAxMlQW50aHJvcGljIENvbnRlbnQgQ3JlZGVudGlhbHMgUm9vdCBDQTAeFw0yNjA4MDcxODQzNTZaFw0yODA4MDYxOTQzNTZaMEQxFzAVBgNVBAoTDkFudGhyb3BpYywgUEJDMSkwJwYDVQQDEyBBbnRocm9waWMgQ2xhdWRlIENvbnRlbnQgU2lnbmluZzBZMBMGByqGSM49AgEGCCqGSM49AwEHA0IABJh6CmvLUBgFFNU0vUKlOVtE6djd17L5SuwX0LemFisBM3dkd/3cyjxFA3Qo5S46fX0/ihY0VZ7mfb9KF703t5OjWDBWMA4GA1UdDwEB/wQEAwIHgDAVBgNVHSUEDjAMBgorBgEEAYPoXgIBMAwGA1UdEwEB/wQCMAAwHwYDVR0jBBgwFoAUzlHiBIFOZFsj+OPEz5o+nMHXXMIwCgYIKoZIzj0EAwMDZwAwZAIwMXMdFJ4BetLLVY7ORuE9noqbbAZOZn/aArXyTwFAZfKrPzxF2vPoJNf1+UCdg1XGAjBwX1zd9WGqYkqmL5SFqw1QySjr1zJfpJM9+1rdDwSPLMOPOjKuiXjoU/pUUeG9RwmhY3BhZFkNngAAAAAAAAAAAAAAAAAAAAAAAAAAAAAAAAAAAAAAAAAAAAAAAAAAAAAAAAAAAAAAAAAAAAAAAAAAAAAAAAAAAAAAAAAAAAAAAAAAAAAAAAAAAAAAAAAAAAAAAAAAAAAAAAAAAAAAAAAAAAAAAAAAAAAAAAAAAAAAAAAAAAAAAAAAAAAAAAAAAAAAAAAAAAAAAAAAAAAAAAAAAAAAAAAAAAAAAAAAAAAAAAAAAAAAAAAAAAAAAAAAAAAAAAAAAAAAAAAAAAAAAAAAAAAAAAAAAAAAAAAAAAAAAAAAAAAAAAAAAAAAAAAAAAAAAAAAAAAAAAAAAAAAAAAAAAAAAAAAAAAAAAAAAAAAAAAAAAAAAAAAAAAAAAAAAAAAAAAAAAAAAAAAAAAAAAAAAAAAAAAAAAAAAAAAAAAAAAAAAAAAAAAAAAAAAAAAAAAAAAAAAAAAAAAAAAAAAAAAAAAAAAAAAAAAAAAAAAAAAAAAAAAAAAAAAAAAAAAAAAAAAAAAAAAAAAAAAAAAAAAAAAAAAAAAAAAAAAAAAAAAAAAAAAAAAAAAAAAAAAAAAAAAAAAAAAAAAAAAAAAAAAAAAAAAAAAAAAAAAAAAAAAAAAAAAAAAAAAAAAAAAAAAAAAAAAAAAAAAAAAAAAAAAAAAAAAAAAAAAAAAAAAAAAAAAAAAAAAAAAAAAAAAAAAAAAAAAAAAAAAAAAAAAAAAAAAAAAAAAAAAAAAAAAAAAAAAAAAAAAAAAAAAAAAAAAAAAAAAAAAAAAAAAAAAAAAAAAAAAAAAAAAAAAAAAAAAAAAAAAAAAAAAAAAAAAAAAAAAAAAAAAAAAAAAAAAAAAAAAAAAAAAAAAAAAAAAAAAAAAAAAAAAAAAAAAAAAAAAAAAAAAAAAAAAAAAAAAAAAAAAAAAAAAAAAAAAAAAAAAAAAAAAAAAAAAAAAAAAAAAAAAAAAAAAAAAAAAAAAAAAAAAAAAAAAAAAAAAAAAAAAAAAAAAAAAAAAAAAAAAAAAAAAAAAAAAAAAAAAAAAAAAAAAAAAAAAAAAAAAAAAAAAAAAAAAAAAAAAAAAAAAAAAAAAAAAAAAAAAAAAAAAAAAAAAAAAAAAAAAAAAAAAAAAAAAAAAAAAAAAAAAAAAAAAAAAAAAAAAAAAAAAAAAAAAAAAAAAAAAAAAAAAAAAAAAAAAAAAAAAAAAAAAAAAAAAAAAAAAAAAAAAAAAAAAAAAAAAAAAAAAAAAAAAAAAAAAAAAAAAAAAAAAAAAAAAAAAAAAAAAAAAAAAAAAAAAAAAAAAAAAAAAAAAAAAAAAAAAAAAAAAAAAAAAAAAAAAAAAAAAAAAAAAAAAAAAAAAAAAAAAAAAAAAAAAAAAAAAAAAAAAAAAAAAAAAAAAAAAAAAAAAAAAAAAAAAAAAAAAAAAAAAAAAAAAAAAAAAAAAAAAAAAAAAAAAAAAAAAAAAAAAAAAAAAAAAAAAAAAAAAAAAAAAAAAAAAAAAAAAAAAAAAAAAAAAAAAAAAAAAAAAAAAAAAAAAAAAAAAAAAAAAAAAAAAAAAAAAAAAAAAAAAAAAAAAAAAAAAAAAAAAAAAAAAAAAAAAAAAAAAAAAAAAAAAAAAAAAAAAAAAAAAAAAAAAAAAAAAAAAAAAAAAAAAAAAAAAAAAAAAAAAAAAAAAAAAAAAAAAAAAAAAAAAAAAAAAAAAAAAAAAAAAAAAAAAAAAAAAAAAAAAAAAAAAAAAAAAAAAAAAAAAAAAAAAAAAAAAAAAAAAAAAAAAAAAAAAAAAAAAAAAAAAAAAAAAAAAAAAAAAAAAAAAAAAAAAAAAAAAAAAAAAAAAAAAAAAAAAAAAAAAAAAAAAAAAAAAAAAAAAAAAAAAAAAAAAAAAAAAAAAAAAAAAAAAAAAAAAAAAAAAAAAAAAAAAAAAAAAAAAAAAAAAAAAAAAAAAAAAAAAAAAAAAAAAAAAAAAAAAAAAAAAAAAAAAAAAAAAAAAAAAAAAAAAAAAAAAAAAAAAAAAAAAAAAAAAAAAAAAAAAAAAAAAAAAAAAAAAAAAAAAAAAAAAAAAAAAAAAAAAAAAAAAAAAAAAAAAAAAAAAAAAAAAAAAAAAAAAAAAAAAAAAAAAAAAAAAAAAAAAAAAAAAAAAAAAAAAAAAAAAAAAAAAAAAAAAAAAAAAAAAAAAAAAAAAAAAAAAAAAAAAAAAAAAAAAAAAAAAAAAAAAAAAAAAAAAAAAAAAAAAAAAAAAAAAAAAAAAAAAAAAAAAAAAAAAAAAAAAAAAAAAAAAAAAAAAAAAAAAAAAAAAAAAAAAAAAAAAAAAAAAAAAAAAAAAAAAAAAAAAAAAAAAAAAAAAAAAAAAAAAAAAAAAAAAAAAAAAAAAAAAAAAAAAAAAAAAAAAAAAAAAAAAAAAAAAAAAAAAAAAAAAAAAAAAAAAAAAAAAAAAAAAAAAAAAAAAAAAAAAAAAAAAAAAAAAAAAAAAAAAAAAAAAAAAAAAAAAAAAAAAAAAAAAAAAAAAAAAAAAAAAAAAAAAAAAAAAAAAAAAAAAAAAAAAAAAAAAAAAAAAAAAAAAAAAAAAAAAAAAAAAAAAAAAAAAAAAAAAAAAAAAAAAAAAAAAAAAAAAAAAAAAAAAAAAAAAAAAAAAAAAAAAAAAAAAAAAAAAAAAAAAAAAAAAAAAAAAAAAAAAAAAAAAAAAAAAAAAAAAAAAAAAAAAAAAAAAAAAAAAAAAAAAAAAAAAAAAAAAAAAAAAAAAAAAAAAAAAAAAAAAAAAAAAAAAAAAAAAAAAAAAAAAAAAAAAAAAAAAAAAAAAAAAAAAAAAAAAAAAAAAAAAAAAAAAAAAAAAAAAAAAAAAAAAAAAAAAAAAAAAAAAAAAAAAAAAAAAAAAAAAAAAAAAAAAAAAAAAAAAAAAAAAAAAAAAAAAAAAAAAAAAAAAAAAAAAAAAAAAAAAAAAAAAAAAAAAAAAAAAAAAAAAAAAAAAAAAAAAAAAAAAAAAAAAAAAAAAAAAAAAAAAAAAAAAAAAAAAAAAAAAAAAAAAAAAAAAAAAAAAAAAAAAAAAAAAAAAAAAAAAAAAAAAAAAAAAAAAAAAAAAAAAAAAAAAAAAAAAAAAAAAAAAAAAAAAAAAAAAAAAAAAAAAAAAAAAAAAAAAAAAAAAAAAAAAAAAAAAAAAAAAAAAAAAAAAAAAAAAAAAAAAAAAAAAAAAAAAAAAAAAAAAAAAAAAAAAAAAAAAAAAAAAAAAAAAAAAAAAAAAAAAAAAAAAAAAAAAAAAAAAAAAAAAAAAAAAAAAAAAAAAAAAAAAAAAAAAAAAAAAAAAAAAAAAAAAAAAAAAAAAAAAAAAAAAAAAAAAAAAAAAAAAAAAAAAAAAAAAAAAAAAAAAAAAAAAAAAAAAAAAAAAAAAAAAAAAAAAAAAAAAAAAAAAAAAAAAAAAAAAAAAAAAAAAAAAAAAAAAAAAAAAAAAAAAAAAAAAAAAAAAAAAAAAAAAAAAAAAAAAAAAAAAAAAAAAAAAAAAAAAAAAAAAAAAAAAAAAAAAAAAAAAAAAAAAAAAAAAAAAAAAAAAAAAAAAAAAAAAAAAAAAAAAAAAAAAAAAAAAAAAAAAAAAAAAAAAAAAAAAAAAAAAAAAAAAAAAAAAAAAAAAAAAAAAAAAAAAAAAAAAAAAAAAAAAAAAAAAAAAAAAAAAAAAAAAAAAAAAAAAAAAAAAAAAAAAAAAAAAAAAAAAAAAAAAAAAAAAAAAAAAAAAAAAAAAAAAAAAAAAAAAAAAAAAAAAAAAAAAAAAAAAAAAAAAAAAAAAAAAAAAAAAAAAAAAAAAAAAAAAAAAAAAAAAAAAAAAAAAAAAAAAAAAAAAAAAAAAAAAAAAAAAAAAAAAAAAAAAAAAAAAAAAAAAAAAAAAAAAAAAAAAAAAAAAAAAAAAAAAAAAAAAAAAAAAAAAAAAAAAAAAAAAAAAAAAAAAAAAAAAAAAAAAAAAAAAAAAAAAAAAAAAAAAAAAAAAAAAAAAAAAAAAAAAAAAAAAAAAAAAAAAAAAAAAAAAAAAAAAAAAAAAAAAAAAAAAAAAAAAAAAAAAAAAAAAAAAAAAAAAAAAAAAAAAAAAAAAAAAAAAAAAAAAAAAAAAAAAAAAAAAAAAAAAAAAAAAAAAAAAAAAAAAAAAAAAAAAAAAAAAAAAAAAAAAAAAAAAAAAAAAAAAAAAAAAAAAAAAAAAAAAAAAAAAAAAAAAAAAAAAAAAAAAAAAAAAAAAAAAAAAAAAAAAAAAAAAAAAAAAAAAAAAAAAAAAAAAAAAAAAAAAAAAAAAAAAAAAAAAAAAAAAAAAAAAAAAAAAAAAAAAAAAAAAAAAAAAAAAAAAAAAAAAAAAAAAAAAAAAAAAAAAAAAAAAAAAAAAAAAAAAAAAAAAAAAAAAAAAAAAAAAAAAAAAAAAAAAAAAAAAAAAAAAAAAAAAAAAAAAAAAAAAAAAAAAAAAAAAAAAAAAAAAAAAAAAAAAAAAAAAAAAAAAAAAAAAAAAAAAAAAAAAAAAAAAAAAAAAAAAAAAAAAAAAAAAAAAAAAAAAAAAAAAAAAAAAAAAAAAAAAAAAAAAAAAAAAAAAAAAAAAAAAAAAAAAAAAAAAAAAAAAAAAAAAAAAAAAAAAAAAAAAAAAAAAAAAAAAAAAAAAAAAAAAAAAAAAAAAAAAAAAAAAAAAAAAAAAAAAAAAAAAAAAAAAAAAAPZYQHjIxTLiWilOjHqjb0Quw7Bl3WZRuCqj77694m9b5KR5isOMweSDFL5UX5zTOY2It1ie/obchbAJjMBQ2F39DQo=</c2pa:manifest></metadata><rect width="800" height="480" fill="#BFE8EE"></rect><circle cx="268" cy="96" r="30" fill="#FFD66B" opacity=".25"></circle><circle cx="268" cy="96" r="20" fill="#FFD66B"></circle><g transform="translate(610 70) scale(0.8)" fill="#FFFFFF"><ellipse cx="30" cy="22" rx="30" ry="12"></ellipse><ellipse cx="22" cy="14" rx="14" ry="12"></ellipse><ellipse cx="40" cy="12" rx="16" ry="12"></ellipse></g><g transform="translate(520 84) scale(0.7)" fill="#FFFFFF"><ellipse cx="30" cy="22" rx="30" ry="12"></ellipse><ellipse cx="22" cy="14" rx="14" ry="12"></ellipse><ellipse cx="40" cy="12" rx="16" ry="12"></ellipse></g><g transform="translate(30 250) scale(0.6)" fill="#FFFFFF"><ellipse cx="30" cy="22" rx="30" ry="12"></ellipse><ellipse cx="22" cy="14" rx="14" ry="12"></ellipse><ellipse cx="40" cy="12" rx="16" ry="12"></ellipse></g><rect x="0" y="350" width="800" height="80" fill="#4FB9C4"></rect><rect x="0" y="350" width="800" height="6" fill="#7FD1DA"></rect><g transform="translate(680 382)"><path d="M-60-20h120l-16 22h-88z" fill="#7A4A2A"></path><path d="M-60-20h120" stroke="#5A3218" stroke-width="3"></path><circle cx="-40" cy="-10" r="3" fill="#3A2210"></circle><circle cx="-20" cy="-10" r="3" fill="#3A2210"></circle><circle cx="0" cy="-10" r="3" fill="#3A2210"></circle><circle cx="20" cy="-10" r="3" fill="#3A2210"></circle><circle cx="40" cy="-10" r="3" fill="#3A2210"></circle><path d="M0-20v-86M-30-20v-60M30-20v-56" stroke="#5A3218" stroke-width="4"></path><path d="M-2-100q-26 16 0 34zM2-100q26 16 0 34" fill="#FFF4DE"></path><path d="M-2-60q-24 12 0 30zM2-60q24 12 0 30" fill="#FFF4DE"></path><path d="M-30-76q-18 12 0 26zM30-72q18 12 0 24" fill="#FFF4DE"></path><path d="M0-106h22l-4 6 4 6H0z" fill="#1E2A33"></path><circle cx="10" cy="-101" r="2.4" fill="#FFFFFF"></circle></g><path d="M40 384q10-6 20 0t20 0" stroke="#FFFFFF" stroke-width="2.5" fill="none" stroke-linecap="round" opacity=".7"></path><path d="M140 398q10-6 20 0t20 0" stroke="#FFFFFF" stroke-width="2.5" fill="none" stroke-linecap="round" opacity=".7"></path><path d="M240 384q10-6 20 0t20 0" stroke="#FFFFFF" stroke-width="2.5" fill="none" stroke-linecap="round" opacity=".7"></path><path d="M340 398q10-6 20 0t20 0" stroke="#FFFFFF" stroke-width="2.5" fill="none" stroke-linecap="round" opacity=".7"></path><path d="M440 384q10-6 20 0t20 0" stroke="#FFFFFF" stroke-width="2.5" fill="none" stroke-linecap="round" opacity=".7"></path><path d="M540 398q10-6 20 0t20 0" stroke="#FFFFFF" stroke-width="2.5" fill="none" stroke-linecap="round" opacity=".7"></path><path d="M640 384q10-6 20 0t20 0" stroke="#FFFFFF" stroke-width="2.5" fill="none" stroke-linecap="round" opacity=".7"></path><path d="M740 398q10-6 20 0t20 0" stroke="#FFFFFF" stroke-width="2.5" fill="none" stroke-linecap="round" opacity=".7"></path><path d="M0 424 C170 398 300 440 450 430 C590 420 690 396 800 412 L800 480 L0 480 Z" fill="#F3D9A4"></path><path d="M0 452 C200 440 360 466 520 458 C660 452 740 442 800 446 L800 480 L0 480 Z" fill="#EBCB8A"></path><g transform="translate(10 470)"><path d="M0 0q-4-80 30-140" fill="none" stroke="#A0703E" stroke-width="10" stroke-linecap="round"></path><path d="M30-140q-22 -6 -44 20q14.666666666666666 -10 44 -20z" fill="#3E9E5E"></path><path d="M30-140q-12 -42 -24 -16q8 -10 24 16z" fill="#3E9E5E"></path><path d="M30-140q6 -46 12 -20q-4 -10 -12 20z" fill="#3E9E5E"></path><path d="M30-140q20 -24 40 2q-13.333333333333334 -10 -40 -2z" fill="#3E9E5E"></path><path d="M30-140q25 2 50 28q-16.666666666666668 -10 -50 -28z" fill="#3E9E5E"></path><circle cx="26" cy="-134" r="6" fill="#7A4A2A"></circle><circle cx="36" cy="-132" r="6" fill="#7A4A2A"></circle></g><g transform="translate(180 474)"><rect x="-30" y="-30" width="60" height="30" rx="3" fill="#8A5A2E"></rect><path d="M-30-30q30-24 60 0z" fill="#A0703E"></path><path d="M-32-32q32-10 64 0l-4-10q-28-12-56 0z" fill="#F5B83D"></path><rect x="-6" y="-26" width="12" height="12" rx="2" fill="#F5B83D"></rect><path d="M-30-14h60" stroke="#5A3218" stroke-width="2"></path><circle cx="-20" cy="-34" r="5" fill="#FFD66B" stroke="#B8841A" stroke-width="1.5"></circle><circle cx="-8" cy="-39" r="5" fill="#FFD66B" stroke="#B8841A" stroke-width="1.5"></circle><circle cx="6" cy="-34" r="5" fill="#FFD66B" stroke="#B8841A" stroke-width="1.5"></circle><circle cx="18" cy="-39" r="5" fill="#FFD66B" stroke="#B8841A" stroke-width="1.5"></circle></g><g transform="translate(600 478) rotate(-20)" fill="none" stroke="#5A6B78" stroke-width="5" stroke-linecap="round"><circle cx="0" cy="-44" r="6"></circle><path d="M0-38v36M-12-28h24M-20-12q4 14 20 14q16 0 20-14"></path></g><path d="M270.0 460.0L272.4 466.8L279.5 466.9L273.8 471.2L275.9 478.1L270.0 474.0L264.1 478.1L266.2 471.2L260.5 466.9L267.6 466.8Z" fill="#F28C6B" stroke="#F28C6B" stroke-width="2" stroke-linejoin="round"></path><path d="M740.0 456.0L742.4 462.8L749.5 462.9L743.8 467.2L745.9 474.1L740.0 470.0L734.1 474.1L736.2 467.2L730.5 462.9L737.6 462.8Z" fill="#E0485A" stroke="#E0485A" stroke-width="2" stroke-linejoin="round"></path><ellipse cx="128" cy="474" rx="6" ry="3" fill="#FFD66B" stroke="#B8841A" stroke-width="1.2"></ellipse><ellipse cx="140" cy="470" rx="6" ry="3" fill="#FFD66B" stroke="#B8841A" stroke-width="1.2"></ellipse><ellipse cx="300" cy="476" rx="6" ry="3" fill="#FFD66B" stroke="#B8841A" stroke-width="1.2"></ellipse><ellipse cx="318" cy="472" rx="6" ry="3" fill="#FFD66B" stroke="#B8841A" stroke-width="1.2"></ellipse><ellipse cx="640" cy="476" rx="6" ry="3" fill="#FFD66B" stroke="#B8841A" stroke-width="1.2"></ellipse><path d="M520 474q6-10 12 0z" fill="#FFFFFF"></path><path d="M520 474q6-10 12 0" stroke="#E8C98E" stroke-width="1.5" fill="none"></path><g transform="translate(470 470) rotate(-30)"><rect x="-12" y="-5" width="22" height="10" rx="5" fill="#7FD1C7" opacity=".85"></rect><rect x="10" y="-3" width="7" height="6" rx="1" fill="#8A5A2E"></rect><rect x="-8" y="-3" width="10" height="6" fill="#FFF4DE"></rect></g></svg>